<svg xmlns="http://www.w3.org/2000/svg" width="512" height="512" viewBox="0 0 512 512"><defs><linearGradient id="gold" x1="0" y1="0" x2="0" y2="1"><stop offset="0" stop-color="#fff6cf"/><stop offset="0.28" stop-color="#ffd86b"/><stop offset="0.52" stop-color="#fff3b0"/><stop offset="0.75" stop-color="#c89627"/><stop offset="1" stop-color="#7a5a10"/></linearGradient><linearGradient id="goldEdge" x1="0" y1="0" x2="0" y2="1"><stop offset="0" stop-color="#fffbe2"/><stop offset="1" stop-color="#9c7a1a"/></linearGradient><radialGradient id="panel" cx="0.5" cy="0.38" r="0.85"><stop offset="0" stop-color="#8d86ab"/><stop offset="0.55" stop-color="#3a2f6e"/><stop offset="1" stop-color="#1a1531"/></radialGradient><radialGradient id="vig" cx="0.5" cy="0.5" r="0.72"><stop offset="0.55" stop-color="#000000" stop-opacity="0"/><stop offset="1" stop-color="#000000" stop-opacity="0.55"/></radialGradient><filter id="tileShadow" x="-40%" y="-40%" width="180%" height="180%"><feDropShadow dx="0" dy="12" stdDeviation="14" flood-color="#000000" flood-opacity="0.55"/></filter><linearGradient id="helmFace" x1="164" y1="150" x2="348" y2="400" gradientUnits="userSpaceOnUse"><stop offset="0" stop-color="#ffffff"/><stop offset="0.35" stop-color="#cdd6e0"/><stop offset="0.7" stop-color="#8d9aa8"/><stop offset="1" stop-color="#5a6775"/></linearGradient><linearGradient id="crestFace" x1="256" y1="70" x2="256" y2="260" gradientUnits="userSpaceOnUse"><stop offset="0" stop-color="#ff8a78"/><stop offset="0.45" stop-color="#d92e1e"/><stop offset="1" stop-color="#8a1512"/></linearGradient></defs>
<g filter="url(#tileShadow)">
  <rect x="20" y="18" width="472" height="472" rx="58" fill="url(#gold)" stroke="#5a430e" stroke-width="4"/>
  <rect x="36" y="34" width="440" height="440" rx="46" fill="none" stroke="url(#goldEdge)" stroke-width="3" opacity="0.8"/>
  <rect x="54" y="52" width="404" height="404" rx="34" fill="url(#panel)"/>
  <rect x="54" y="52" width="404" height="404" rx="34" fill="url(#vig)"/>
  <rect x="54" y="52" width="404" height="404" rx="34" fill="none" stroke="#2b2010" stroke-width="3" opacity="0.7"/>
  <g transform="translate(3.60,8)"><path d="M146,260 Q256,-66 366,260 L330,260 Q256,52 182,260 Z" fill="#5a0d0a"/></g><g transform="translate(3.15,7)"><path d="M146,260 Q256,-66 366,260 L330,260 Q256,52 182,260 Z" fill="#5a0d0a"/></g><g transform="translate(2.70,6)"><path d="M146,260 Q256,-66 366,260 L330,260 Q256,52 182,260 Z" fill="#5a0d0a"/></g><g transform="translate(2.25,5)"><path d="M146,260 Q256,-66 366,260 L330,260 Q256,52 182,260 Z" fill="#5a0d0a"/></g><g transform="translate(1.80,4)"><path d="M146,260 Q256,-66 366,260 L330,260 Q256,52 182,260 Z" fill="#5a0d0a"/></g><g transform="translate(1.35,3)"><path d="M146,260 Q256,-66 366,260 L330,260 Q256,52 182,260 Z" fill="#5a0d0a"/></g><g transform="translate(0.90,2)"><path d="M146,260 Q256,-66 366,260 L330,260 Q256,52 182,260 Z" fill="#5a0d0a"/></g><g transform="translate(0.45,1)"><path d="M146,260 Q256,-66 366,260 L330,260 Q256,52 182,260 Z" fill="#5a0d0a"/></g><path d="M146,260 Q256,-66 366,260 L330,260 Q256,52 182,260 Z" fill="url(#crestFace)"/><line x1="168.0" y1="201.3" x2="196.8" y2="222.6" stroke="#7f1310" stroke-width="4" opacity="0.6"/><line x1="190.0" y1="155.7" x2="211.6" y2="193.4" stroke="#7f1310" stroke-width="4" opacity="0.6"/><line x1="212.0" y1="123.1" x2="226.4" y2="172.6" stroke="#7f1310" stroke-width="4" opacity="0.6"/><line x1="234.0" y1="103.5" x2="241.2" y2="160.2" stroke="#7f1310" stroke-width="4" opacity="0.6"/><line x1="256.0" y1="97.0" x2="256.0" y2="156.0" stroke="#7f1310" stroke-width="4" opacity="0.6"/><line x1="278.0" y1="103.5" x2="270.8" y2="160.2" stroke="#7f1310" stroke-width="4" opacity="0.6"/><line x1="300.0" y1="123.1" x2="285.6" y2="172.6" stroke="#7f1310" stroke-width="4" opacity="0.6"/><line x1="322.0" y1="155.7" x2="300.4" y2="193.4" stroke="#7f1310" stroke-width="4" opacity="0.6"/><line x1="344.0" y1="201.3" x2="315.2" y2="222.6" stroke="#7f1310" stroke-width="4" opacity="0.6"/><g transform="translate(4.05,9)"><path d="M164,272 C164,196 200,156 256,156 C312,156 348,196 348,272 L348,330 C348,352 336,376 314,398 L296,398 L300,322 C300,308 290,300 278,300 L278,394 L234,394 L234,300 C222,300 212,308 212,322 L216,398 L198,398 C176,376 164,352 164,330 Z" fill="#39424d"/></g><g transform="translate(3.60,8)"><path d="M164,272 C164,196 200,156 256,156 C312,156 348,196 348,272 L348,330 C348,352 336,376 314,398 L296,398 L300,322 C300,308 290,300 278,300 L278,394 L234,394 L234,300 C222,300 212,308 212,322 L216,398 L198,398 C176,376 164,352 164,330 Z" fill="#39424d"/></g><g transform="translate(3.15,7)"><path d="M164,272 C164,196 200,156 256,156 C312,156 348,196 348,272 L348,330 C348,352 336,376 314,398 L296,398 L300,322 C300,308 290,300 278,300 L278,394 L234,394 L234,300 C222,300 212,308 212,322 L216,398 L198,398 C176,376 164,352 164,330 Z" fill="#39424d"/></g><g transform="translate(2.70,6)"><path d="M164,272 C164,196 200,156 256,156 C312,156 348,196 348,272 L348,330 C348,352 336,376 314,398 L296,398 L300,322 C300,308 290,300 278,300 L278,394 L234,394 L234,300 C222,300 212,308 212,322 L216,398 L198,398 C176,376 164,352 164,330 Z" fill="#39424d"/></g><g transform="translate(2.25,5)"><path d="M164,272 C164,196 200,156 256,156 C312,156 348,196 348,272 L348,330 C348,352 336,376 314,398 L296,398 L300,322 C300,308 290,300 278,300 L278,394 L234,394 L234,300 C222,300 212,308 212,322 L216,398 L198,398 C176,376 164,352 164,330 Z" fill="#39424d"/></g><g transform="translate(1.80,4)"><path d="M164,272 C164,196 200,156 256,156 C312,156 348,196 348,272 L348,330 C348,352 336,376 314,398 L296,398 L300,322 C300,308 290,300 278,300 L278,394 L234,394 L234,300 C222,300 212,308 212,322 L216,398 L198,398 C176,376 164,352 164,330 Z" fill="#39424d"/></g><g transform="translate(1.35,3)"><path d="M164,272 C164,196 200,156 256,156 C312,156 348,196 348,272 L348,330 C348,352 336,376 314,398 L296,398 L300,322 C300,308 290,300 278,300 L278,394 L234,394 L234,300 C222,300 212,308 212,322 L216,398 L198,398 C176,376 164,352 164,330 Z" fill="#39424d"/></g><g transform="translate(0.90,2)"><path d="M164,272 C164,196 200,156 256,156 C312,156 348,196 348,272 L348,330 C348,352 336,376 314,398 L296,398 L300,322 C300,308 290,300 278,300 L278,394 L234,394 L234,300 C222,300 212,308 212,322 L216,398 L198,398 C176,376 164,352 164,330 Z" fill="#39424d"/></g><g transform="translate(0.45,1)"><path d="M164,272 C164,196 200,156 256,156 C312,156 348,196 348,272 L348,330 C348,352 336,376 314,398 L296,398 L300,322 C300,308 290,300 278,300 L278,394 L234,394 L234,300 C222,300 212,308 212,322 L216,398 L198,398 C176,376 164,352 164,330 Z" fill="#39424d"/></g><path d="M164,272 C164,196 200,156 256,156 C312,156 348,196 348,272 L348,330 C348,352 336,376 314,398 L296,398 L300,322 C300,308 290,300 278,300 L278,394 L234,394 L234,300 C222,300 212,308 212,322 L216,398 L198,398 C176,376 164,352 164,330 Z" fill="url(#helmFace)"/><path d="M180,232 Q256,168 332,232" fill="none" stroke="#ffffff" stroke-width="7" opacity="0.55"/><path d="M214,262 q22,-14 44,4 q-20,12 -44,-4 Z" fill="#13181f"/><path d="M214,262 q22,-14 44,4 q-20,12 -44,-4 Z" fill="#13181f" transform="translate(512,0) scale(-1,1)"/><rect x="250" y="250" width="5" height="140" fill="#5a6775" opacity="0.8"/><path d="M322 178 Q324.52 193.48 340 196 Q324.52 198.52 322 214 Q319.48 198.52 304 196 Q319.48 193.48 322 178Z" fill="#ffffff" opacity="0.85"/><path d="M196 318 Q197.68 328.32 208 330 Q197.68 331.68 196 342 Q194.32 331.68 184 330 Q194.32 328.32 196 318Z" fill="#ffffff" opacity="0.7"/>
  <path d="M70,138 Q256,52 442,138 L442,90 Q442,68 420,68 L92,68 Q70,68 70,90 Z" fill="#ffffff" opacity="0.07"/>
  <circle cx="40" cy="38" r="17" fill="url(#gold)" stroke="#5a430e" stroke-width="2.5"/><circle cx="40" cy="38" r="8" fill="#fff3b0" stroke="#c89627" stroke-width="2"/><circle cx="472" cy="38" r="17" fill="url(#gold)" stroke="#5a430e" stroke-width="2.5"/><circle cx="472" cy="38" r="8" fill="#fff3b0" stroke="#c89627" stroke-width="2"/><circle cx="40" cy="470" r="17" fill="url(#gold)" stroke="#5a430e" stroke-width="2.5"/><circle cx="40" cy="470" r="8" fill="#fff3b0" stroke="#c89627" stroke-width="2"/><circle cx="472" cy="470" r="17" fill="url(#gold)" stroke="#5a430e" stroke-width="2.5"/><circle cx="472" cy="470" r="8" fill="#fff3b0" stroke="#c89627" stroke-width="2"/>
</g></svg>