<svg xmlns="http://www.w3.org/2000/svg" width="1920" height="1080" viewBox="0 0 1920 1080"><defs><linearGradient id="skyG" x1="0" y1="0" x2="0" y2="1"><stop offset="0" stop-color="#171130"/><stop offset="0.5" stop-color="#2a1d4a"/><stop offset="1" stop-color="#0a0a16"/></linearGradient><linearGradient id="floorG" x1="0" y1="0" x2="0" y2="1"><stop offset="0" stop-color="#332b4a"/><stop offset="1" stop-color="#110d1c"/></linearGradient><linearGradient id="colG" x1="0" y1="0" x2="1" y2="0"><stop offset="0" stop-color="#544a66"/><stop offset="0.5" stop-color="#bdb3cc"/><stop offset="1" stop-color="#544a66"/></linearGradient><linearGradient id="capG" x1="0" y1="0" x2="0" y2="1"><stop offset="0" stop-color="#cfc5dd"/><stop offset="1" stop-color="#6e6382"/></linearGradient><radialGradient id="rays" cx="0.5" cy="0.32" r="0.7"><stop offset="0" stop-color="#b89ce0" stop-opacity="0.4"/><stop offset="0.6" stop-color="#6a4ea8" stop-opacity="0.12"/><stop offset="1" stop-color="#3a2a6a" stop-opacity="0"/></radialGradient><radialGradient id="moon" cx="0.5" cy="0.5" r="0.5"><stop offset="0" stop-color="#fff8e0" stop-opacity="0.95"/><stop offset="0.3" stop-color="#e8d9ff" stop-opacity="0.5"/><stop offset="1" stop-color="#a98ce0" stop-opacity="0"/></radialGradient><linearGradient id="mountG" x1="0" y1="0" x2="0" y2="1"><stop offset="0" stop-color="#241a3e"/><stop offset="1" stop-color="#140e26"/></linearGradient></defs>
<rect width="1920" height="1080" fill="url(#skyG)"/>
<circle cx="179" cy="29" r="1.5" fill="#fff3d0" opacity="0.48"/><circle cx="103" cy="57" r="1.4" fill="#fff3d0" opacity="0.25"/><circle cx="1469" cy="240" r="2.0" fill="#fff3d0" opacity="0.50"/><circle cx="913" cy="575" r="0.6" fill="#fff3d0" opacity="0.25"/><circle cx="1026" cy="170" r="2.0" fill="#fff3d0" opacity="0.35"/><circle cx="512" cy="35" r="1.4" fill="#fff3d0" opacity="0.61"/><circle cx="146" cy="627" r="1.9" fill="#fff3d0" opacity="0.31"/><circle cx="1750" cy="532" r="1.2" fill="#fff3d0" opacity="0.32"/><circle cx="548" cy="109" r="1.7" fill="#fff3d0" opacity="0.24"/><circle cx="1176" cy="368" r="0.8" fill="#fff3d0" opacity="0.56"/><circle cx="277" cy="313" r="0.6" fill="#fff3d0" opacity="0.27"/><circle cx="306" cy="327" r="1.9" fill="#fff3d0" opacity="0.24"/><circle cx="1179" cy="430" r="2.2" fill="#fff3d0" opacity="0.53"/><circle cx="546" cy="166" r="2.0" fill="#fff3d0" opacity="0.30"/><circle cx="1458" cy="670" r="0.8" fill="#fff3d0" opacity="0.36"/><circle cx="1190" cy="699" r="1.2" fill="#fff3d0" opacity="0.52"/><circle cx="1086" cy="252" r="0.8" fill="#fff3d0" opacity="0.36"/><circle cx="1827" cy="449" r="0.6" fill="#fff3d0" opacity="0.50"/><circle cx="1298" cy="52" r="2.0" fill="#fff3d0" opacity="0.45"/><circle cx="330" cy="296" r="1.3" fill="#fff3d0" opacity="0.57"/><circle cx="1524" cy="581" r="1.7" fill="#fff3d0" opacity="0.53"/><circle cx="192" cy="346" r="2.0" fill="#fff3d0" opacity="0.25"/><circle cx="992" cy="7" r="0.4" fill="#fff3d0" opacity="0.63"/><circle cx="718" cy="587" r="1.9" fill="#fff3d0" opacity="0.60"/><circle cx="906" cy="226" r="1.3" fill="#fff3d0" opacity="0.49"/><circle cx="1062" cy="220" r="1.7" fill="#fff3d0" opacity="0.33"/><circle cx="1468" cy="619" r="1.1" fill="#fff3d0" opacity="0.22"/><circle cx="551" cy="124" r="0.6" fill="#fff3d0" opacity="0.58"/><circle cx="1568" cy="541" r="1.0" fill="#fff3d0" opacity="0.26"/><circle cx="1878" cy="467" r="1.2" fill="#fff3d0" opacity="0.18"/><circle cx="250" cy="566" r="1.1" fill="#fff3d0" opacity="0.52"/><circle cx="613" cy="517" r="1.1" fill="#fff3d0" opacity="0.35"/><circle cx="1061" cy="381" r="1.4" fill="#fff3d0" opacity="0.37"/><circle cx="842" cy="41" r="1.8" fill="#fff3d0" opacity="0.16"/><circle cx="1358" cy="465" r="1.5" fill="#fff3d0" opacity="0.54"/><circle cx="1526" cy="577" r="2.0" fill="#fff3d0" opacity="0.29"/><circle cx="1705" cy="543" r="1.8" fill="#fff3d0" opacity="0.64"/><circle cx="1216" cy="140" r="1.0" fill="#fff3d0" opacity="0.51"/><circle cx="330" cy="196" r="1.4" fill="#fff3d0" opacity="0.24"/><circle cx="1748" cy="420" r="0.5" fill="#fff3d0" opacity="0.23"/><circle cx="773" cy="78" r="1.7" fill="#fff3d0" opacity="0.62"/><circle cx="1754" cy="445" r="1.1" fill="#fff3d0" opacity="0.54"/><circle cx="1840" cy="604" r="2.2" fill="#fff3d0" opacity="0.44"/><circle cx="1506" cy="142" r="1.6" fill="#fff3d0" opacity="0.31"/><circle cx="1018" cy="649" r="1.4" fill="#fff3d0" opacity="0.23"/><circle cx="1683" cy="189" r="0.6" fill="#fff3d0" opacity="0.35"/><circle cx="1091" cy="218" r="1.4" fill="#fff3d0" opacity="0.53"/><circle cx="1893" cy="240" r="0.5" fill="#fff3d0" opacity="0.55"/><circle cx="1159" cy="343" r="1.3" fill="#fff3d0" opacity="0.55"/><circle cx="1659" cy="492" r="1.9" fill="#fff3d0" opacity="0.46"/><circle cx="242" cy="599" r="2.0" fill="#fff3d0" opacity="0.37"/><circle cx="188" cy="553" r="0.7" fill="#fff3d0" opacity="0.52"/><circle cx="229" cy="460" r="0.6" fill="#fff3d0" opacity="0.44"/><circle cx="1804" cy="261" r="1.7" fill="#fff3d0" opacity="0.20"/><circle cx="881" cy="46" r="0.7" fill="#fff3d0" opacity="0.56"/><circle cx="1553" cy="49" r="0.8" fill="#fff3d0" opacity="0.37"/><circle cx="786" cy="413" r="1.2" fill="#fff3d0" opacity="0.47"/><circle cx="308" cy="24" r="2.2" fill="#fff3d0" opacity="0.42"/><circle cx="708" cy="213" r="1.8" fill="#fff3d0" opacity="0.38"/><circle cx="466" cy="257" r="1.3" fill="#fff3d0" opacity="0.15"/><circle cx="1868" cy="558" r="0.7" fill="#fff3d0" opacity="0.38"/><circle cx="808" cy="159" r="0.8" fill="#fff3d0" opacity="0.46"/><circle cx="392" cy="466" r="2.0" fill="#fff3d0" opacity="0.64"/><circle cx="1081" cy="60" r="1.4" fill="#fff3d0" opacity="0.50"/><circle cx="950" cy="621" r="0.6" fill="#fff3d0" opacity="0.55"/><circle cx="596" cy="507" r="0.5" fill="#fff3d0" opacity="0.43"/><circle cx="1882" cy="572" r="1.2" fill="#fff3d0" opacity="0.30"/><circle cx="1372" cy="332" r="1.9" fill="#fff3d0" opacity="0.24"/><circle cx="1852" cy="80" r="1.8" fill="#fff3d0" opacity="0.64"/><circle cx="1636" cy="368" r="2.1" fill="#fff3d0" opacity="0.33"/><circle cx="354" cy="317" r="0.5" fill="#fff3d0" opacity="0.35"/><circle cx="710" cy="292" r="0.6" fill="#fff3d0" opacity="0.28"/><circle cx="737" cy="58" r="1.3" fill="#fff3d0" opacity="0.52"/><circle cx="981" cy="132" r="0.6" fill="#fff3d0" opacity="0.60"/><circle cx="929" cy="298" r="0.4" fill="#fff3d0" opacity="0.61"/><circle cx="1872" cy="527" r="0.6" fill="#fff3d0" opacity="0.16"/><circle cx="740" cy="468" r="0.8" fill="#fff3d0" opacity="0.18"/><circle cx="550" cy="649" r="1.0" fill="#fff3d0" opacity="0.30"/><circle cx="648" cy="217" r="0.6" fill="#fff3d0" opacity="0.50"/><circle cx="514" cy="383" r="1.8" fill="#fff3d0" opacity="0.32"/><circle cx="30" cy="168" r="0.7" fill="#fff3d0" opacity="0.26"/><circle cx="609" cy="128" r="0.8" fill="#fff3d0" opacity="0.54"/><circle cx="1429" cy="412" r="1.0" fill="#fff3d0" opacity="0.17"/><circle cx="1175" cy="280" r="1.2" fill="#fff3d0" opacity="0.57"/><circle cx="50" cy="497" r="2.1" fill="#fff3d0" opacity="0.21"/><circle cx="1417" cy="665" r="1.5" fill="#fff3d0" opacity="0.45"/><circle cx="643" cy="649" r="1.8" fill="#fff3d0" opacity="0.37"/><circle cx="1436" cy="430" r="1.7" fill="#fff3d0" opacity="0.47"/><circle cx="399" cy="475" r="1.0" fill="#fff3d0" opacity="0.47"/><circle cx="1818" cy="334" r="1.3" fill="#fff3d0" opacity="0.50"/><circle cx="1459" cy="10" r="1.0" fill="#fff3d0" opacity="0.63"/><circle cx="837" cy="310" r="1.2" fill="#fff3d0" opacity="0.46"/><circle cx="1052" cy="162" r="1.2" fill="#fff3d0" opacity="0.46"/><circle cx="1844" cy="531" r="1.0" fill="#fff3d0" opacity="0.32"/><circle cx="207" cy="52" r="0.4" fill="#fff3d0" opacity="0.26"/><circle cx="387" cy="48" r="1.4" fill="#fff3d0" opacity="0.44"/><circle cx="1081" cy="126" r="0.7" fill="#fff3d0" opacity="0.44"/><circle cx="1059" cy="324" r="1.1" fill="#fff3d0" opacity="0.31"/><circle cx="833" cy="369" r="1.3" fill="#fff3d0" opacity="0.29"/><circle cx="702" cy="567" r="1.2" fill="#fff3d0" opacity="0.41"/><circle cx="288" cy="515" r="1.0" fill="#fff3d0" opacity="0.59"/><circle cx="1909" cy="385" r="0.8" fill="#fff3d0" opacity="0.24"/><circle cx="1161" cy="636" r="1.5" fill="#fff3d0" opacity="0.53"/><circle cx="735" cy="480" r="1.1" fill="#fff3d0" opacity="0.37"/><circle cx="1897" cy="214" r="0.9" fill="#fff3d0" opacity="0.19"/><circle cx="477" cy="262" r="0.9" fill="#fff3d0" opacity="0.21"/><circle cx="105" cy="367" r="1.8" fill="#fff3d0" opacity="0.46"/><circle cx="1714" cy="258" r="0.5" fill="#fff3d0" opacity="0.59"/><circle cx="604" cy="280" r="1.4" fill="#fff3d0" opacity="0.37"/><circle cx="1774" cy="587" r="0.7" fill="#fff3d0" opacity="0.42"/><circle cx="1012" cy="303" r="1.5" fill="#fff3d0" opacity="0.16"/><circle cx="1710" cy="136" r="1.7" fill="#fff3d0" opacity="0.35"/><circle cx="1095" cy="322" r="0.6" fill="#fff3d0" opacity="0.65"/><circle cx="1080" cy="124" r="0.7" fill="#fff3d0" opacity="0.46"/><circle cx="1418" cy="144" r="1.3" fill="#fff3d0" opacity="0.30"/><circle cx="1570" cy="669" r="0.8" fill="#fff3d0" opacity="0.30"/><circle cx="147" cy="270" r="1.3" fill="#fff3d0" opacity="0.28"/><circle cx="272" cy="132" r="1.3" fill="#fff3d0" opacity="0.38"/><circle cx="465" cy="567" r="1.5" fill="#fff3d0" opacity="0.27"/><circle cx="185" cy="340" r="1.6" fill="#fff3d0" opacity="0.64"/><circle cx="1651" cy="637" r="1.9" fill="#fff3d0" opacity="0.61"/><circle cx="1672" cy="232" r="2.1" fill="#fff3d0" opacity="0.55"/><circle cx="1618" cy="369" r="0.5" fill="#fff3d0" opacity="0.50"/><circle cx="525" cy="42" r="1.4" fill="#fff3d0" opacity="0.37"/><circle cx="1285" cy="659" r="0.7" fill="#fff3d0" opacity="0.53"/><circle cx="1628" cy="451" r="1.0" fill="#fff3d0" opacity="0.26"/><circle cx="486" cy="655" r="1.2" fill="#fff3d0" opacity="0.49"/><circle cx="1193" cy="494" r="1.2" fill="#fff3d0" opacity="0.27"/><circle cx="310" cy="135" r="0.8" fill="#fff3d0" opacity="0.19"/><circle cx="139" cy="396" r="0.8" fill="#fff3d0" opacity="0.39"/><circle cx="1763" cy="569" r="1.6" fill="#fff3d0" opacity="0.38"/><circle cx="748" cy="36" r="0.8" fill="#fff3d0" opacity="0.20"/><circle cx="705" cy="41" r="1.4" fill="#fff3d0" opacity="0.60"/><circle cx="135" cy="58" r="1.5" fill="#fff3d0" opacity="0.52"/><circle cx="907" cy="67" r="2.0" fill="#fff3d0" opacity="0.48"/><circle cx="365" cy="18" r="1.9" fill="#fff3d0" opacity="0.49"/><circle cx="1194" cy="695" r="1.2" fill="#fff3d0" opacity="0.16"/><circle cx="92" cy="160" r="1.9" fill="#fff3d0" opacity="0.41"/><circle cx="377" cy="584" r="0.5" fill="#fff3d0" opacity="0.28"/><circle cx="471" cy="319" r="0.8" fill="#fff3d0" opacity="0.23"/><circle cx="1230" cy="294" r="1.1" fill="#fff3d0" opacity="0.28"/><circle cx="1111" cy="646" r="0.6" fill="#fff3d0" opacity="0.33"/><circle cx="1540" cy="110" r="1.7" fill="#fff3d0" opacity="0.58"/><circle cx="55" cy="615" r="0.6" fill="#fff3d0" opacity="0.28"/><circle cx="1576" cy="124" r="1.1" fill="#fff3d0" opacity="0.57"/><circle cx="1778" cy="668" r="2.1" fill="#fff3d0" opacity="0.55"/><circle cx="167" cy="353" r="0.4" fill="#fff3d0" opacity="0.56"/><circle cx="603" cy="334" r="1.6" fill="#fff3d0" opacity="0.24"/><circle cx="16" cy="560" r="1.5" fill="#fff3d0" opacity="0.30"/><circle cx="1746" cy="578" r="1.6" fill="#fff3d0" opacity="0.24"/><circle cx="143" cy="510" r="0.5" fill="#fff3d0" opacity="0.24"/><circle cx="516" cy="413" r="1.7" fill="#fff3d0" opacity="0.36"/><circle cx="1381" cy="219" r="2.1" fill="#fff3d0" opacity="0.31"/><circle cx="1103" cy="671" r="1.4" fill="#fff3d0" opacity="0.36"/><circle cx="1852" cy="190" r="0.6" fill="#fff3d0" opacity="0.64"/><circle cx="977" cy="275" r="2.1" fill="#fff3d0" opacity="0.21"/><circle cx="389" cy="514" r="0.8" fill="#fff3d0" opacity="0.27"/><circle cx="716" cy="348" r="2.1" fill="#fff3d0" opacity="0.45"/><circle cx="1900" cy="357" r="1.8" fill="#fff3d0" opacity="0.54"/><circle cx="1746" cy="347" r="2.0" fill="#fff3d0" opacity="0.16"/>
<circle cx="1560" cy="190" r="210" fill="url(#moon)"/>
<polygon points="0,760 240,560 430,720 640,580 830,760 1100,600 1370,760 1590,590 1820,720 1920,640 1920,800 0,800" fill="url(#mountG)"/>
<ellipse cx="960" cy="520" rx="900" ry="520" fill="url(#rays)"/>
<rect x="0" y="790" width="1920" height="290" fill="url(#floorG)"/>
<g opacity="0.35">
  <line x1="960" y1="800" x2="200" y2="1080" stroke="#6e6382" stroke-width="2"/>
  <line x1="960" y1="800" x2="600" y2="1080" stroke="#6e6382" stroke-width="2"/>
  <line x1="960" y1="800" x2="1320" y2="1080" stroke="#6e6382" stroke-width="2"/>
  <line x1="960" y1="800" x2="1720" y2="1080" stroke="#6e6382" stroke-width="2"/>
  <line x1="0" y1="850" x2="1920" y2="850" stroke="#6e6382" stroke-width="2"/>
  <line x1="0" y1="930" x2="1920" y2="930" stroke="#6e6382" stroke-width="2"/>
</g>

  <rect x="120" y="240" width="130" height="640" fill="url(#colG)"/>
  <rect x="136.57142857142858" y="240" width="4" height="640" fill="#3a3148" opacity="0.5"/><rect x="155.14285714285714" y="240" width="4" height="640" fill="#3a3148" opacity="0.5"/><rect x="173.71428571428572" y="240" width="4" height="640" fill="#3a3148" opacity="0.5"/><rect x="192.28571428571428" y="240" width="4" height="640" fill="#3a3148" opacity="0.5"/><rect x="210.85714285714286" y="240" width="4" height="640" fill="#3a3148" opacity="0.5"/><rect x="229.42857142857144" y="240" width="4" height="640" fill="#3a3148" opacity="0.5"/>
  <rect x="98" y="206" width="174" height="38" rx="8" fill="url(#capG)" stroke="#3a3148" stroke-width="3"/>
  <rect x="106" y="244" width="158" height="14" rx="6" fill="#8d8298"/>
  <rect x="94" y="876" width="182" height="44" rx="9" fill="url(#capG)" stroke="#3a3148" stroke-width="3"/>
  <ellipse cx="215" cy="560" rx="26" ry="300" fill="#ffffff" opacity="0.08"/>

  <rect x="1670" y="240" width="130" height="640" fill="url(#colG)"/>
  <rect x="1686.5714285714287" y="240" width="4" height="640" fill="#3a3148" opacity="0.5"/><rect x="1705.142857142857" y="240" width="4" height="640" fill="#3a3148" opacity="0.5"/><rect x="1723.7142857142858" y="240" width="4" height="640" fill="#3a3148" opacity="0.5"/><rect x="1742.2857142857142" y="240" width="4" height="640" fill="#3a3148" opacity="0.5"/><rect x="1760.857142857143" y="240" width="4" height="640" fill="#3a3148" opacity="0.5"/><rect x="1779.4285714285713" y="240" width="4" height="640" fill="#3a3148" opacity="0.5"/>
  <rect x="1648" y="206" width="174" height="38" rx="8" fill="url(#capG)" stroke="#3a3148" stroke-width="3"/>
  <rect x="1656" y="244" width="158" height="14" rx="6" fill="#8d8298"/>
  <rect x="1644" y="876" width="182" height="44" rx="9" fill="url(#capG)" stroke="#3a3148" stroke-width="3"/>
  <ellipse cx="1705" cy="560" rx="26" ry="300" fill="#ffffff" opacity="0.08"/>
<ellipse cx="185" cy="990" rx="200" ry="40" fill="#000000" opacity="0.4"/>
<ellipse cx="1735" cy="990" rx="200" ry="40" fill="#000000" opacity="0.4"/>
<rect width="1920" height="1080" fill="url(#rays)" opacity="0.25"/></svg>