<svg xmlns="http://www.w3.org/2000/svg" width="512" height="512" viewBox="0 0 512 512"><defs><linearGradient id="gold" x1="0" y1="0" x2="0" y2="1"><stop offset="0" stop-color="#fff6cf"/><stop offset="0.28" stop-color="#ffd86b"/><stop offset="0.52" stop-color="#fff3b0"/><stop offset="0.75" stop-color="#c89627"/><stop offset="1" stop-color="#7a5a10"/></linearGradient><linearGradient id="goldEdge" x1="0" y1="0" x2="0" y2="1"><stop offset="0" stop-color="#fffbe2"/><stop offset="1" stop-color="#9c7a1a"/></linearGradient><radialGradient id="panel" cx="0.5" cy="0.38" r="0.85"><stop offset="0" stop-color="#9d9274"/><stop offset="0.55" stop-color="#56430f"/><stop offset="1" stop-color="#271e07"/></radialGradient><radialGradient id="vig" cx="0.5" cy="0.5" r="0.72"><stop offset="0.55" stop-color="#000000" stop-opacity="0"/><stop offset="1" stop-color="#000000" stop-opacity="0.55"/></radialGradient><filter id="tileShadow" x="-40%" y="-40%" width="180%" height="180%"><feDropShadow dx="0" dy="12" stdDeviation="14" flood-color="#000000" flood-opacity="0.55"/></filter><linearGradient id="crFace" x1="0" y1="0" x2="0" y2="1"><stop offset="0" stop-color="#fff6cf"/><stop offset="0.35" stop-color="#ffd86b"/><stop offset="0.75" stop-color="#c89627"/><stop offset="1" stop-color="#8a6512"/></linearGradient><radialGradient id="sap" cx="0.4" cy="0.35" r="0.8"><stop offset="0" stop-color="#9fd8ff"/><stop offset="0.5" stop-color="#1f6fd0"/><stop offset="1" stop-color="#0a2e66"/></radialGradient></defs>
<g filter="url(#tileShadow)">
  <rect x="20" y="18" width="472" height="472" rx="58" fill="url(#gold)" stroke="#5a430e" stroke-width="4"/>
  <rect x="36" y="34" width="440" height="440" rx="46" fill="none" stroke="url(#goldEdge)" stroke-width="3" opacity="0.8"/>
  <rect x="54" y="52" width="404" height="404" rx="34" fill="url(#panel)"/>
  <rect x="54" y="52" width="404" height="404" rx="34" fill="url(#vig)"/>
  <rect x="54" y="52" width="404" height="404" rx="34" fill="none" stroke="#2b2010" stroke-width="3" opacity="0.7"/>
  <g transform="translate(4.50,10)"><path d="M150,318 L150,206 L208,262 L256,160 L304,262 L362,206 L362,318 Z" fill="#6b4e0a"/><rect x="142" y="318" width="228" height="46" rx="14" fill="#6b4e0a"/></g><g transform="translate(4.05,9)"><path d="M150,318 L150,206 L208,262 L256,160 L304,262 L362,206 L362,318 Z" fill="#6b4e0a"/><rect x="142" y="318" width="228" height="46" rx="14" fill="#6b4e0a"/></g><g transform="translate(3.60,8)"><path d="M150,318 L150,206 L208,262 L256,160 L304,262 L362,206 L362,318 Z" fill="#6b4e0a"/><rect x="142" y="318" width="228" height="46" rx="14" fill="#6b4e0a"/></g><g transform="translate(3.15,7)"><path d="M150,318 L150,206 L208,262 L256,160 L304,262 L362,206 L362,318 Z" fill="#6b4e0a"/><rect x="142" y="318" width="228" height="46" rx="14" fill="#6b4e0a"/></g><g transform="translate(2.70,6)"><path d="M150,318 L150,206 L208,262 L256,160 L304,262 L362,206 L362,318 Z" fill="#6b4e0a"/><rect x="142" y="318" width="228" height="46" rx="14" fill="#6b4e0a"/></g><g transform="translate(2.25,5)"><path d="M150,318 L150,206 L208,262 L256,160 L304,262 L362,206 L362,318 Z" fill="#6b4e0a"/><rect x="142" y="318" width="228" height="46" rx="14" fill="#6b4e0a"/></g><g transform="translate(1.80,4)"><path d="M150,318 L150,206 L208,262 L256,160 L304,262 L362,206 L362,318 Z" fill="#6b4e0a"/><rect x="142" y="318" width="228" height="46" rx="14" fill="#6b4e0a"/></g><g transform="translate(1.35,3)"><path d="M150,318 L150,206 L208,262 L256,160 L304,262 L362,206 L362,318 Z" fill="#6b4e0a"/><rect x="142" y="318" width="228" height="46" rx="14" fill="#6b4e0a"/></g><g transform="translate(0.90,2)"><path d="M150,318 L150,206 L208,262 L256,160 L304,262 L362,206 L362,318 Z" fill="#6b4e0a"/><rect x="142" y="318" width="228" height="46" rx="14" fill="#6b4e0a"/></g><g transform="translate(0.45,1)"><path d="M150,318 L150,206 L208,262 L256,160 L304,262 L362,206 L362,318 Z" fill="#6b4e0a"/><rect x="142" y="318" width="228" height="46" rx="14" fill="#6b4e0a"/></g><path d="M150,318 L150,206 L208,262 L256,160 L304,262 L362,206 L362,318 Z" fill="url(#crFace)"/><rect x="142" y="318" width="228" height="46" rx="14" fill="url(#crFace)"/><path d="M150,318 L362,318" stroke="#8a6512" stroke-width="4" opacity="0.7"/><circle cx="256" cy="150" r="15" fill="url(#crFace)" stroke="#8a6512" stroke-width="3"/><circle cx="150" cy="198" r="12" fill="url(#crFace)" stroke="#8a6512" stroke-width="3"/><circle cx="362" cy="198" r="12" fill="url(#crFace)" stroke="#8a6512" stroke-width="3"/><circle cx="256" cy="340" r="17" fill="url(#sap)" stroke="#6b4e0a" stroke-width="3"/><circle cx="250.9" cy="334.05" r="3.74" fill="#ffffff" opacity="0.85"/><circle cx="190" cy="340" r="12" fill="url(#sap)" stroke="#6b4e0a" stroke-width="3"/><circle cx="186.4" cy="335.8" r="2.64" fill="#ffffff" opacity="0.85"/><circle cx="322" cy="340" r="12" fill="url(#sap)" stroke="#6b4e0a" stroke-width="3"/><circle cx="318.4" cy="335.8" r="2.64" fill="#ffffff" opacity="0.85"/><circle cx="256" cy="264" r="14" fill="url(#sap)" stroke="#6b4e0a" stroke-width="3"/><circle cx="251.8" cy="259.1" r="3.08" fill="#ffffff" opacity="0.85"/><path d="M256 120 Q259.08 138.92 278 142 Q259.08 145.08 256 164 Q252.92 145.08 234 142 Q252.92 138.92 256 120Z" fill="#ffffff" opacity="0.95"/><path d="M354 182 Q355.96 194.04 368 196 Q355.96 197.96 354 210 Q352.04 197.96 340 196 Q352.04 194.04 354 182Z" fill="#ffffff" opacity="0.8"/>
  <path d="M70,138 Q256,52 442,138 L442,90 Q442,68 420,68 L92,68 Q70,68 70,90 Z" fill="#ffffff" opacity="0.07"/>
  <circle cx="40" cy="38" r="17" fill="url(#gold)" stroke="#5a430e" stroke-width="2.5"/><circle cx="40" cy="38" r="8" fill="#fff3b0" stroke="#c89627" stroke-width="2"/><circle cx="472" cy="38" r="17" fill="url(#gold)" stroke="#5a430e" stroke-width="2.5"/><circle cx="472" cy="38" r="8" fill="#fff3b0" stroke="#c89627" stroke-width="2"/><circle cx="40" cy="470" r="17" fill="url(#gold)" stroke="#5a430e" stroke-width="2.5"/><circle cx="40" cy="470" r="8" fill="#fff3b0" stroke="#c89627" stroke-width="2"/><circle cx="472" cy="470" r="17" fill="url(#gold)" stroke="#5a430e" stroke-width="2.5"/><circle cx="472" cy="470" r="8" fill="#fff3b0" stroke="#c89627" stroke-width="2"/>
</g></svg>