<svg xmlns="http://www.w3.org/2000/svg" width="512" height="512" viewBox="0 0 512 512"><defs><linearGradient id="gold" x1="0" y1="0" x2="0" y2="1"><stop offset="0" stop-color="#fff6cf"/><stop offset="0.28" stop-color="#ffd86b"/><stop offset="0.52" stop-color="#fff3b0"/><stop offset="0.75" stop-color="#c89627"/><stop offset="1" stop-color="#7a5a10"/></linearGradient><linearGradient id="goldEdge" x1="0" y1="0" x2="0" y2="1"><stop offset="0" stop-color="#fffbe2"/><stop offset="1" stop-color="#9c7a1a"/></linearGradient><radialGradient id="panel" cx="0.5" cy="0.38" r="0.85"><stop offset="0" stop-color="#77a496"/><stop offset="0.55" stop-color="#14624a"/><stop offset="1" stop-color="#092c21"/></radialGradient><radialGradient id="vig" cx="0.5" cy="0.5" r="0.72"><stop offset="0.55" stop-color="#000000" stop-opacity="0"/><stop offset="1" stop-color="#000000" stop-opacity="0.55"/></radialGradient><filter id="tileShadow" x="-40%" y="-40%" width="180%" height="180%"><feDropShadow dx="0" dy="12" stdDeviation="14" flood-color="#000000" flood-opacity="0.55"/></filter><linearGradient id="emFace" x1="0" y1="0" x2="0" y2="1"><stop offset="0" stop-color="#9fffce"/><stop offset="0.5" stop-color="#0fae6b"/><stop offset="1" stop-color="#03522f"/></linearGradient><linearGradient id="ruFace" x1="0" y1="0" x2="0" y2="1"><stop offset="0" stop-color="#ff9aa2"/><stop offset="0.5" stop-color="#e0233a"/><stop offset="1" stop-color="#6e0a16"/></linearGradient><linearGradient id="amFace" x1="0" y1="0" x2="0" y2="1"><stop offset="0" stop-color="#e3b3ff"/><stop offset="0.5" stop-color="#9032c8"/><stop offset="1" stop-color="#43106a"/></linearGradient><filter id="gemDrop" x="-40%" y="-40%" width="180%" height="180%"><feDropShadow dx="0" dy="8" stdDeviation="8" flood-color="#000000" flood-opacity="0.5"/></filter></defs>
<g filter="url(#tileShadow)">
  <rect x="20" y="18" width="472" height="472" rx="58" fill="url(#gold)" stroke="#5a430e" stroke-width="4"/>
  <rect x="36" y="34" width="440" height="440" rx="46" fill="none" stroke="url(#goldEdge)" stroke-width="3" opacity="0.8"/>
  <rect x="54" y="52" width="404" height="404" rx="34" fill="url(#panel)"/>
  <rect x="54" y="52" width="404" height="404" rx="34" fill="url(#vig)"/>
  <rect x="54" y="52" width="404" height="404" rx="34" fill="none" stroke="#2b2010" stroke-width="3" opacity="0.7"/>
  <polygon points="267.9,249.2 200.4,311.7 112.5,284.5 92.1,194.8 159.6,132.3 247.5,159.5" fill="url(#emFace)" filter="url(#gemDrop)"/><polygon points="267.9,249.2 200.4,311.7 223.9,235.6" fill="#ffffff" opacity="0.32"/><polygon points="200.4,311.7 112.5,284.5 190.2,266.9" fill="#ffffff" opacity="0.06"/><polygon points="112.5,284.5 92.1,194.8 146.3,253.3" fill="#ffffff" opacity="0.19"/><polygon points="92.1,194.8 159.6,132.3 136.1,208.4" fill="#ffffff" opacity="0.32"/><polygon points="159.6,132.3 247.5,159.5 169.8,177.1" fill="#ffffff" opacity="0.06"/><polygon points="247.5,159.5 267.9,249.2 213.7,190.7" fill="#ffffff" opacity="0.19"/><polygon points="223.9,235.6 190.2,266.9 146.3,253.3 136.1,208.4 169.8,177.1 213.7,190.7" fill="#ffffff" opacity="0.22"/><polygon points="406.4,224.5 381.6,298.5 305.2,314.0 253.6,255.5 278.4,181.5 354.8,166.0" fill="url(#ruFace)" filter="url(#gemDrop)"/><polygon points="406.4,224.5 381.6,298.5 368.2,232.3" fill="#ffffff" opacity="0.32"/><polygon points="381.6,298.5 305.2,314.0 355.8,269.2" fill="#ffffff" opacity="0.06"/><polygon points="305.2,314.0 253.6,255.5 317.6,277.0" fill="#ffffff" opacity="0.19"/><polygon points="253.6,255.5 278.4,181.5 291.8,247.7" fill="#ffffff" opacity="0.32"/><polygon points="278.4,181.5 354.8,166.0 304.2,210.8" fill="#ffffff" opacity="0.06"/><polygon points="354.8,166.0 406.4,224.5 342.4,203.0" fill="#ffffff" opacity="0.19"/><polygon points="368.2,232.3 355.8,269.2 317.6,277.0 291.8,247.7 304.2,210.8 342.4,203.0" fill="#ffffff" opacity="0.22"/><polygon points="311.7,374.6 250.2,408.0 190.5,371.4 192.3,301.4 253.8,268.0 313.5,304.6" fill="url(#amFace)" filter="url(#gemDrop)"/><polygon points="311.7,374.6 250.2,408.0 281.8,356.3" fill="#ffffff" opacity="0.32"/><polygon points="250.2,408.0 190.5,371.4 251.1,373.0" fill="#ffffff" opacity="0.06"/><polygon points="190.5,371.4 192.3,301.4 221.2,354.7" fill="#ffffff" opacity="0.19"/><polygon points="192.3,301.4 253.8,268.0 222.2,319.7" fill="#ffffff" opacity="0.32"/><polygon points="253.8,268.0 313.5,304.6 252.9,303.0" fill="#ffffff" opacity="0.06"/><polygon points="313.5,304.6 311.7,374.6 282.8,321.3" fill="#ffffff" opacity="0.19"/><polygon points="281.8,356.3 251.1,373.0 221.2,354.7 222.2,319.7 252.9,303.0 282.8,321.3" fill="#ffffff" opacity="0.22"/><path d="M166 164 Q169.08 182.92 188 186 Q169.08 189.08 166 208 Q162.92 189.08 144 186 Q162.92 182.92 166 164Z" fill="#ffffff" opacity="0.95"/><path d="M330 189 Q332.38 203.62 347 206 Q332.38 208.38 330 223 Q327.62 208.38 313 206 Q327.62 203.62 330 189Z" fill="#ffffff" opacity="0.85"/><path d="M244 299 Q245.82 310.18 257 312 Q245.82 313.82 244 325 Q242.18 313.82 231 312 Q242.18 310.18 244 299Z" fill="#ffffff" opacity="0.8"/>
  <path d="M70,138 Q256,52 442,138 L442,90 Q442,68 420,68 L92,68 Q70,68 70,90 Z" fill="#ffffff" opacity="0.07"/>
  <circle cx="40" cy="38" r="17" fill="url(#gold)" stroke="#5a430e" stroke-width="2.5"/><circle cx="40" cy="38" r="8" fill="#fff3b0" stroke="#c89627" stroke-width="2"/><circle cx="472" cy="38" r="17" fill="url(#gold)" stroke="#5a430e" stroke-width="2.5"/><circle cx="472" cy="38" r="8" fill="#fff3b0" stroke="#c89627" stroke-width="2"/><circle cx="40" cy="470" r="17" fill="url(#gold)" stroke="#5a430e" stroke-width="2.5"/><circle cx="40" cy="470" r="8" fill="#fff3b0" stroke="#c89627" stroke-width="2"/><circle cx="472" cy="470" r="17" fill="url(#gold)" stroke="#5a430e" stroke-width="2.5"/><circle cx="472" cy="470" r="8" fill="#fff3b0" stroke="#c89627" stroke-width="2"/>
</g></svg>