<svg xmlns="http://www.w3.org/2000/svg" width="512" height="512" viewBox="0 0 512 512"><defs><radialGradient id="jbtab" cx="0.42" cy="0.36" r="0.8"><stop offset="0" stop-color="#96bbed"/><stop offset="0.6" stop-color="#327add"/><stop offset="1" stop-color="#1668d8"/></radialGradient><filter id="jbglow" x="-60%" y="-60%" width="220%" height="220%"><feDropShadow dx="0" dy="0" stdDeviation="16" flood-color="#90caf9" flood-opacity="0.75"/></filter><filter id="jbdrop" x="-40%" y="-40%" width="180%" height="180%"><feDropShadow dx="0" dy="14" stdDeviation="12" flood-color="#000000" flood-opacity="0.55"/></filter></defs><g filter="url(#jbdrop)"><g filter="url(#jbglow)"><polygon points="412.5,309.8 370.6,403.1 297.9,456.9 214.1,456.9 141.4,403.1 99.5,309.8 99.5,202.2 141.4,108.9 214.1,55.1 297.9,55.1 370.6,108.9 412.5,202.2" fill="#0e448c"/></g><polygon points="412.5,309.8 370.6,403.1 334.2,282.9" fill="#0c356d"/><polygon points="370.6,403.1 313.3,329.5 334.2,282.9" fill="#39639d"/><polygon points="370.6,403.1 297.9,456.9 313.3,329.5" fill="#103970"/><polygon points="297.9,456.9 277.0,356.5 313.3,329.5" fill="#3b66a1"/><polygon points="297.9,456.9 214.1,456.9 277.0,356.5" fill="#21497f"/><polygon points="214.1,456.9 235.0,356.5 277.0,356.5" fill="#4673b1"/><polygon points="214.1,456.9 141.4,403.1 235.0,356.5" fill="#3d6396"/><polygon points="141.4,403.1 198.7,329.5 235.0,356.5" fill="#5788cb"/><polygon points="141.4,403.1 99.5,309.8 198.7,329.5" fill="#6387b7"/><polygon points="99.5,309.8 177.8,282.9 198.7,329.5" fill="#6195dc"/><polygon points="99.5,309.8 99.5,202.2 177.8,282.9" fill="#8fb0dc"/><polygon points="99.5,202.2 177.8,229.1 177.8,282.9" fill="#4674b2"/><polygon points="99.5,202.2 141.4,108.9 177.8,229.1" fill="#a5c5ef"/><polygon points="141.4,108.9 198.7,182.5 177.8,229.1" fill="#39639d"/><polygon points="141.4,108.9 214.1,55.1 198.7,182.5" fill="#a1c1ec"/><polygon points="214.1,55.1 235.0,155.5 198.7,182.5" fill="#3b66a1"/><polygon points="214.1,55.1 297.9,55.1 235.0,155.5" fill="#90b1dd"/><polygon points="297.9,55.1 277.0,155.5 235.0,155.5" fill="#4673b1"/><polygon points="297.9,55.1 370.6,108.9 277.0,155.5" fill="#7497c6"/><polygon points="370.6,108.9 313.3,182.5 277.0,155.5" fill="#5788cb"/><polygon points="370.6,108.9 412.5,202.2 313.3,182.5" fill="#4e73a5"/><polygon points="412.5,202.2 334.2,229.1 313.3,182.5" fill="#6195dc"/><polygon points="412.5,202.2 412.5,309.8 334.2,229.1" fill="#224a80"/><polygon points="412.5,309.8 334.2,282.9 334.2,229.1" fill="#4674b2"/><polygon points="334.2,282.9 313.3,329.5 277.0,356.5 235.0,356.5 198.7,329.5 177.8,282.9 177.8,229.1 198.7,182.5 235.0,155.5 277.0,155.5 313.3,182.5 334.2,229.1" fill="url(#jbtab)"/><polygon points="412.5,309.8 370.6,403.1 297.9,456.9 214.1,456.9 141.4,403.1 99.5,309.8 99.5,202.2 141.4,108.9 214.1,55.1 297.9,55.1 370.6,108.9 412.5,202.2" fill="none" stroke="#0a2f61" stroke-width="4" stroke-linejoin="round"/><polygon points="334.2,282.9 313.3,329.5 277.0,356.5 235.0,356.5 198.7,329.5 177.8,282.9 177.8,229.1 198.7,182.5 235.0,155.5 277.0,155.5 313.3,182.5 334.2,229.1" fill="none" stroke="#b9d2f3" stroke-width="2" opacity="0.6"/><path d="M334.23999192941454 258.9171806906621 Q337.59999192941456 279.5571806906621 358.23999192941454 282.9171806906621 Q337.59999192941456 286.27718069066214 334.23999192941454 306.9171806906621 Q330.87999192941453 286.27718069066214 310.23999192941454 282.9171806906621 Q330.87999192941453 279.5571806906621 334.23999192941454 258.9171806906621Z" fill="#ffffff" opacity="0.95"/><path d="M141.44870144777929 94.92178951319812 Q143.4087014477793 106.96178951319813 155.44870144777929 108.92178951319812 Q143.4087014477793 110.88178951319811 141.44870144777929 122.92178951319812 Q139.48870144777928 110.88178951319811 127.44870144777929 108.92178951319812 Q139.48870144777928 106.96178951319813 141.44870144777929 94.92178951319812Z" fill="#ffffff" opacity="0.8"/></g></svg>