<svg xmlns="http://www.w3.org/2000/svg" width="512" height="512" viewBox="0 0 512 512"><defs><radialGradient id="jgtab" cx="0.42" cy="0.36" r="0.8"><stop offset="0" stop-color="#95d4b7"/><stop offset="0.6" stop-color="#2fab71"/><stop offset="1" stop-color="#13a05e"/></radialGradient><filter id="jgglow" x="-60%" y="-60%" width="220%" height="220%"><feDropShadow dx="0" dy="0" stdDeviation="16" flood-color="#a5d6a7" flood-opacity="0.75"/></filter><filter id="jgdrop" x="-40%" y="-40%" width="180%" height="180%"><feDropShadow dx="0" dy="14" stdDeviation="12" flood-color="#000000" flood-opacity="0.55"/></filter></defs><g filter="url(#jgdrop)"><g filter="url(#jgglow)"><polygon points="158.0,60.0 354.0,60.0 406.0,112.0 406.0,400.0 354.0,452.0 158.0,452.0 106.0,400.0 106.0,112.0" fill="#0c683d"/></g><polygon points="158.0,60.0 354.0,60.0 207.0,158.0" fill="#8fc7ad"/><polygon points="354.0,60.0 305.0,158.0 207.0,158.0" fill="#44926d"/><polygon points="354.0,60.0 406.0,112.0 305.0,158.0" fill="#64a184"/><polygon points="406.0,112.0 331.0,184.0 305.0,158.0" fill="#5eb68d"/><polygon points="406.0,112.0 406.0,400.0 331.0,184.0" fill="#216545"/><polygon points="406.0,400.0 331.0,328.0 331.0,184.0" fill="#45936e"/><polygon points="406.0,400.0 354.0,452.0 331.0,328.0" fill="#0b5130"/><polygon points="354.0,452.0 305.0,354.0 331.0,328.0" fill="#37805e"/><polygon points="354.0,452.0 158.0,452.0 305.0,354.0" fill="#206444"/><polygon points="158.0,452.0 207.0,354.0 305.0,354.0" fill="#44926d"/><polygon points="158.0,452.0 106.0,400.0 207.0,354.0" fill="#4b8a6d"/><polygon points="106.0,400.0 181.0,328.0 207.0,354.0" fill="#5eb68d"/><polygon points="106.0,400.0 106.0,112.0 181.0,328.0" fill="#8ec6ac"/><polygon points="106.0,112.0 181.0,184.0 181.0,328.0" fill="#45936e"/><polygon points="106.0,112.0 158.0,60.0 181.0,184.0" fill="#a4dac1"/><polygon points="158.0,60.0 207.0,158.0 181.0,184.0" fill="#37805e"/><polygon points="207.0,158.0 305.0,158.0 331.0,184.0 331.0,328.0 305.0,354.0 207.0,354.0 181.0,328.0 181.0,184.0" fill="url(#jgtab)"/><polygon points="158.0,60.0 354.0,60.0 406.0,112.0 406.0,400.0 354.0,452.0 158.0,452.0 106.0,400.0 106.0,112.0" fill="none" stroke="#09482a" stroke-width="4" stroke-linejoin="round"/><polygon points="207.0,158.0 305.0,158.0 331.0,184.0 331.0,328.0 305.0,354.0 207.0,354.0 181.0,328.0 181.0,184.0" fill="none" stroke="#b8e3cf" stroke-width="2" opacity="0.6"/><polygon points="175.6,95.3 336.4,95.3 379.0,137.9 379.0,374.1 336.4,416.7 175.6,416.7 133.0,374.1 133.0,137.9" fill="none" stroke="#03522f" stroke-width="3" opacity="0.6"/><polygon points="191.3,126.6 320.7,126.6 355.0,161.0 355.0,351.0 320.7,385.4 191.3,385.4 157.0,351.0 157.0,161.0" fill="none" stroke="#9fffce" stroke-width="2" opacity="0.5"/><path d="M207 134 Q210.36 154.64 231 158 Q210.36 161.36 207 182 Q203.64 161.36 183 158 Q203.64 154.64 207 134Z" fill="#ffffff" opacity="0.95"/><path d="M354 438 Q355.96 450.04 368 452 Q355.96 453.96 354 466 Q352.04 453.96 340 452 Q352.04 450.04 354 438Z" fill="#ffffff" opacity="0.8"/></g></svg>