<svg xmlns="http://www.w3.org/2000/svg" width="512" height="512" viewBox="0 0 512 512"><defs><radialGradient id="jotab" cx="0.42" cy="0.36" r="0.8"><stop offset="0" stop-color="#fbc892"/><stop offset="0.6" stop-color="#f69329"/><stop offset="1" stop-color="#f5840c"/></radialGradient><filter id="joglow" x="-60%" y="-60%" width="220%" height="220%"><feDropShadow dx="0" dy="0" stdDeviation="16" flood-color="#ffcc80" flood-opacity="0.75"/></filter><filter id="jodrop" x="-40%" y="-40%" width="180%" height="180%"><feDropShadow dx="0" dy="14" stdDeviation="12" flood-color="#000000" flood-opacity="0.55"/></filter></defs><g filter="url(#jodrop)"><g filter="url(#joglow)"><polygon points="425.7,354.0 256.0,452.0 86.3,354.0 86.3,158.0 256.0,60.0 425.7,158.0" fill="#9f5608"/></g><polygon points="425.7,354.0 256.0,452.0 337.5,303.0" fill="#7d4409"/><polygon points="256.0,452.0 256.0,350.1 337.5,303.0" fill="#ae7334"/><polygon points="256.0,452.0 86.3,354.0 256.0,350.1" fill="#aa7640"/><polygon points="86.3,354.0 174.5,303.0 256.0,350.1" fill="#e49e55"/><polygon points="86.3,354.0 86.3,158.0 174.5,303.0" fill="#e8bb8c"/><polygon points="86.3,158.0 174.5,209.0 174.5,303.0" fill="#c28341"/><polygon points="86.3,158.0 256.0,60.0 174.5,209.0" fill="#f9cea0"/><polygon points="256.0,60.0 256.0,161.9 174.5,209.0" fill="#ae7334"/><polygon points="256.0,60.0 425.7,158.0 256.0,161.9" fill="#cc9c69"/><polygon points="425.7,158.0 337.5,209.0 256.0,161.9" fill="#e49e55"/><polygon points="425.7,158.0 425.7,354.0 337.5,209.0" fill="#8e571d"/><polygon points="425.7,354.0 337.5,303.0 337.5,209.0" fill="#c28341"/><polygon points="337.5,303.0 256.0,350.1 174.5,303.0 174.5,209.0 256.0,161.9 337.5,209.0" fill="url(#jotab)"/><polygon points="425.7,354.0 256.0,452.0 86.3,354.0 86.3,158.0 256.0,60.0 425.7,158.0" fill="none" stroke="#6e3b05" stroke-width="4" stroke-linejoin="round"/><polygon points="337.5,303.0 256.0,350.1 174.5,303.0 174.5,209.0 256.0,161.9 337.5,209.0" fill="none" stroke="#fcdab6" stroke-width="2" opacity="0.6"/><path d="M337.47566998804 279.04 Q340.83566998804 299.68 361.47566998804 303.04 Q340.83566998804 306.40000000000003 337.47566998804 327.04 Q334.11566998804 306.40000000000003 313.47566998804 303.04 Q334.11566998804 299.68 337.47566998804 279.04Z" fill="#ffffff" opacity="0.95"/><path d="M86.25902085824998 144.00000000000006 Q88.21902085824998 156.04000000000005 100.25902085824998 158.00000000000006 Q88.21902085824998 159.96000000000006 86.25902085824998 172.00000000000006 Q84.29902085824999 159.96000000000006 72.25902085824998 158.00000000000006 Q84.29902085824999 156.04000000000005 86.25902085824998 144.00000000000006Z" fill="#ffffff" opacity="0.8"/></g></svg>