<svg xmlns="http://www.w3.org/2000/svg" width="512" height="512" viewBox="0 0 512 512"><defs><radialGradient id="jptab" cx="0.42" cy="0.36" r="0.8"><stop offset="0" stop-color="#cc9cd9"/><stop offset="0.6" stop-color="#9c3eb4"/><stop offset="1" stop-color="#8e24aa"/></radialGradient><filter id="jpglow" x="-60%" y="-60%" width="220%" height="220%"><feDropShadow dx="0" dy="0" stdDeviation="16" flood-color="#ce93d8" flood-opacity="0.75"/></filter><filter id="jpdrop" x="-40%" y="-40%" width="180%" height="180%"><feDropShadow dx="0" dy="14" stdDeviation="12" flood-color="#000000" flood-opacity="0.55"/></filter></defs><g filter="url(#jpdrop)"><g filter="url(#jpglow)"><polygon points="256.0,58.0 330.0,134.0 368.0,238.0 348.0,330.0 292.0,398.0 256.0,412.0 220.0,398.0 164.0,330.0 144.0,238.0 182.0,134.0" fill="#5c176f"/></g><polygon points="256.0,58.0 330.0,134.0 256.0,157.0" fill="#b388bf"/><polygon points="330.0,134.0 293.0,195.0 256.0,157.0" fill="#9457a4"/><polygon points="330.0,134.0 368.0,238.0 293.0,195.0" fill="#845591"/><polygon points="368.0,238.0 312.0,247.0 293.0,195.0" fill="#ad6abf"/><polygon points="368.0,238.0 348.0,330.0 312.0,247.0" fill="#501c5e"/><polygon points="348.0,330.0 302.0,293.0 312.0,247.0" fill="#7f468e"/><polygon points="348.0,330.0 292.0,398.0 302.0,293.0" fill="#491457"/><polygon points="292.0,398.0 274.0,327.0 302.0,293.0" fill="#784187"/><polygon points="292.0,398.0 256.0,412.0 274.0,327.0" fill="#562263"/><polygon points="256.0,412.0 256.0,334.0 274.0,327.0" fill="#834a93"/><polygon points="256.0,412.0 220.0,398.0 256.0,334.0" fill="#622f6f"/><polygon points="220.0,398.0 238.0,327.0 256.0,334.0" fill="#8e529e"/><polygon points="220.0,398.0 164.0,330.0 238.0,327.0" fill="#7c4b88"/><polygon points="164.0,330.0 210.0,293.0 238.0,327.0" fill="#a664b7"/><polygon points="164.0,330.0 144.0,238.0 210.0,293.0" fill="#b085bc"/><polygon points="144.0,238.0 200.0,247.0 210.0,293.0" fill="#9759a7"/><polygon points="144.0,238.0 182.0,134.0 200.0,247.0" fill="#d3abde"/><polygon points="182.0,134.0 219.0,195.0 200.0,247.0" fill="#774085"/><polygon points="182.0,134.0 256.0,58.0 219.0,195.0" fill="#caa1d5"/><polygon points="256.0,58.0 256.0,157.0 219.0,195.0" fill="#80478f"/><polygon points="256.0,157.0 293.0,195.0 312.0,247.0 302.0,293.0 274.0,327.0 256.0,334.0 238.0,327.0 210.0,293.0 200.0,247.0 219.0,195.0" fill="url(#jptab)"/><polygon points="256.0,58.0 330.0,134.0 368.0,238.0 348.0,330.0 292.0,398.0 256.0,412.0 220.0,398.0 164.0,330.0 144.0,238.0 182.0,134.0" fill="none" stroke="#40104c" stroke-width="4" stroke-linejoin="round"/><polygon points="256.0,157.0 293.0,195.0 312.0,247.0 302.0,293.0 274.0,327.0 256.0,334.0 238.0,327.0 210.0,293.0 200.0,247.0 219.0,195.0" fill="none" stroke="#ddbde6" stroke-width="2" opacity="0.6"/><path d="M256 133 Q259.36 153.64 280 157 Q259.36 160.36 256 181 Q252.64 160.36 232 157 Q252.64 153.64 256 133Z" fill="#ffffff" opacity="0.95"/><path d="M220 384 Q221.96 396.04 234 398 Q221.96 399.96 220 412 Q218.04 399.96 206 398 Q218.04 396.04 220 384Z" fill="#ffffff" opacity="0.8"/></g></svg>