<svg xmlns="http://www.w3.org/2000/svg" width="512" height="512" viewBox="0 0 512 512"><defs><radialGradient id="jrtab" cx="0.42" cy="0.36" r="0.8"><stop offset="0" stop-color="#f19ca6"/><stop offset="0.6" stop-color="#e43d52"/><stop offset="1" stop-color="#e0233a"/></radialGradient><filter id="jrglow" x="-60%" y="-60%" width="220%" height="220%"><feDropShadow dx="0" dy="0" stdDeviation="16" flood-color="#ff8a80" flood-opacity="0.75"/></filter><filter id="jrdrop" x="-40%" y="-40%" width="180%" height="180%"><feDropShadow dx="0" dy="14" stdDeviation="12" flood-color="#000000" flood-opacity="0.55"/></filter></defs><g filter="url(#jrdrop)"><g filter="url(#jrglow)"><polygon points="146.0,68.0 366.0,68.0 444.0,146.0 444.0,366.0 366.0,444.0 146.0,444.0 68.0,366.0 68.0,146.0" fill="#921726"/></g><polygon points="146.0,68.0 366.0,68.0 203.2,165.8" fill="#e0959e"/><polygon points="366.0,68.0 308.8,165.8 203.2,165.8" fill="#b64d5a"/><polygon points="366.0,68.0 444.0,146.0 308.8,165.8" fill="#b25f69"/><polygon points="444.0,146.0 346.2,203.2 308.8,165.8" fill="#eb707f"/><polygon points="444.0,146.0 444.0,366.0 346.2,203.2" fill="#832933"/><polygon points="444.0,366.0 346.2,308.8 346.2,203.2" fill="#b64d5a"/><polygon points="444.0,366.0 366.0,444.0 346.2,308.8" fill="#70121d"/><polygon points="366.0,444.0 308.8,346.2 346.2,308.8" fill="#a03f4b"/><polygon points="366.0,444.0 146.0,444.0 308.8,346.2" fill="#832833"/><polygon points="146.0,444.0 203.2,346.2 308.8,346.2" fill="#b64d5a"/><polygon points="146.0,444.0 68.0,366.0 203.2,346.2" fill="#b15e68"/><polygon points="68.0,366.0 165.8,308.8 203.2,346.2" fill="#eb707f"/><polygon points="68.0,366.0 68.0,146.0 165.8,308.8" fill="#e0949e"/><polygon points="68.0,146.0 165.8,203.2 165.8,308.8" fill="#b64d5a"/><polygon points="68.0,146.0 146.0,68.0 165.8,203.2" fill="#f3abb4"/><polygon points="146.0,68.0 203.2,165.8 165.8,203.2" fill="#a03f4b"/><polygon points="203.2,165.8 308.8,165.8 346.2,203.2 346.2,308.8 308.8,346.2 203.2,346.2 165.8,308.8 165.8,203.2" fill="url(#jrtab)"/><polygon points="146.0,68.0 366.0,68.0 444.0,146.0 444.0,366.0 366.0,444.0 146.0,444.0 68.0,366.0 68.0,146.0" fill="none" stroke="#65101a" stroke-width="4" stroke-linejoin="round"/><polygon points="203.2,165.8 308.8,165.8 346.2,203.2 346.2,308.8 308.8,346.2 203.2,346.2 165.8,308.8 165.8,203.2" fill="none" stroke="#f6bdc4" stroke-width="2" opacity="0.6"/><path d="M203.2 141.76 Q206.56 162.39999999999998 227.2 165.76 Q206.56 169.12 203.2 189.76 Q199.83999999999997 169.12 179.2 165.76 Q199.83999999999997 162.39999999999998 203.2 141.76Z" fill="#ffffff" opacity="0.95"/><path d="M366 430 Q367.96 442.04 380 444 Q367.96 445.96 366 458 Q364.04 445.96 352 444 Q364.04 442.04 366 430Z" fill="#ffffff" opacity="0.8"/></g></svg>