<svg xmlns="http://www.w3.org/2000/svg" width="512" height="512" viewBox="0 0 512 512"><defs><radialGradient id="jstab" cx="0.42" cy="0.36" r="0.8"><stop offset="0" stop-color="#f9e099"/><stop offset="0.6" stop-color="#f4c138"/><stop offset="1" stop-color="#f2b91d"/></radialGradient><filter id="jsglow" x="-60%" y="-60%" width="220%" height="220%"><feDropShadow dx="0" dy="0" stdDeviation="16" flood-color="#fff9c4" flood-opacity="0.75"/></filter><filter id="jsdrop" x="-40%" y="-40%" width="180%" height="180%"><feDropShadow dx="0" dy="14" stdDeviation="12" flood-color="#000000" flood-opacity="0.55"/></filter></defs><g filter="url(#jsdrop)"><g filter="url(#jsglow)"><polygon points="256.0,54.0 317.1,181.9 457.6,200.5 354.9,298.1 380.6,437.5 256.0,370.0 131.4,437.5 157.1,298.1 54.4,200.5 194.9,181.9" fill="#9d7813"/></g><polygon points="256.0,54.0 317.1,181.9 256.0,143.0" fill="#ddc687"/><polygon points="317.1,181.9 291.5,217.2 256.0,143.0" fill="#ccab51"/><polygon points="317.1,181.9 457.6,200.5 291.5,217.2" fill="#a98f48"/><polygon points="457.6,200.5 372.9,228.0 291.5,217.2" fill="#e3c05f"/><polygon points="457.6,200.5 354.9,298.1 372.9,228.0" fill="#92772c"/><polygon points="354.9,298.1 313.4,284.6 372.9,228.0" fill="#c7a74e"/><polygon points="354.9,298.1 380.6,437.5 313.4,284.6" fill="#795d0f"/><polygon points="380.6,437.5 328.3,365.5 313.4,284.6" fill="#aa8c3c"/><polygon points="380.6,437.5 256.0,370.0 328.3,365.5" fill="#7d6114"/><polygon points="256.0,370.0 256.0,326.3 328.3,365.5" fill="#ae903f"/><polygon points="256.0,370.0 131.4,437.5 256.0,326.3" fill="#a28840"/><polygon points="131.4,437.5 183.7,365.5 256.0,326.3" fill="#dbb95b"/><polygon points="131.4,437.5 157.1,298.1 183.7,365.5" fill="#bca35f"/><polygon points="157.1,298.1 198.6,284.6 183.7,365.5" fill="#f4cf6a"/><polygon points="157.1,298.1 54.4,200.5 198.6,284.6" fill="#ecd598"/><polygon points="54.4,200.5 139.1,228.0 198.6,284.6" fill="#bb9c46"/><polygon points="54.4,200.5 194.9,181.9 139.1,228.0" fill="#f8e1a6"/><polygon points="194.9,181.9 220.5,217.2 139.1,228.0" fill="#ac8f3d"/><polygon points="194.9,181.9 256.0,54.0 220.5,217.2" fill="#f0d99d"/><polygon points="256.0,54.0 256.0,143.0 220.5,217.2" fill="#b69743"/><polygon points="256.0,143.0 291.5,217.2 372.9,228.0 313.4,284.6 328.3,365.5 256.0,326.3 183.7,365.5 198.6,284.6 139.1,228.0 220.5,217.2" fill="url(#jstab)"/><polygon points="256.0,54.0 317.1,181.9 457.6,200.5 354.9,298.1 380.6,437.5 256.0,370.0 131.4,437.5 157.1,298.1 54.4,200.5 194.9,181.9" fill="none" stroke="#6d530d" stroke-width="4" stroke-linejoin="round"/><polygon points="256.0,143.0 291.5,217.2 372.9,228.0 313.4,284.6 328.3,365.5 256.0,326.3 183.7,365.5 198.6,284.6 139.1,228.0 220.5,217.2" fill="none" stroke="#fbeabb" stroke-width="2" opacity="0.6"/><polygon points="256.0,144.0 288.9,220.7 372.0,228.3 309.3,283.3 327.7,364.7 256.0,322.0 184.3,364.7 202.7,283.3 140.0,228.3 223.1,220.7" fill="#fff6cf" opacity="0.35"/><path d="M256 119.03999999999999 Q259.36 139.67999999999998 280 143.04 Q259.36 146.4 256 167.04 Q252.64 146.4 232 143.04 Q252.64 139.67999999999998 256 119.03999999999999Z" fill="#ffffff" opacity="0.95"/><path d="M131.38952651399572 423.5116028074889 Q133.34952651399573 435.5516028074889 145.38952651399572 437.5116028074889 Q133.34952651399573 439.47160280748886 131.38952651399572 451.5116028074889 Q129.4295265139957 439.47160280748886 117.38952651399572 437.5116028074889 Q129.4295265139957 435.5516028074889 131.38952651399572 423.5116028074889Z" fill="#ffffff" opacity="0.8"/></g></svg>