<svg xmlns="http://www.w3.org/2000/svg" width="512" height="512" viewBox="0 0 512 512"><defs><radialGradient id="jwtab" cx="0.42" cy="0.36" r="0.8"><stop offset="0" stop-color="#f5f6fb"/><stop offset="0.6" stop-color="#ebeef6"/><stop offset="1" stop-color="#e8ecf5"/></radialGradient><filter id="jwglow" x="-60%" y="-60%" width="220%" height="220%"><feDropShadow dx="0" dy="0" stdDeviation="16" flood-color="#fff176" flood-opacity="0.75"/></filter><filter id="jwdrop" x="-40%" y="-40%" width="180%" height="180%"><feDropShadow dx="0" dy="14" stdDeviation="12" flood-color="#000000" flood-opacity="0.55"/></filter></defs><g filter="url(#jwdrop)"><g filter="url(#jwglow)"><polygon points="449.2,307.8 397.4,397.4 307.8,449.2 204.2,449.2 114.6,397.4 62.8,307.8 62.8,204.2 114.6,114.6 204.2,62.8 307.8,62.8 397.4,114.6 449.2,204.2" fill="#97999f"/></g><polygon points="449.2,307.8 397.4,397.4 342.9,279.3" fill="#7b3131"/><polygon points="397.4,397.4 319.6,319.6 342.9,279.3" fill="#ac5e5e"/><polygon points="397.4,397.4 307.8,449.2 319.6,319.6" fill="#7b5721"/><polygon points="307.8,449.2 279.3,342.9 319.6,319.6" fill="#ac864e"/><polygon points="307.8,449.2 204.2,449.2 279.3,342.9" fill="#8b833a"/><polygon points="204.2,449.2 232.7,342.9 279.3,342.9" fill="#beb662"/><polygon points="204.2,449.2 114.6,397.4 232.7,342.9" fill="#649d6f"/><polygon points="114.6,397.4 192.4,319.6 232.7,342.9" fill="#86d295"/><polygon points="114.6,397.4 62.8,307.8 192.4,319.6" fill="#87b8ca"/><polygon points="62.8,307.8 169.1,279.3 192.4,319.6" fill="#81c9e3"/><polygon points="62.8,307.8 62.8,204.2 169.1,279.3" fill="#b7b1e7"/><polygon points="62.8,204.2 169.1,232.7 169.1,279.3" fill="#7e76c1"/><polygon points="62.8,204.2 114.6,114.6 169.1,232.7" fill="#e7bef8"/><polygon points="114.6,114.6 192.4,192.4 169.1,232.7" fill="#945eac"/><polygon points="114.6,114.6 204.2,62.8 192.4,192.4" fill="#f8bfe5"/><polygon points="204.2,62.8 232.7,169.1 192.4,192.4" fill="#ac5e92"/><polygon points="204.2,62.8 307.8,62.8 232.7,169.1" fill="#e7acac"/><polygon points="307.8,62.8 279.3,169.1 232.7,169.1" fill="#c06c6c"/><polygon points="307.8,62.8 397.4,114.6 279.3,169.1" fill="#cbac7e"/><polygon points="397.4,114.6 319.6,192.4 279.3,169.1" fill="#e2b573"/><polygon points="397.4,114.6 449.2,204.2 319.6,192.4" fill="#a8a15d"/><polygon points="449.2,204.2 342.9,232.7 319.6,192.4" fill="#e2d87b"/><polygon points="449.2,204.2 449.2,307.8 342.9,232.7" fill="#44804f"/><polygon points="449.2,307.8 342.9,279.3 342.9,232.7" fill="#6db27a"/><polygon points="342.9,279.3 319.6,319.6 279.3,342.9 232.7,342.9 192.4,319.6 169.1,279.3 169.1,232.7 192.4,192.4 232.7,169.1 279.3,169.1 319.6,192.4 342.9,232.7" fill="url(#jwtab)"/><polygon points="449.2,307.8 397.4,397.4 307.8,449.2 204.2,449.2 114.6,397.4 62.8,307.8 62.8,204.2 114.6,114.6 204.2,62.8 307.8,62.8 397.4,114.6 449.2,204.2" fill="none" stroke="#686a6e" stroke-width="4" stroke-linejoin="round"/><polygon points="342.9,279.3 319.6,319.6 279.3,342.9 232.7,342.9 192.4,319.6 169.1,279.3 169.1,232.7 192.4,192.4 232.7,169.1 279.3,169.1 319.6,192.4 342.9,232.7" fill="none" stroke="#f8f9fc" stroke-width="2" opacity="0.6"/><rect x="74" y="218" width="364" height="86" rx="20" fill="#191427" opacity="0.92" stroke="#ffd86b" stroke-width="4"/><text x="256" y="284" font-family="'Arial Black','Helvetica Neue',Arial,sans-serif" font-size="64" font-weight="900" text-anchor="middle" letter-spacing="6" stroke="#231a05" stroke-width="8" paint-order="stroke" stroke-linejoin="round" fill="#ffd86b">WILD</text><path d="M342.9333243660161 255.2937140592269 Q346.2933243660161 275.9337140592269 366.9333243660161 279.2937140592269 Q346.2933243660161 282.6537140592269 342.9333243660161 303.2937140592269 Q339.5733243660161 282.6537140592269 318.9333243660161 279.2937140592269 Q339.5733243660161 275.9337140592269 342.9333243660161 255.2937140592269Z" fill="#ffffff" opacity="0.95"/><path d="M114.57864376269046 100.57864376269052 Q116.53864376269046 112.61864376269052 128.57864376269046 114.57864376269052 Q116.53864376269046 116.53864376269051 114.57864376269046 128.57864376269052 Q112.61864376269047 116.53864376269051 100.57864376269046 114.57864376269052 Q112.61864376269047 112.61864376269052 114.57864376269046 100.57864376269052Z" fill="#ffffff" opacity="0.8"/></g></svg>