<svg xmlns="http://www.w3.org/2000/svg" width="512" height="512" viewBox="0 0 512 512"><defs><radialGradient id="jytab" cx="0.42" cy="0.36" r="0.8"><stop offset="0" stop-color="#f9e492"/><stop offset="0.6" stop-color="#f4cb29"/><stop offset="1" stop-color="#f2c40c"/></radialGradient><filter id="jyglow" x="-60%" y="-60%" width="220%" height="220%"><feDropShadow dx="0" dy="0" stdDeviation="16" flood-color="#fff59d" flood-opacity="0.75"/></filter><filter id="jydrop" x="-40%" y="-40%" width="180%" height="180%"><feDropShadow dx="0" dy="14" stdDeviation="12" flood-color="#000000" flood-opacity="0.55"/></filter></defs><g filter="url(#jydrop)"><g filter="url(#jyglow)"><polygon points="447.3,307.2 396.0,396.0 307.2,447.3 204.8,447.3 116.0,396.0 64.7,307.2 64.7,204.8 116.0,116.0 204.8,64.7 307.2,64.7 396.0,116.0 447.3,204.8" fill="#9d7f08"/></g><polygon points="447.3,307.2 396.0,396.0 340.2,278.5" fill="#7b6409"/><polygon points="396.0,396.0 317.6,317.6 340.2,278.5" fill="#ac9435"/><polygon points="396.0,396.0 307.2,447.3 317.6,317.6" fill="#7b6409"/><polygon points="307.2,447.3 278.5,340.2 317.6,317.6" fill="#ac9434"/><polygon points="307.2,447.3 204.8,447.3 278.5,340.2" fill="#8c751d"/><polygon points="204.8,447.3 233.5,340.2 278.5,340.2" fill="#c0a640"/><polygon points="204.8,447.3 116.0,396.0 233.5,340.2" fill="#a89440"/><polygon points="116.0,396.0 194.4,317.6 233.5,340.2" fill="#e2c655"/><polygon points="116.0,396.0 64.7,307.2 194.4,317.6" fill="#cab768"/><polygon points="64.7,307.2 171.8,278.5 194.4,317.6" fill="#e3c755"/><polygon points="64.7,307.2 64.7,204.8 171.8,278.5" fill="#e7d58c"/><polygon points="64.7,204.8 171.8,233.5 171.8,278.5" fill="#c1a741"/><polygon points="64.7,204.8 116.0,116.0 171.8,233.5" fill="#f8e7a0"/><polygon points="116.0,116.0 194.4,194.4 171.8,233.5" fill="#ac9435"/><polygon points="116.0,116.0 204.8,64.7 194.4,194.4" fill="#f8e7a0"/><polygon points="204.8,64.7 233.5,171.8 194.4,194.4" fill="#ac9434"/><polygon points="204.8,64.7 307.2,64.7 233.5,171.8" fill="#e7d68c"/><polygon points="307.2,64.7 278.5,171.8 233.5,171.8" fill="#c0a640"/><polygon points="307.2,64.7 396.0,116.0 278.5,171.8" fill="#cbb769"/><polygon points="396.0,116.0 317.6,194.4 278.5,171.8" fill="#e2c655"/><polygon points="396.0,116.0 447.3,204.8 317.6,194.4" fill="#a99441"/><polygon points="447.3,204.8 340.2,233.5 317.6,194.4" fill="#e3c755"/><polygon points="447.3,204.8 447.3,307.2 340.2,233.5" fill="#8c761d"/><polygon points="447.3,307.2 340.2,278.5 340.2,233.5" fill="#c1a741"/><polygon points="340.2,278.5 317.6,317.6 278.5,340.2 233.5,340.2 194.4,317.6 171.8,278.5 171.8,233.5 194.4,194.4 233.5,171.8 278.5,171.8 317.6,194.4 340.2,233.5" fill="url(#jytab)"/><polygon points="447.3,307.2 396.0,396.0 307.2,447.3 204.8,447.3 116.0,396.0 64.7,307.2 64.7,204.8 116.0,116.0 204.8,64.7 307.2,64.7 396.0,116.0 447.3,204.8" fill="none" stroke="#6d5805" stroke-width="4" stroke-linejoin="round"/><polygon points="340.2,278.5 317.6,317.6 278.5,340.2 233.5,340.2 194.4,317.6 171.8,278.5 171.8,233.5 194.4,194.4 233.5,171.8 278.5,171.8 317.6,194.4 340.2,233.5" fill="none" stroke="#fbedb6" stroke-width="2" opacity="0.6"/><path d="M340.1514579863036 254.54831520933163 Q343.51145798630364 275.1883152093316 364.1514579863036 278.54831520933163 Q343.51145798630364 281.90831520933165 340.1514579863036 302.54831520933163 Q336.7914579863036 281.90831520933165 316.1514579863036 278.54831520933163 Q336.7914579863036 275.1883152093316 340.1514579863036 254.54831520933163Z" fill="#ffffff" opacity="0.95"/><path d="M115.99285732506357 101.9928573250636 Q117.95285732506356 114.0328573250636 129.99285732506357 115.9928573250636 Q117.95285732506356 117.95285732506359 115.99285732506357 129.9928573250636 Q114.03285732506357 117.95285732506359 101.99285732506357 115.9928573250636 Q114.03285732506357 114.0328573250636 115.99285732506357 101.9928573250636Z" fill="#ffffff" opacity="0.8"/></g></svg>