<svg xmlns="http://www.w3.org/2000/svg" width="512" height="512" viewBox="0 0 512 512"><defs><radialGradient id="mgtab" cx="0.42" cy="0.36" r="0.8"><stop offset="0" stop-color="#93e2be"/><stop offset="0.6" stop-color="#2cc780"/><stop offset="1" stop-color="#0fbf6f"/></radialGradient><filter id="mgglow" x="-60%" y="-60%" width="220%" height="220%"><feDropShadow dx="0" dy="0" stdDeviation="16" flood-color="#7dffb0" flood-opacity="0.75"/></filter><filter id="mgdrop" x="-40%" y="-40%" width="180%" height="180%"><feDropShadow dx="0" dy="14" stdDeviation="12" flood-color="#000000" flood-opacity="0.55"/></filter></defs><g filter="url(#mgdrop)"><g filter="url(#mgglow)"><polygon points="444.3,317.2 372.4,416.2 256.0,454.0 139.6,416.2 67.7,317.2 67.7,194.8 139.6,95.8 256.0,58.0 372.4,95.8 444.3,194.8" fill="#0a7c48"/></g><polygon points="444.3,317.2 372.4,416.2 346.4,285.4" fill="#096139"/><polygon points="372.4,416.2 311.9,332.9 346.4,285.4" fill="#359066"/><polygon points="372.4,416.2 256.0,454.0 311.9,332.9" fill="#106740"/><polygon points="256.0,454.0 256.0,351.0 311.9,332.9" fill="#39966c"/><polygon points="256.0,454.0 139.6,416.2 256.0,351.0" fill="#32845f"/><polygon points="139.6,416.2 200.1,332.9 256.0,351.0" fill="#4eb586"/><polygon points="139.6,416.2 67.7,317.2 200.1,332.9" fill="#62ae8b"/><polygon points="67.7,317.2 165.6,285.4 200.1,332.9" fill="#5cca98"/><polygon points="67.7,317.2 67.7,194.8 165.6,285.4" fill="#8dd3b3"/><polygon points="67.7,194.8 165.6,226.6 165.6,285.4" fill="#42a477"/><polygon points="67.7,194.8 139.6,95.8 165.6,226.6" fill="#a3e6c7"/><polygon points="139.6,95.8 200.1,179.1 165.6,226.6" fill="#359066"/><polygon points="139.6,95.8 256.0,58.0 200.1,179.1" fill="#9ce0c0"/><polygon points="256.0,58.0 256.0,161.0 200.1,179.1" fill="#39966c"/><polygon points="256.0,58.0 372.4,95.8 256.0,161.0" fill="#7ac3a1"/><polygon points="372.4,95.8 311.9,179.1 256.0,161.0" fill="#4eb586"/><polygon points="372.4,95.8 444.3,194.8 311.9,179.1" fill="#4a9975"/><polygon points="444.3,194.8 346.4,226.6 311.9,179.1" fill="#5cca98"/><polygon points="444.3,194.8 444.3,317.2 346.4,226.6" fill="#1f744d"/><polygon points="444.3,317.2 346.4,285.4 346.4,226.6" fill="#42a477"/><polygon points="346.4,285.4 311.9,332.9 256.0,351.0 200.1,332.9 165.6,285.4 165.6,226.6 200.1,179.1 256.0,161.0 311.9,179.1 346.4,226.6" fill="url(#mgtab)"/><polygon points="444.3,317.2 372.4,416.2 256.0,454.0 139.6,416.2 67.7,317.2 67.7,194.8 139.6,95.8 256.0,58.0 372.4,95.8 444.3,194.8" fill="none" stroke="#075632" stroke-width="4" stroke-linejoin="round"/><polygon points="346.4,285.4 311.9,332.9 256.0,351.0 200.1,332.9 165.6,285.4 165.6,226.6 200.1,179.1 256.0,161.0 311.9,179.1 346.4,226.6" fill="none" stroke="#b7ecd4" stroke-width="2" opacity="0.6"/><path d="M346.3884113086914 261.368975145395 Q349.7484113086914 282.00897514539497 370.3884113086914 285.368975145395 Q349.7484113086914 288.728975145395 346.3884113086914 309.368975145395 Q343.0284113086914 288.728975145395 322.3884113086914 285.368975145395 Q343.0284113086914 282.00897514539497 346.3884113086914 261.368975145395Z" fill="#ffffff" opacity="0.95"/><path d="M139.61852004609028 81.81463511376043 Q141.5785200460903 93.85463511376044 153.61852004609028 95.81463511376043 Q141.5785200460903 97.77463511376043 139.61852004609028 109.81463511376043 Q137.65852004609027 97.77463511376043 125.61852004609028 95.81463511376043 Q137.65852004609027 93.85463511376044 139.61852004609028 81.81463511376043Z" fill="#ffffff" opacity="0.8"/></g></svg>