<svg xmlns="http://www.w3.org/2000/svg" width="1920" height="1080" viewBox="0 0 1920 1080"><defs><linearGradient id="caveG" x1="0" y1="0" x2="0" y2="1"><stop offset="0" stop-color="#101a30"/><stop offset="0.55" stop-color="#0a1020"/><stop offset="1" stop-color="#04060c"/></linearGradient><linearGradient id="cCrys" x1="0" y1="0" x2="0" y2="1"><stop offset="0" stop-color="#bdf6ff"/><stop offset="0.5" stop-color="#37c4de"/><stop offset="1" stop-color="#0a5a78"/></linearGradient><linearGradient id="pCrys" x1="0" y1="0" x2="0" y2="1"><stop offset="0" stop-color="#ecd2ff"/><stop offset="0.5" stop-color="#a455e8"/><stop offset="1" stop-color="#4a1278"/></linearGradient><radialGradient id="cGlow" cx="0.5" cy="0.5" r="0.5"><stop offset="0" stop-color="#37c4de" stop-opacity="0.3"/><stop offset="1" stop-color="#37c4de" stop-opacity="0"/></radialGradient><radialGradient id="pGlow" cx="0.5" cy="0.5" r="0.5"><stop offset="0" stop-color="#a455e8" stop-opacity="0.28"/><stop offset="1" stop-color="#a455e8" stop-opacity="0"/></radialGradient><radialGradient id="shaft" cx="0.5" cy="0.5" r="0.5"><stop offset="0" stop-color="#9ecfe8" stop-opacity="0.12"/><stop offset="1" stop-color="#9ecfe8" stop-opacity="0"/></radialGradient><linearGradient id="floorG" x1="0" y1="0" x2="0" y2="1"><stop offset="0" stop-color="#0e1626"/><stop offset="1" stop-color="#05080f"/></linearGradient></defs>
<rect width="1920" height="1080" fill="url(#caveG)"/>
<circle cx="1767" cy="661" r="0.7" fill="#9ecfe8" opacity="0.35"/><circle cx="1813" cy="649" r="1.6" fill="#9ecfe8" opacity="0.37"/><circle cx="643" cy="502" r="1.6" fill="#9ecfe8" opacity="0.32"/><circle cx="1454" cy="317" r="0.8" fill="#9ecfe8" opacity="0.36"/><circle cx="925" cy="70" r="1.4" fill="#9ecfe8" opacity="0.22"/><circle cx="360" cy="942" r="1.2" fill="#9ecfe8" opacity="0.17"/><circle cx="1134" cy="1040" r="2.0" fill="#9ecfe8" opacity="0.36"/><circle cx="1521" cy="985" r="0.5" fill="#9ecfe8" opacity="0.11"/><circle cx="521" cy="291" r="1.4" fill="#9ecfe8" opacity="0.10"/><circle cx="1099" cy="1009" r="1.6" fill="#9ecfe8" opacity="0.14"/><circle cx="972" cy="763" r="0.7" fill="#9ecfe8" opacity="0.21"/><circle cx="901" cy="27" r="0.6" fill="#9ecfe8" opacity="0.29"/><circle cx="661" cy="737" r="0.8" fill="#9ecfe8" opacity="0.29"/><circle cx="1466" cy="196" r="2.0" fill="#9ecfe8" opacity="0.21"/><circle cx="654" cy="573" r="0.7" fill="#9ecfe8" opacity="0.20"/><circle cx="1186" cy="524" r="0.7" fill="#9ecfe8" opacity="0.22"/><circle cx="285" cy="733" r="0.4" fill="#9ecfe8" opacity="0.40"/><circle cx="994" cy="856" r="1.3" fill="#9ecfe8" opacity="0.17"/><circle cx="748" cy="919" r="1.1" fill="#9ecfe8" opacity="0.31"/><circle cx="259" cy="17" r="1.9" fill="#9ecfe8" opacity="0.34"/><circle cx="1149" cy="233" r="0.4" fill="#9ecfe8" opacity="0.24"/><circle cx="1244" cy="506" r="1.1" fill="#9ecfe8" opacity="0.42"/><circle cx="662" cy="638" r="1.7" fill="#9ecfe8" opacity="0.41"/><circle cx="89" cy="548" r="0.5" fill="#9ecfe8" opacity="0.40"/><circle cx="749" cy="381" r="1.6" fill="#9ecfe8" opacity="0.39"/><circle cx="495" cy="982" r="1.9" fill="#9ecfe8" opacity="0.12"/><circle cx="919" cy="101" r="1.1" fill="#9ecfe8" opacity="0.24"/><circle cx="898" cy="798" r="1.3" fill="#9ecfe8" opacity="0.35"/><circle cx="287" cy="340" r="1.4" fill="#9ecfe8" opacity="0.13"/><circle cx="126" cy="769" r="0.9" fill="#9ecfe8" opacity="0.24"/><circle cx="639" cy="711" r="0.5" fill="#9ecfe8" opacity="0.09"/><circle cx="968" cy="350" r="0.7" fill="#9ecfe8" opacity="0.32"/><circle cx="1198" cy="288" r="1.7" fill="#9ecfe8" opacity="0.38"/><circle cx="1770" cy="276" r="0.5" fill="#9ecfe8" opacity="0.13"/><circle cx="103" cy="474" r="1.6" fill="#9ecfe8" opacity="0.09"/><circle cx="1867" cy="938" r="0.7" fill="#9ecfe8" opacity="0.08"/><circle cx="1764" cy="300" r="0.9" fill="#9ecfe8" opacity="0.18"/><circle cx="1153" cy="466" r="1.4" fill="#9ecfe8" opacity="0.23"/><circle cx="1572" cy="509" r="1.8" fill="#9ecfe8" opacity="0.32"/><circle cx="1823" cy="666" r="1.5" fill="#9ecfe8" opacity="0.16"/><circle cx="1407" cy="136" r="1.9" fill="#9ecfe8" opacity="0.16"/><circle cx="1746" cy="780" r="0.7" fill="#9ecfe8" opacity="0.35"/><circle cx="1020" cy="224" r="0.5" fill="#9ecfe8" opacity="0.38"/><circle cx="1326" cy="1077" r="1.3" fill="#9ecfe8" opacity="0.41"/><circle cx="1629" cy="59" r="1.3" fill="#9ecfe8" opacity="0.43"/><circle cx="207" cy="401" r="1.9" fill="#9ecfe8" opacity="0.33"/><circle cx="1609" cy="685" r="1.9" fill="#9ecfe8" opacity="0.14"/><circle cx="547" cy="575" r="0.7" fill="#9ecfe8" opacity="0.27"/><circle cx="209" cy="137" r="1.0" fill="#9ecfe8" opacity="0.41"/><circle cx="1881" cy="183" r="0.9" fill="#9ecfe8" opacity="0.39"/><circle cx="719" cy="791" r="0.9" fill="#9ecfe8" opacity="0.15"/><circle cx="1911" cy="862" r="0.7" fill="#9ecfe8" opacity="0.22"/><circle cx="1450" cy="992" r="2.0" fill="#9ecfe8" opacity="0.35"/><circle cx="124" cy="280" r="0.5" fill="#9ecfe8" opacity="0.10"/><circle cx="985" cy="709" r="1.5" fill="#9ecfe8" opacity="0.14"/><circle cx="1772" cy="626" r="1.2" fill="#9ecfe8" opacity="0.10"/><circle cx="492" cy="696" r="0.9" fill="#9ecfe8" opacity="0.39"/><circle cx="548" cy="1032" r="1.0" fill="#9ecfe8" opacity="0.26"/><circle cx="1824" cy="266" r="0.6" fill="#9ecfe8" opacity="0.34"/><circle cx="1203" cy="767" r="0.9" fill="#9ecfe8" opacity="0.13"/><circle cx="638" cy="1059" r="0.8" fill="#9ecfe8" opacity="0.21"/><circle cx="527" cy="252" r="1.4" fill="#9ecfe8" opacity="0.08"/><circle cx="971" cy="1029" r="1.1" fill="#9ecfe8" opacity="0.15"/><circle cx="389" cy="107" r="0.7" fill="#9ecfe8" opacity="0.24"/><circle cx="1474" cy="442" r="1.7" fill="#9ecfe8" opacity="0.21"/><circle cx="1797" cy="150" r="0.4" fill="#9ecfe8" opacity="0.41"/><circle cx="1518" cy="697" r="1.9" fill="#9ecfe8" opacity="0.33"/><circle cx="89" cy="903" r="1.2" fill="#9ecfe8" opacity="0.12"/><circle cx="1223" cy="182" r="1.9" fill="#9ecfe8" opacity="0.19"/><circle cx="401" cy="214" r="2.0" fill="#9ecfe8" opacity="0.28"/><circle cx="379" cy="451" r="1.0" fill="#9ecfe8" opacity="0.26"/><circle cx="746" cy="420" r="1.3" fill="#9ecfe8" opacity="0.11"/><circle cx="1712" cy="822" r="0.5" fill="#9ecfe8" opacity="0.27"/><circle cx="1297" cy="488" r="0.7" fill="#9ecfe8" opacity="0.28"/><circle cx="412" cy="1010" r="0.8" fill="#9ecfe8" opacity="0.31"/><circle cx="1216" cy="815" r="1.8" fill="#9ecfe8" opacity="0.14"/><circle cx="1605" cy="1000" r="1.7" fill="#9ecfe8" opacity="0.39"/><circle cx="882" cy="510" r="1.4" fill="#9ecfe8" opacity="0.14"/><circle cx="1074" cy="708" r="1.7" fill="#9ecfe8" opacity="0.39"/><circle cx="283" cy="894" r="1.1" fill="#9ecfe8" opacity="0.17"/><circle cx="1842" cy="833" r="1.9" fill="#9ecfe8" opacity="0.34"/><circle cx="1402" cy="357" r="1.5" fill="#9ecfe8" opacity="0.17"/><circle cx="77" cy="678" r="1.0" fill="#9ecfe8" opacity="0.39"/><circle cx="1334" cy="717" r="1.6" fill="#9ecfe8" opacity="0.37"/><circle cx="1061" cy="623" r="0.9" fill="#9ecfe8" opacity="0.39"/><circle cx="1053" cy="608" r="1.0" fill="#9ecfe8" opacity="0.33"/><circle cx="992" cy="356" r="1.0" fill="#9ecfe8" opacity="0.12"/><circle cx="1019" cy="1004" r="1.9" fill="#9ecfe8" opacity="0.18"/><circle cx="295" cy="865" r="1.5" fill="#9ecfe8" opacity="0.12"/><circle cx="618" cy="207" r="0.6" fill="#9ecfe8" opacity="0.27"/>
<ellipse cx="960" cy="430" rx="760" ry="500" fill="url(#shaft)"/>
<polygon points="0,0 40,127.35351131530479 80,31.29438618896529 120,144.38551775645465 160,31.52015002677217 200,142.36808787565678 240,31.689045899547637 280,113.61125129507855 320,41.1206088680774 360,175.78947777627036 400,58.150696062948555 440,128.11387439258397 480,68.1889859563671 520,178.7574944179505 560,34.22142377356067 600,133.28732568304986 640,58.01376403076574 680,84.8565486073494 720,52.40295431111008 760,107.49320118920878 800,70.9776006359607 840,95.26455719256774 880,37.177615619730204 920,139.18350701918826 960,76.90768816508353 1000,171.80733524728566 1040,52.59786267532036 1080,180.4518731404096 1120,63.946991234552115 1160,135.45327701838687 1200,59.92531128693372 1240,175.29984574066475 1280,31.837262744084 1320,179.38766309292987 1360,42.940665252972394 1400,140.87324998807162 1440,69.92506577633321 1480,71.3157346402295 1520,45.687521384097636 1560,119.70278900815174 1600,74.63856715010479 1640,143.91104198992252 1680,73.84771994082257 1720,105.53071774775162 1760,74.77445882512257 1800,112.24677149904892 1840,39.58492876961827 1880,156.44392995163798 1920,53.48905130056664 1960,158.95192911615595 2000,54.24059802433476 1920,0" fill="#0c1322"/>
<ellipse cx="170" cy="940" rx="237.5" ry="162.5" fill="url(#cGlow)"/><g transform="rotate(-8.334567641839385 80 940)"><polygon points="55.83650995977223,940 80,731.1666118656285 104.16349004022777,940 94.49809402413666,972.5 65.50190597586334,972.5" fill="url(#cCrys)" stroke="#0a7da0" stroke-width="2" opacity="0.95"/><polygon points="55.83650995977223,940 80,731.1666118656285 75.16730199195445,940" fill="#7af2ff" opacity="0.5"/></g><g transform="rotate(-25.082070185802877 125 940)"><polygon points="100.66586903296411,940 125,762.0054095319938 149.3341309670359,940 139.60047858022153,972.5 110.39952141977847,972.5" fill="url(#cCrys)" stroke="#0a7da0" stroke-width="2" opacity="0.95"/><polygon points="100.66586903296411,940 125,762.0054095319938 120.13317380659282,940" fill="#7af2ff" opacity="0.5"/></g><g transform="rotate(-43.886434871237725 170 940)"><polygon points="148.70275534980465,940 170,712.5091669155518 191.29724465019535,940 182.7783467901172,972.5 157.2216532098828,972.5" fill="url(#cCrys)" stroke="#0a7da0" stroke-width="2" opacity="0.95"/><polygon points="148.70275534980465,940 170,712.5091669155518 165.74055106996093,940" fill="#7af2ff" opacity="0.5"/></g><g transform="rotate(-56.73530062567443 215 940)"><polygon points="186.27068981877528,940 215,645.6884671997977 243.72931018122472,940 232.23758610873483,972.5 197.76241389126517,972.5" fill="url(#cCrys)" stroke="#0a7da0" stroke-width="2" opacity="0.95"/><polygon points="186.27068981877528,940 215,645.6884671997977 209.25413796375506,940" fill="#7af2ff" opacity="0.5"/></g><g transform="rotate(-73.00018783705309 260 940)"><polygon points="227.00676763430238,940 260,661.4592857228126 292.9932323656976,940 279.7959394194186,972.5 240.20406058058143,972.5" fill="url(#cCrys)" stroke="#0a7da0" stroke-width="2" opacity="0.95"/><polygon points="227.00676763430238,940 260,661.4592857228126 253.40135352686048,940" fill="#7af2ff" opacity="0.5"/></g>
<ellipse cx="420" cy="1010" rx="152" ry="104" fill="url(#pGlow)"/><g transform="rotate(-13.257399005349725 362.4 1010)"><polygon points="341.7004471234977,1010 362.4,883.1326342560351 383.09955287650223,1010 374.81973172590136,1030.8 349.9802682740986,1030.8" fill="url(#pCrys)" stroke="#5e1a8a" stroke-width="2" opacity="0.95"/><polygon points="341.7004471234977,1010 362.4,883.1326342560351 358.2600894246995,1010" fill="#d29aff" opacity="0.5"/></g><g transform="rotate(-32.4407112444751 391.2 1010)"><polygon points="374.06560633815826,1010 391.2,837.0565903112292 408.3343936618417,1010 401.480636197105,1030.8 380.91936380289496,1030.8" fill="url(#pCrys)" stroke="#5e1a8a" stroke-width="2" opacity="0.95"/><polygon points="374.06560633815826,1010 391.2,837.0565903112292 387.77312126763167,1010" fill="#d29aff" opacity="0.5"/></g><g transform="rotate(-46.85286282328889 420 1010)"><polygon points="397.21211824081837,1010 420,896.1112930271775 442.78788175918163,1010 433.67272905550897,1030.8 406.32727094449103,1030.8" fill="url(#pCrys)" stroke="#5e1a8a" stroke-width="2" opacity="0.95"/><polygon points="397.21211824081837,1010 420,896.1112930271775 415.4424236481637,1010" fill="#d29aff" opacity="0.5"/></g><g transform="rotate(-56.23296895204112 448.8 1010)"><polygon points="425.67542925402523,1010 448.8,881.494810026139 471.9245707459748,1010 462.6747424475849,1030.8 434.92525755241513,1030.8" fill="url(#pCrys)" stroke="#5e1a8a" stroke-width="2" opacity="0.95"/><polygon points="425.67542925402523,1010 448.8,881.494810026139 444.17508585080503,1010" fill="#d29aff" opacity="0.5"/></g><g transform="rotate(-78.76601773360744 477.6 1010)"><polygon points="456.5281351011247,1010 477.6,894.4944687727839 498.67186489887536,1010 490.24311893932526,1030.8 464.9568810606748,1030.8" fill="url(#pCrys)" stroke="#5e1a8a" stroke-width="2" opacity="0.95"/><polygon points="456.5281351011247,1010 477.6,894.4944687727839 473.38562702022494,1010" fill="#d29aff" opacity="0.5"/></g>
<ellipse cx="1750" cy="950" rx="247" ry="169" fill="url(#pGlow)"/><g transform="rotate(-15.567085309419781 1656.4 950)"><polygon points="1620.7436862464065,950 1656.4,700.8602137777489 1692.0563137535937,950 1677.7937882521562,983.8 1635.006211747844,983.8" fill="url(#pCrys)" stroke="#5e1a8a" stroke-width="2" opacity="0.95"/><polygon points="1620.7436862464065,950 1656.4,700.8602137777489 1649.2687372492815,950" fill="#d29aff" opacity="0.5"/></g><g transform="rotate(-32.899875686038285 1703.2 950)"><polygon points="1665.8624980787747,950 1703.2,756.682540956419 1740.5375019212254,950 1725.6025011527352,983.8 1680.797498847265,983.8" fill="url(#pCrys)" stroke="#5e1a8a" stroke-width="2" opacity="0.95"/><polygon points="1665.8624980787747,950 1703.2,756.682540956419 1695.732499615755,950" fill="#d29aff" opacity="0.5"/></g><g transform="rotate(-42.9495156230405 1750 950)"><polygon points="1717.4923137131148,950 1750,738.9162129578181 1782.5076862868852,950 1769.5046117721313,983.8 1730.4953882278687,983.8" fill="url(#pCrys)" stroke="#5e1a8a" stroke-width="2" opacity="0.95"/><polygon points="1717.4923137131148,950 1750,738.9162129578181 1743.498462742623,950" fill="#d29aff" opacity="0.5"/></g><g transform="rotate(-65.79678741889074 1796.8 950)"><polygon points="1775.07489679954,950 1796.8,656.4057920379564 1818.5251032004599,950 1809.8350619202758,983.8 1783.764938079724,983.8" fill="url(#pCrys)" stroke="#5e1a8a" stroke-width="2" opacity="0.95"/><polygon points="1775.07489679954,950 1796.8,656.4057920379564 1792.454979359908,950" fill="#d29aff" opacity="0.5"/></g><g transform="rotate(-75.7791533418931 1843.6 950)"><polygon points="1806.6030203071423,950 1843.6,689.7658513428178 1880.5969796928575,950 1865.7981878157145,983.8 1821.4018121842853,983.8" fill="url(#pCrys)" stroke="#5e1a8a" stroke-width="2" opacity="0.95"/><polygon points="1806.6030203071423,950 1843.6,689.7658513428178 1836.2006040614283,950" fill="#d29aff" opacity="0.5"/></g>
<ellipse cx="1520" cy="1020" rx="161.5" ry="110.5" fill="url(#cGlow)"/><g transform="rotate(-17.37447437318042 1458.8 1020)"><polygon points="1435.558711460908,1020 1458.8,847.4252942022868 1482.041288539092,1020 1472.7447731234552,1042.1 1444.8552268765447,1042.1" fill="url(#cCrys)" stroke="#0a7da0" stroke-width="2" opacity="0.95"/><polygon points="1435.558711460908,1020 1458.8,847.4252942022868 1454.1517422921816,1020" fill="#7af2ff" opacity="0.5"/></g><g transform="rotate(-24.16613991232589 1489.4 1020)"><polygon points="1474.6228241959589,1020 1489.4,832.2652245037025 1504.1771758040413,1020 1498.266305482425,1042.1 1480.5336945175752,1042.1" fill="url(#cCrys)" stroke="#0a7da0" stroke-width="2" opacity="0.95"/><polygon points="1474.6228241959589,1020 1489.4,832.2652245037025 1486.4445648391918,1020" fill="#7af2ff" opacity="0.5"/></g><g transform="rotate(-42.83297124085948 1520 1020)"><polygon points="1505.948871036549,1020 1520,839.6829699317459 1534.051128963451,1020 1528.4306773780706,1042.1 1511.5693226219294,1042.1" fill="url(#cCrys)" stroke="#0a7da0" stroke-width="2" opacity="0.95"/><polygon points="1505.948871036549,1020 1520,839.6829699317459 1517.1897742073097,1020" fill="#7af2ff" opacity="0.5"/></g><g transform="rotate(-60.00494184345007 1550.6 1020)"><polygon points="1528.9245394560041,1020 1550.6,884.8554905537749 1572.2754605439957,1020 1563.6052763263974,1042.1 1537.5947236736024,1042.1" fill="url(#cCrys)" stroke="#0a7da0" stroke-width="2" opacity="0.95"/><polygon points="1528.9245394560041,1020 1550.6,884.8554905537749 1546.2649078912007,1020" fill="#7af2ff" opacity="0.5"/></g><g transform="rotate(-80.40551159111783 1581.2 1020)"><polygon points="1566.400176190096,1020 1581.2,834.3463577555958 1595.999823809904,1020 1590.0798942859424,1042.1 1572.3201057140577,1042.1" fill="url(#cCrys)" stroke="#0a7da0" stroke-width="2" opacity="0.95"/><polygon points="1566.400176190096,1020 1581.2,834.3463577555958 1578.2400352380193,1020" fill="#7af2ff" opacity="0.5"/></g>
<ellipse cx="120" cy="330" rx="114" ry="78" fill="url(#pGlow)"/><g transform="rotate(-8.64580162987113 76.80000000000001 330)"><polygon points="62.03701928230004,330 76.80000000000001,209.09566653007641 91.56298071769999,330 85.65778843062,345.6 67.94221156938002,345.6" fill="url(#pCrys)" stroke="#5e1a8a" stroke-width="2" opacity="0.95"/><polygon points="62.03701928230004,330 76.80000000000001,209.09566653007641 73.84740385646002,330" fill="#d29aff" opacity="0.5"/></g><g transform="rotate(-31.706262881401926 98.4 330)"><polygon points="87.13304652599618,330 98.4,214.54868645360693 109.66695347400383,330 105.1601720844023,345.6 91.6398279155977,345.6" fill="url(#pCrys)" stroke="#5e1a8a" stroke-width="2" opacity="0.95"/><polygon points="87.13304652599618,330 98.4,214.54868645360693 96.14660930519923,330" fill="#d29aff" opacity="0.5"/></g><g transform="rotate(-40.19607165129855 120 330)"><polygon points="105.4821648772806,330 120,186.79516338882968 134.51783512271942,330 128.71070107363164,345.6 111.28929892636836,345.6" fill="url(#pCrys)" stroke="#5e1a8a" stroke-width="2" opacity="0.95"/><polygon points="105.4821648772806,330 120,186.79516338882968 117.09643297545612,330" fill="#d29aff" opacity="0.5"/></g><g transform="rotate(-65.37096260255203 141.6 330)"><polygon points="127.796507435292,330 141.6,224.8243327285163 155.403492564708,330 149.88209553882479,345.6 133.3179044611752,345.6" fill="url(#pCrys)" stroke="#5e1a8a" stroke-width="2" opacity="0.95"/><polygon points="127.796507435292,330 141.6,224.8243327285163 138.8393014870584,330" fill="#d29aff" opacity="0.5"/></g><g transform="rotate(-77.31668971758336 163.2 330)"><polygon points="146.57135900566354,330 163.2,246.05098580243066 179.82864099433644,330 173.17718459660185,345.6 153.22281540339813,345.6" fill="url(#pCrys)" stroke="#5e1a8a" stroke-width="2" opacity="0.95"/><polygon points="146.57135900566354,330 163.2,246.05098580243066 159.8742718011327,330" fill="#d29aff" opacity="0.5"/></g>
<ellipse cx="1820" cy="300" rx="104.50000000000001" ry="71.5" fill="url(#cGlow)"/><g transform="rotate(-17.488745722919703 1780.4 300)"><polygon points="1770.6057035786798,300 1780.4,200.24594421859365 1790.1942964213204,300 1786.2765778527921,314.3 1774.523422147208,314.3" fill="url(#cCrys)" stroke="#0a7da0" stroke-width="2" opacity="0.95"/><polygon points="1770.6057035786798,300 1780.4,200.24594421859365 1778.441140715736,300" fill="#7af2ff" opacity="0.5"/></g><g transform="rotate(-33.57068179734051 1800.2 300)"><polygon points="1785.7831316579832,300 1800.2,213.32346977468114 1814.616868342017,300 1808.8501210052102,314.3 1791.5498789947899,314.3" fill="url(#cCrys)" stroke="#0a7da0" stroke-width="2" opacity="0.95"/><polygon points="1785.7831316579832,300 1800.2,213.32346977468114 1797.3166263315966,300" fill="#7af2ff" opacity="0.5"/></g><g transform="rotate(-40.025006867945194 1820 300)"><polygon points="1806.7714693398914,300 1820,238.95094640366733 1833.2285306601086,300 1827.9371183960652,314.3 1812.0628816039348,314.3" fill="url(#cCrys)" stroke="#0a7da0" stroke-width="2" opacity="0.95"/><polygon points="1806.7714693398914,300 1820,238.95094640366733 1817.3542938679782,300" fill="#7af2ff" opacity="0.5"/></g><g transform="rotate(-64.43244683463126 1839.8 300)"><polygon points="1826.7861627457662,300 1839.8,195.69711464096326 1852.8138372542337,300 1847.6083023525402,314.3 1831.9916976474597,314.3" fill="url(#cCrys)" stroke="#0a7da0" stroke-width="2" opacity="0.95"/><polygon points="1826.7861627457662,300 1839.8,195.69711464096326 1837.1972325491531,300" fill="#7af2ff" opacity="0.5"/></g><g transform="rotate(-80.60162565717474 1859.6 300)"><polygon points="1848.4959632961545,300 1859.6,216.6185173121048 1870.7040367038453,300 1866.2624220223072,314.3 1852.9375779776926,314.3" fill="url(#cCrys)" stroke="#0a7da0" stroke-width="2" opacity="0.95"/><polygon points="1848.4959632961545,300 1859.6,216.6185173121048 1857.3791926592307,300" fill="#7af2ff" opacity="0.5"/></g>
<rect x="0" y="990" width="1920" height="90" fill="url(#floorG)"/></svg>