<svg xmlns="http://www.w3.org/2000/svg" width="512" height="512" viewBox="0 0 512 512"><defs><linearGradient id="gold" x1="0" y1="0" x2="0" y2="1"><stop offset="0" stop-color="#fff6cf"/><stop offset="0.28" stop-color="#ffd86b"/><stop offset="0.52" stop-color="#fff3b0"/><stop offset="0.75" stop-color="#c89627"/><stop offset="1" stop-color="#7a5a10"/></linearGradient><linearGradient id="goldEdge" x1="0" y1="0" x2="0" y2="1"><stop offset="0" stop-color="#fffbe2"/><stop offset="1" stop-color="#9c7a1a"/></linearGradient><radialGradient id="panel" cx="0.5" cy="0.38" r="0.85"><stop offset="0" stop-color="#857790"/><stop offset="0.55" stop-color="#2c1540"/><stop offset="1" stop-color="#14091d"/></radialGradient><radialGradient id="vig" cx="0.5" cy="0.5" r="0.72"><stop offset="0.55" stop-color="#000000" stop-opacity="0"/><stop offset="1" stop-color="#000000" stop-opacity="0.55"/></radialGradient><filter id="tileShadow" x="-40%" y="-40%" width="180%" height="180%"><feDropShadow dx="0" dy="12" stdDeviation="14" flood-color="#000000" flood-opacity="0.55"/></filter><radialGradient id="orbBody" cx="0.38" cy="0.32" r="0.85"><stop offset="0" stop-color="#f3d4ff"/><stop offset="0.35" stop-color="#b04ae0"/><stop offset="0.75" stop-color="#5e1a8a"/><stop offset="1" stop-color="#2a0845"/></radialGradient><linearGradient id="orbRing" x1="0" y1="0" x2="0" y2="1"><stop offset="0" stop-color="#fff6cf"/><stop offset="0.28" stop-color="#ffd86b"/><stop offset="0.52" stop-color="#fff3b0"/><stop offset="0.75" stop-color="#c89627"/><stop offset="1" stop-color="#7a5a10"/></linearGradient><filter id="orbGlow" x="-60%" y="-60%" width="220%" height="220%"><feDropShadow dx="0" dy="0" stdDeviation="18" flood-color="#c44dff" flood-opacity="0.95"/></filter><filter id="soft5" x="-60%" y="-60%" width="220%" height="220%"><feGaussianBlur stdDeviation="5"/></filter></defs>
<g filter="url(#tileShadow)">
  <rect x="20" y="18" width="472" height="472" rx="58" fill="url(#gold)" stroke="#5a430e" stroke-width="4"/>
  <rect x="36" y="34" width="440" height="440" rx="46" fill="none" stroke="url(#goldEdge)" stroke-width="3" opacity="0.8"/>
  <rect x="54" y="52" width="404" height="404" rx="34" fill="url(#panel)"/>
  <rect x="54" y="52" width="404" height="404" rx="34" fill="url(#vig)"/>
  <rect x="54" y="52" width="404" height="404" rx="34" fill="none" stroke="#2b2010" stroke-width="3" opacity="0.7"/>
  <g filter="url(#orbGlow)"><circle cx="256" cy="262" r="140" fill="url(#orbBody)"/></g><g filter="url(#soft5)"><path d="M196,180 Q256,262 200,344" fill="none" stroke="#f0c4ff" stroke-width="7" stroke-linecap="round" opacity="0.8"/><path d="M318,186 Q250,266 314,340" fill="none" stroke="#f0c4ff" stroke-width="6" stroke-linecap="round" opacity="0.7"/><path d="M170,262 Q256,230 342,266" fill="none" stroke="#f0c4ff" stroke-width="5" stroke-linecap="round" opacity="0.6"/></g><polygon points="238,196 286,196 260,254 292,254 226,338 248,272 220,272" fill="#ffffff" opacity="0.95"/><circle cx="256" cy="262" r="140" fill="none" stroke="url(#orbRing)" stroke-width="13"/><circle cx="256" cy="262" r="129" fill="none" stroke="#3a1158" stroke-width="4" opacity="0.8"/><ellipse cx="210" cy="206" rx="44" ry="26" fill="#ffffff" opacity="0.4" transform="rotate(-28 210 206)"/><path d="M206 178 Q208.8 195.2 226 198 Q208.8 200.8 206 218 Q203.2 200.8 186 198 Q203.2 195.2 206 178Z" fill="#ffffff" opacity="0.95"/><path d="M316 304 Q317.96 316.04 330 318 Q317.96 319.96 316 332 Q314.04 319.96 302 318 Q314.04 316.04 316 304Z" fill="#ffffff" opacity="0.8"/>
  <path d="M70,138 Q256,52 442,138 L442,90 Q442,68 420,68 L92,68 Q70,68 70,90 Z" fill="#ffffff" opacity="0.07"/>
  <circle cx="40" cy="38" r="17" fill="url(#gold)" stroke="#5a430e" stroke-width="2.5"/><circle cx="40" cy="38" r="8" fill="#fff3b0" stroke="#c89627" stroke-width="2"/><circle cx="472" cy="38" r="17" fill="url(#gold)" stroke="#5a430e" stroke-width="2.5"/><circle cx="472" cy="38" r="8" fill="#fff3b0" stroke="#c89627" stroke-width="2"/><circle cx="40" cy="470" r="17" fill="url(#gold)" stroke="#5a430e" stroke-width="2.5"/><circle cx="40" cy="470" r="8" fill="#fff3b0" stroke="#c89627" stroke-width="2"/><circle cx="472" cy="470" r="17" fill="url(#gold)" stroke="#5a430e" stroke-width="2.5"/><circle cx="472" cy="470" r="8" fill="#fff3b0" stroke="#c89627" stroke-width="2"/>
</g></svg>