<svg xmlns="http://www.w3.org/2000/svg" width="512" height="512" viewBox="0 0 512 512"><defs><linearGradient id="sand" x1="0" y1="0" x2="0" y2="1"><stop offset="0" stop-color="#efdcae"/><stop offset="0.45" stop-color="#d3b377"/><stop offset="1" stop-color="#8a6b35"/></linearGradient><linearGradient id="egGold" x1="0" y1="0" x2="0" y2="1"><stop offset="0" stop-color="#fff6cf"/><stop offset="0.28" stop-color="#ffd86b"/><stop offset="0.52" stop-color="#fff3b0"/><stop offset="0.75" stop-color="#c89627"/><stop offset="1" stop-color="#7a5a10"/></linearGradient><radialGradient id="epanel" cx="0.5" cy="0.36" r="0.85"><stop offset="0" stop-color="#a08b6d"/><stop offset="0.55" stop-color="#6d4c1e"/><stop offset="1" stop-color="#37260f"/></radialGradient><radialGradient id="evig" cx="0.5" cy="0.5" r="0.72"><stop offset="0.55" stop-color="#000000" stop-opacity="0"/><stop offset="1" stop-color="#000000" stop-opacity="0.5"/></radialGradient><filter id="eShadow" x="-40%" y="-40%" width="180%" height="180%"><feDropShadow dx="0" dy="12" stdDeviation="14" flood-color="#000000" flood-opacity="0.55"/></filter><linearGradient id="ankhFace" x1="0" y1="0" x2="0" y2="1"><stop offset="0" stop-color="#fff6cf"/><stop offset="0.4" stop-color="#ffd86b"/><stop offset="0.8" stop-color="#c89627"/><stop offset="1" stop-color="#8a6512"/></linearGradient></defs>
<g filter="url(#eShadow)">
  <rect x="20" y="18" width="472" height="472" rx="40" fill="url(#sand)" stroke="#5e4a1e" stroke-width="4"/>
  <rect x="34" y="32" width="444" height="444" rx="32" fill="none" stroke="url(#egGold)" stroke-width="7"/>
  <rect x="52" y="50" width="408" height="408" rx="24" fill="url(#epanel)"/>
  <rect x="52" y="50" width="408" height="408" rx="24" fill="url(#evig)"/>
  <rect x="52" y="50" width="408" height="408" rx="24" fill="none" stroke="#2b2010" stroke-width="3" opacity="0.7"/>
  <circle cx="84" cy="40" r="5" fill="#7a5a10"/><circle cx="84" cy="472" r="5" fill="#7a5a10"/><circle cx="142" cy="40" r="5" fill="#7a5a10"/><circle cx="142" cy="472" r="5" fill="#7a5a10"/><circle cx="200" cy="40" r="5" fill="#7a5a10"/><circle cx="200" cy="472" r="5" fill="#7a5a10"/><circle cx="258" cy="40" r="5" fill="#7a5a10"/><circle cx="258" cy="472" r="5" fill="#7a5a10"/><circle cx="316" cy="40" r="5" fill="#7a5a10"/><circle cx="316" cy="472" r="5" fill="#7a5a10"/><circle cx="374" cy="40" r="5" fill="#7a5a10"/><circle cx="374" cy="472" r="5" fill="#7a5a10"/><circle cx="432" cy="40" r="5" fill="#7a5a10"/><circle cx="432" cy="472" r="5" fill="#7a5a10"/>
  <g transform="translate(4.50,10)"><path d="M256,96 C198,96 178,148 178,182 C178,216 204,242 230,252 L230,266 L162,266 L162,302 L230,302 L230,432 L282,432 L282,302 L350,302 L350,266 L282,266 L282,252 C308,242 334,216 334,182 C334,148 314,96 256,96 Z M256,134 C290,134 298,164 298,182 C298,202 280,220 256,220 C232,220 214,202 214,182 C214,164 222,134 256,134 Z" fill-rule="evenodd" fill="#6b4e0a"/></g><g transform="translate(4.05,9)"><path d="M256,96 C198,96 178,148 178,182 C178,216 204,242 230,252 L230,266 L162,266 L162,302 L230,302 L230,432 L282,432 L282,302 L350,302 L350,266 L282,266 L282,252 C308,242 334,216 334,182 C334,148 314,96 256,96 Z M256,134 C290,134 298,164 298,182 C298,202 280,220 256,220 C232,220 214,202 214,182 C214,164 222,134 256,134 Z" fill-rule="evenodd" fill="#6b4e0a"/></g><g transform="translate(3.60,8)"><path d="M256,96 C198,96 178,148 178,182 C178,216 204,242 230,252 L230,266 L162,266 L162,302 L230,302 L230,432 L282,432 L282,302 L350,302 L350,266 L282,266 L282,252 C308,242 334,216 334,182 C334,148 314,96 256,96 Z M256,134 C290,134 298,164 298,182 C298,202 280,220 256,220 C232,220 214,202 214,182 C214,164 222,134 256,134 Z" fill-rule="evenodd" fill="#6b4e0a"/></g><g transform="translate(3.15,7)"><path d="M256,96 C198,96 178,148 178,182 C178,216 204,242 230,252 L230,266 L162,266 L162,302 L230,302 L230,432 L282,432 L282,302 L350,302 L350,266 L282,266 L282,252 C308,242 334,216 334,182 C334,148 314,96 256,96 Z M256,134 C290,134 298,164 298,182 C298,202 280,220 256,220 C232,220 214,202 214,182 C214,164 222,134 256,134 Z" fill-rule="evenodd" fill="#6b4e0a"/></g><g transform="translate(2.70,6)"><path d="M256,96 C198,96 178,148 178,182 C178,216 204,242 230,252 L230,266 L162,266 L162,302 L230,302 L230,432 L282,432 L282,302 L350,302 L350,266 L282,266 L282,252 C308,242 334,216 334,182 C334,148 314,96 256,96 Z M256,134 C290,134 298,164 298,182 C298,202 280,220 256,220 C232,220 214,202 214,182 C214,164 222,134 256,134 Z" fill-rule="evenodd" fill="#6b4e0a"/></g><g transform="translate(2.25,5)"><path d="M256,96 C198,96 178,148 178,182 C178,216 204,242 230,252 L230,266 L162,266 L162,302 L230,302 L230,432 L282,432 L282,302 L350,302 L350,266 L282,266 L282,252 C308,242 334,216 334,182 C334,148 314,96 256,96 Z M256,134 C290,134 298,164 298,182 C298,202 280,220 256,220 C232,220 214,202 214,182 C214,164 222,134 256,134 Z" fill-rule="evenodd" fill="#6b4e0a"/></g><g transform="translate(1.80,4)"><path d="M256,96 C198,96 178,148 178,182 C178,216 204,242 230,252 L230,266 L162,266 L162,302 L230,302 L230,432 L282,432 L282,302 L350,302 L350,266 L282,266 L282,252 C308,242 334,216 334,182 C334,148 314,96 256,96 Z M256,134 C290,134 298,164 298,182 C298,202 280,220 256,220 C232,220 214,202 214,182 C214,164 222,134 256,134 Z" fill-rule="evenodd" fill="#6b4e0a"/></g><g transform="translate(1.35,3)"><path d="M256,96 C198,96 178,148 178,182 C178,216 204,242 230,252 L230,266 L162,266 L162,302 L230,302 L230,432 L282,432 L282,302 L350,302 L350,266 L282,266 L282,252 C308,242 334,216 334,182 C334,148 314,96 256,96 Z M256,134 C290,134 298,164 298,182 C298,202 280,220 256,220 C232,220 214,202 214,182 C214,164 222,134 256,134 Z" fill-rule="evenodd" fill="#6b4e0a"/></g><g transform="translate(0.90,2)"><path d="M256,96 C198,96 178,148 178,182 C178,216 204,242 230,252 L230,266 L162,266 L162,302 L230,302 L230,432 L282,432 L282,302 L350,302 L350,266 L282,266 L282,252 C308,242 334,216 334,182 C334,148 314,96 256,96 Z M256,134 C290,134 298,164 298,182 C298,202 280,220 256,220 C232,220 214,202 214,182 C214,164 222,134 256,134 Z" fill-rule="evenodd" fill="#6b4e0a"/></g><g transform="translate(0.45,1)"><path d="M256,96 C198,96 178,148 178,182 C178,216 204,242 230,252 L230,266 L162,266 L162,302 L230,302 L230,432 L282,432 L282,302 L350,302 L350,266 L282,266 L282,252 C308,242 334,216 334,182 C334,148 314,96 256,96 Z M256,134 C290,134 298,164 298,182 C298,202 280,220 256,220 C232,220 214,202 214,182 C214,164 222,134 256,134 Z" fill-rule="evenodd" fill="#6b4e0a"/></g><path d="M256,96 C198,96 178,148 178,182 C178,216 204,242 230,252 L230,266 L162,266 L162,302 L230,302 L230,432 L282,432 L282,302 L350,302 L350,266 L282,266 L282,252 C308,242 334,216 334,182 C334,148 314,96 256,96 Z M256,134 C290,134 298,164 298,182 C298,202 280,220 256,220 C232,220 214,202 214,182 C214,164 222,134 256,134 Z" fill-rule="evenodd" fill="url(#ankhFace)"/><path d="M232,116 C212,128 200,152 198,176" fill="none" stroke="#fffbe2" stroke-width="8" stroke-linecap="round" opacity="0.7"/><path d="M316 112 Q318.52 127.48 334 130 Q318.52 132.52 316 148 Q313.48 132.52 298 130 Q313.48 127.48 316 112Z" fill="#ffffff" opacity="0.9"/><path d="M204 368 Q205.68 378.32 216 380 Q205.68 381.68 204 392 Q202.32 381.68 192 380 Q202.32 378.32 204 368Z" fill="#ffffff" opacity="0.7"/>
  <path d="M68,136 Q256,54 444,136 L444,88 Q444,66 422,66 L90,66 Q68,66 68,88 Z" fill="#fff3d0" opacity="0.07"/>
</g></svg>