<svg xmlns="http://www.w3.org/2000/svg" width="512" height="512" viewBox="0 0 512 512"><defs><linearGradient id="sand" x1="0" y1="0" x2="0" y2="1"><stop offset="0" stop-color="#efdcae"/><stop offset="0.45" stop-color="#d3b377"/><stop offset="1" stop-color="#8a6b35"/></linearGradient><linearGradient id="egGold" x1="0" y1="0" x2="0" y2="1"><stop offset="0" stop-color="#fff6cf"/><stop offset="0.28" stop-color="#ffd86b"/><stop offset="0.52" stop-color="#fff3b0"/><stop offset="0.75" stop-color="#c89627"/><stop offset="1" stop-color="#7a5a10"/></linearGradient><radialGradient id="epanel" cx="0.5" cy="0.36" r="0.85"><stop offset="0" stop-color="#6a6a77"/><stop offset="0.55" stop-color="#1a1a2e"/><stop offset="1" stop-color="#0d0d17"/></radialGradient><radialGradient id="evig" cx="0.5" cy="0.5" r="0.72"><stop offset="0.55" stop-color="#000000" stop-opacity="0"/><stop offset="1" stop-color="#000000" stop-opacity="0.5"/></radialGradient><filter id="eShadow" x="-40%" y="-40%" width="180%" height="180%"><feDropShadow dx="0" dy="12" stdDeviation="14" flood-color="#000000" flood-opacity="0.55"/></filter><linearGradient id="anuB" x1="0" y1="0" x2="0" y2="1"><stop offset="0" stop-color="#3a3a55"/><stop offset="0.5" stop-color="#1c1c30"/><stop offset="1" stop-color="#0a0a16"/></linearGradient><linearGradient id="anuG" x1="0" y1="0" x2="0" y2="1"><stop offset="0" stop-color="#fff6cf"/><stop offset="0.5" stop-color="#ffd86b"/><stop offset="1" stop-color="#8a6512"/></linearGradient></defs>
<g filter="url(#eShadow)">
  <rect x="20" y="18" width="472" height="472" rx="40" fill="url(#sand)" stroke="#5e4a1e" stroke-width="4"/>
  <rect x="34" y="32" width="444" height="444" rx="32" fill="none" stroke="url(#egGold)" stroke-width="7"/>
  <rect x="52" y="50" width="408" height="408" rx="24" fill="url(#epanel)"/>
  <rect x="52" y="50" width="408" height="408" rx="24" fill="url(#evig)"/>
  <rect x="52" y="50" width="408" height="408" rx="24" fill="none" stroke="#2b2010" stroke-width="3" opacity="0.7"/>
  <circle cx="84" cy="40" r="5" fill="#7a5a10"/><circle cx="84" cy="472" r="5" fill="#7a5a10"/><circle cx="142" cy="40" r="5" fill="#7a5a10"/><circle cx="142" cy="472" r="5" fill="#7a5a10"/><circle cx="200" cy="40" r="5" fill="#7a5a10"/><circle cx="200" cy="472" r="5" fill="#7a5a10"/><circle cx="258" cy="40" r="5" fill="#7a5a10"/><circle cx="258" cy="472" r="5" fill="#7a5a10"/><circle cx="316" cy="40" r="5" fill="#7a5a10"/><circle cx="316" cy="472" r="5" fill="#7a5a10"/><circle cx="374" cy="40" r="5" fill="#7a5a10"/><circle cx="374" cy="472" r="5" fill="#7a5a10"/><circle cx="432" cy="40" r="5" fill="#7a5a10"/><circle cx="432" cy="472" r="5" fill="#7a5a10"/>
  <g transform="translate(3.60,8)"><path d="M206,118 L236,178 L268,170 L252,108 L228,84 Z" fill="#05050c"/><path d="M148,140 L184,196 L212,184 L192,118 L160,102 Z" fill="#05050c"/><path d="M170,182 Q230,148 280,170 L396,238 Q412,248 398,260 L300,254 Q286,300 278,360 L282,432 L172,432 Q156,300 170,182 Z" fill="#05050c"/></g><g transform="translate(3.15,7)"><path d="M206,118 L236,178 L268,170 L252,108 L228,84 Z" fill="#05050c"/><path d="M148,140 L184,196 L212,184 L192,118 L160,102 Z" fill="#05050c"/><path d="M170,182 Q230,148 280,170 L396,238 Q412,248 398,260 L300,254 Q286,300 278,360 L282,432 L172,432 Q156,300 170,182 Z" fill="#05050c"/></g><g transform="translate(2.70,6)"><path d="M206,118 L236,178 L268,170 L252,108 L228,84 Z" fill="#05050c"/><path d="M148,140 L184,196 L212,184 L192,118 L160,102 Z" fill="#05050c"/><path d="M170,182 Q230,148 280,170 L396,238 Q412,248 398,260 L300,254 Q286,300 278,360 L282,432 L172,432 Q156,300 170,182 Z" fill="#05050c"/></g><g transform="translate(2.25,5)"><path d="M206,118 L236,178 L268,170 L252,108 L228,84 Z" fill="#05050c"/><path d="M148,140 L184,196 L212,184 L192,118 L160,102 Z" fill="#05050c"/><path d="M170,182 Q230,148 280,170 L396,238 Q412,248 398,260 L300,254 Q286,300 278,360 L282,432 L172,432 Q156,300 170,182 Z" fill="#05050c"/></g><g transform="translate(1.80,4)"><path d="M206,118 L236,178 L268,170 L252,108 L228,84 Z" fill="#05050c"/><path d="M148,140 L184,196 L212,184 L192,118 L160,102 Z" fill="#05050c"/><path d="M170,182 Q230,148 280,170 L396,238 Q412,248 398,260 L300,254 Q286,300 278,360 L282,432 L172,432 Q156,300 170,182 Z" fill="#05050c"/></g><g transform="translate(1.35,3)"><path d="M206,118 L236,178 L268,170 L252,108 L228,84 Z" fill="#05050c"/><path d="M148,140 L184,196 L212,184 L192,118 L160,102 Z" fill="#05050c"/><path d="M170,182 Q230,148 280,170 L396,238 Q412,248 398,260 L300,254 Q286,300 278,360 L282,432 L172,432 Q156,300 170,182 Z" fill="#05050c"/></g><g transform="translate(0.90,2)"><path d="M206,118 L236,178 L268,170 L252,108 L228,84 Z" fill="#05050c"/><path d="M148,140 L184,196 L212,184 L192,118 L160,102 Z" fill="#05050c"/><path d="M170,182 Q230,148 280,170 L396,238 Q412,248 398,260 L300,254 Q286,300 278,360 L282,432 L172,432 Q156,300 170,182 Z" fill="#05050c"/></g><g transform="translate(0.45,1)"><path d="M206,118 L236,178 L268,170 L252,108 L228,84 Z" fill="#05050c"/><path d="M148,140 L184,196 L212,184 L192,118 L160,102 Z" fill="#05050c"/><path d="M170,182 Q230,148 280,170 L396,238 Q412,248 398,260 L300,254 Q286,300 278,360 L282,432 L172,432 Q156,300 170,182 Z" fill="#05050c"/></g><path d="M206,118 L236,178 L268,170 L252,108 L228,84 Z" fill="url(#anuB)"/><path d="M148,140 L184,196 L212,184 L192,118 L160,102 Z" fill="url(#anuB)"/><path d="M170,182 Q230,148 280,170 L396,238 Q412,248 398,260 L300,254 Q286,300 278,360 L282,432 L172,432 Q156,300 170,182 Z" fill="url(#anuB)"/><path d="M210,124 L236,170" stroke="#ffd86b" stroke-width="6" opacity="0.7"/><path d="M280,170 L380,232" stroke="#4a4a6a" stroke-width="5" opacity="0.6"/><ellipse cx="268" cy="206" rx="16" ry="9" fill="url(#anuG)" transform="rotate(14 268 206)"/><circle cx="268" cy="206" r="4" fill="#10101e"/><path d="M160,392 L292,392 L300,432 L152,432 Z" fill="url(#anuG)" stroke="#6b4e0a" stroke-width="4"/><line x1="170" y1="408" x2="294" y2="408" stroke="#8a6512" stroke-width="5"/><line x1="166" y1="422" x2="298" y2="422" stroke="#8a6512" stroke-width="5"/><path d="M214 122 Q215.68 132.32 226 134 Q215.68 135.68 214 146 Q212.32 135.68 202 134 Q212.32 132.32 214 122Z" fill="#ffffff" opacity="0.8"/><path d="M330 214 Q331.68 224.32 342 226 Q331.68 227.68 330 238 Q328.32 227.68 318 226 Q328.32 224.32 330 214Z" fill="#ffffff" opacity="0.7"/>
  <path d="M68,136 Q256,54 444,136 L444,88 Q444,66 422,66 L90,66 Q68,66 68,88 Z" fill="#fff3d0" opacity="0.07"/>
</g></svg>