<svg xmlns="http://www.w3.org/2000/svg" width="512" height="512" viewBox="0 0 512 512"><defs><linearGradient id="sand" x1="0" y1="0" x2="0" y2="1"><stop offset="0" stop-color="#efdcae"/><stop offset="0.45" stop-color="#d3b377"/><stop offset="1" stop-color="#8a6b35"/></linearGradient><linearGradient id="egGold" x1="0" y1="0" x2="0" y2="1"><stop offset="0" stop-color="#fff6cf"/><stop offset="0.28" stop-color="#ffd86b"/><stop offset="0.52" stop-color="#fff3b0"/><stop offset="0.75" stop-color="#c89627"/><stop offset="1" stop-color="#7a5a10"/></linearGradient><radialGradient id="epanel" cx="0.5" cy="0.36" r="0.85"><stop offset="0" stop-color="#737cb9"/><stop offset="0.55" stop-color="#283593"/><stop offset="1" stop-color="#141b4a"/></radialGradient><radialGradient id="evig" cx="0.5" cy="0.5" r="0.72"><stop offset="0.55" stop-color="#000000" stop-opacity="0"/><stop offset="1" stop-color="#000000" stop-opacity="0.5"/></radialGradient><filter id="eShadow" x="-40%" y="-40%" width="180%" height="180%"><feDropShadow dx="0" dy="12" stdDeviation="14" flood-color="#000000" flood-opacity="0.55"/></filter><linearGradient id="eyeG" x1="0" y1="0" x2="0" y2="1"><stop offset="0" stop-color="#fff6cf"/><stop offset="0.45" stop-color="#ffd86b"/><stop offset="1" stop-color="#9a720f"/></linearGradient><radialGradient id="iris" cx="0.4" cy="0.35" r="0.8"><stop offset="0" stop-color="#9fd8ff"/><stop offset="0.45" stop-color="#1f6fd0"/><stop offset="1" stop-color="#0a2050"/></radialGradient></defs>
<g filter="url(#eShadow)">
  <rect x="20" y="18" width="472" height="472" rx="40" fill="url(#sand)" stroke="#5e4a1e" stroke-width="4"/>
  <rect x="34" y="32" width="444" height="444" rx="32" fill="none" stroke="url(#egGold)" stroke-width="7"/>
  <rect x="52" y="50" width="408" height="408" rx="24" fill="url(#epanel)"/>
  <rect x="52" y="50" width="408" height="408" rx="24" fill="url(#evig)"/>
  <rect x="52" y="50" width="408" height="408" rx="24" fill="none" stroke="#2b2010" stroke-width="3" opacity="0.7"/>
  <circle cx="84" cy="40" r="5" fill="#7a5a10"/><circle cx="84" cy="472" r="5" fill="#7a5a10"/><circle cx="142" cy="40" r="5" fill="#7a5a10"/><circle cx="142" cy="472" r="5" fill="#7a5a10"/><circle cx="200" cy="40" r="5" fill="#7a5a10"/><circle cx="200" cy="472" r="5" fill="#7a5a10"/><circle cx="258" cy="40" r="5" fill="#7a5a10"/><circle cx="258" cy="472" r="5" fill="#7a5a10"/><circle cx="316" cy="40" r="5" fill="#7a5a10"/><circle cx="316" cy="472" r="5" fill="#7a5a10"/><circle cx="374" cy="40" r="5" fill="#7a5a10"/><circle cx="374" cy="472" r="5" fill="#7a5a10"/><circle cx="432" cy="40" r="5" fill="#7a5a10"/><circle cx="432" cy="472" r="5" fill="#7a5a10"/>
  <path d="M116,180 Q256,96 396,180" fill="none" stroke="#4a3508" stroke-width="33" stroke-linecap="round"/><path d="M136,236 Q256,160 376,236 Q256,308 136,236 Z" fill="none" stroke="#4a3508" stroke-width="25" stroke-linecap="round"/><path d="M134,242 L96,228" fill="none" stroke="#4a3508" stroke-width="25" stroke-linecap="round"/><path d="M196,288 L182,398" fill="none" stroke="#4a3508" stroke-width="27" stroke-linecap="round"/><path d="M312,282 Q372,344 332,380 Q300,394 296,360" fill="none" stroke="#4a3508" stroke-width="27" stroke-linecap="round"/><path d="M136,236 Q256,160 376,236 Q256,308 136,236 Z" fill="#10204a"/><path d="M116,180 Q256,96 396,180" fill="none" stroke="url(#eyeG)" stroke-width="26" stroke-linecap="round"/><path d="M136,236 Q256,160 376,236 Q256,308 136,236 Z" fill="none" stroke="url(#eyeG)" stroke-width="18" stroke-linecap="round"/><path d="M134,242 L96,228" fill="none" stroke="url(#eyeG)" stroke-width="18" stroke-linecap="round"/><path d="M196,288 L182,398" fill="none" stroke="url(#eyeG)" stroke-width="20" stroke-linecap="round"/><path d="M312,282 Q372,344 332,380 Q300,394 296,360" fill="none" stroke="url(#eyeG)" stroke-width="20" stroke-linecap="round"/><circle cx="256" cy="234" r="52" fill="url(#iris)" stroke="url(#eyeG)" stroke-width="10"/><circle cx="256" cy="234" r="20" fill="#06122e"/><circle cx="240" cy="216" r="11" fill="#ffffff" opacity="0.9"/><path d="M366 142 Q368.52 157.48 384 160 Q368.52 162.52 366 178 Q363.48 162.52 348 160 Q363.48 157.48 366 142Z" fill="#ffffff" opacity="0.9"/>
  <path d="M68,136 Q256,54 444,136 L444,88 Q444,66 422,66 L90,66 Q68,66 68,88 Z" fill="#fff3d0" opacity="0.07"/>
</g></svg>