<svg xmlns="http://www.w3.org/2000/svg" width="512" height="512" viewBox="0 0 512 512"><defs><linearGradient id="sand" x1="0" y1="0" x2="0" y2="1"><stop offset="0" stop-color="#efdcae"/><stop offset="0.45" stop-color="#d3b377"/><stop offset="1" stop-color="#8a6b35"/></linearGradient><linearGradient id="egGold" x1="0" y1="0" x2="0" y2="1"><stop offset="0" stop-color="#fff6cf"/><stop offset="0.28" stop-color="#ffd86b"/><stop offset="0.52" stop-color="#fff3b0"/><stop offset="0.75" stop-color="#c89627"/><stop offset="1" stop-color="#7a5a10"/></linearGradient><radialGradient id="epanel" cx="0.5" cy="0.36" r="0.85"><stop offset="0" stop-color="#6d948f"/><stop offset="0.55" stop-color="#1e5a52"/><stop offset="1" stop-color="#0f2d29"/></radialGradient><radialGradient id="evig" cx="0.5" cy="0.5" r="0.72"><stop offset="0.55" stop-color="#000000" stop-opacity="0"/><stop offset="1" stop-color="#000000" stop-opacity="0.5"/></radialGradient><filter id="eShadow" x="-40%" y="-40%" width="180%" height="180%"><feDropShadow dx="0" dy="12" stdDeviation="14" flood-color="#000000" flood-opacity="0.55"/></filter><linearGradient id="petalC" x1="0" y1="0" x2="0" y2="1"><stop offset="0" stop-color="#9fe8e0"/><stop offset="0.55" stop-color="#26a69a"/><stop offset="1" stop-color="#0c5a52"/></linearGradient><linearGradient id="petalS" x1="0" y1="0" x2="0" y2="1"><stop offset="0" stop-color="#7ad4ca"/><stop offset="0.6" stop-color="#1c8a7e"/><stop offset="1" stop-color="#0a4a44"/></linearGradient><linearGradient id="lotusBase" x1="0" y1="0" x2="0" y2="1"><stop offset="0" stop-color="#ffd86b"/><stop offset="1" stop-color="#8a6512"/></linearGradient></defs>
<g filter="url(#eShadow)">
  <rect x="20" y="18" width="472" height="472" rx="40" fill="url(#sand)" stroke="#5e4a1e" stroke-width="4"/>
  <rect x="34" y="32" width="444" height="444" rx="32" fill="none" stroke="url(#egGold)" stroke-width="7"/>
  <rect x="52" y="50" width="408" height="408" rx="24" fill="url(#epanel)"/>
  <rect x="52" y="50" width="408" height="408" rx="24" fill="url(#evig)"/>
  <rect x="52" y="50" width="408" height="408" rx="24" fill="none" stroke="#2b2010" stroke-width="3" opacity="0.7"/>
  <circle cx="84" cy="40" r="5" fill="#7a5a10"/><circle cx="84" cy="472" r="5" fill="#7a5a10"/><circle cx="142" cy="40" r="5" fill="#7a5a10"/><circle cx="142" cy="472" r="5" fill="#7a5a10"/><circle cx="200" cy="40" r="5" fill="#7a5a10"/><circle cx="200" cy="472" r="5" fill="#7a5a10"/><circle cx="258" cy="40" r="5" fill="#7a5a10"/><circle cx="258" cy="472" r="5" fill="#7a5a10"/><circle cx="316" cy="40" r="5" fill="#7a5a10"/><circle cx="316" cy="472" r="5" fill="#7a5a10"/><circle cx="374" cy="40" r="5" fill="#7a5a10"/><circle cx="374" cy="472" r="5" fill="#7a5a10"/><circle cx="432" cy="40" r="5" fill="#7a5a10"/><circle cx="432" cy="472" r="5" fill="#7a5a10"/>
  <g transform="rotate(-52.7 162.1 191.8)"><ellipse cx="162.1" cy="191.8" rx="42" ry="96" fill="url(#petalS)" stroke="#0a4a44" stroke-width="3"/><ellipse cx="150.1" cy="161.8" rx="10" ry="40" fill="#ffffff" opacity="0.3"/></g><g transform="rotate(52.7 349.9 191.8)"><ellipse cx="349.9" cy="191.8" rx="42" ry="96" fill="url(#petalS)" stroke="#0a4a44" stroke-width="3"/><ellipse cx="337.9" cy="161.8" rx="10" ry="40" fill="#ffffff" opacity="0.3"/></g><g transform="rotate(-26.4 203.6 164.0)"><ellipse cx="203.6" cy="164.0" rx="42" ry="96" fill="url(#petalS)" stroke="#0a4a44" stroke-width="3"/><ellipse cx="191.6" cy="134.0" rx="10" ry="40" fill="#ffffff" opacity="0.3"/></g><g transform="rotate(26.4 308.4 164.0)"><ellipse cx="308.4" cy="164.0" rx="42" ry="96" fill="url(#petalS)" stroke="#0a4a44" stroke-width="3"/><ellipse cx="296.4" cy="134.0" rx="10" ry="40" fill="#ffffff" opacity="0.3"/></g><g transform="rotate(0.0 256.0 154.0)"><ellipse cx="256.0" cy="154.0" rx="52" ry="118" fill="url(#petalC)" stroke="#0a4a44" stroke-width="3"/><ellipse cx="244.0" cy="124.0" rx="10" ry="56" fill="#ffffff" opacity="0.3"/></g><path d="M186,330 L326,330 L296,420 L216,420 Z" fill="url(#lotusBase)" stroke="#6b4e0a" stroke-width="4"/><line x1="216" y1="344" x2="296" y2="344" stroke="#8a6512" stroke-width="5" opacity="0.8"/><line x1="226" y1="370" x2="286" y2="370" stroke="#8a6512" stroke-width="5" opacity="0.8"/><path d="M256 130 Q258.52 145.48 274 148 Q258.52 150.52 256 166 Q253.48 150.52 238 148 Q253.48 145.48 256 130Z" fill="#ffffff" opacity="0.9"/>
  <path d="M68,136 Q256,54 444,136 L444,88 Q444,66 422,66 L90,66 Q68,66 68,88 Z" fill="#fff3d0" opacity="0.07"/>
</g></svg>