<svg xmlns="http://www.w3.org/2000/svg" width="512" height="512" viewBox="0 0 512 512"><defs><linearGradient id="sand" x1="0" y1="0" x2="0" y2="1"><stop offset="0" stop-color="#efdcae"/><stop offset="0.45" stop-color="#d3b377"/><stop offset="1" stop-color="#8a6b35"/></linearGradient><linearGradient id="egGold" x1="0" y1="0" x2="0" y2="1"><stop offset="0" stop-color="#fff6cf"/><stop offset="0.28" stop-color="#ffd86b"/><stop offset="0.52" stop-color="#fff3b0"/><stop offset="0.75" stop-color="#c89627"/><stop offset="1" stop-color="#7a5a10"/></linearGradient><radialGradient id="epanel" cx="0.5" cy="0.36" r="0.85"><stop offset="0" stop-color="#897a5e"/><stop offset="0.55" stop-color="#4a3208"/><stop offset="1" stop-color="#251904"/></radialGradient><radialGradient id="evig" cx="0.5" cy="0.5" r="0.72"><stop offset="0.55" stop-color="#000000" stop-opacity="0"/><stop offset="1" stop-color="#000000" stop-opacity="0.5"/></radialGradient><filter id="eShadow" x="-40%" y="-40%" width="180%" height="180%"><feDropShadow dx="0" dy="12" stdDeviation="14" flood-color="#000000" flood-opacity="0.55"/></filter><linearGradient id="nemes" x1="0" y1="0" x2="1" y2="0"><stop offset="0" stop-color="#ffd86b"/><stop offset="0.12" stop-color="#ffd86b"/><stop offset="0.12" stop-color="#1f4fa0"/><stop offset="0.24" stop-color="#1f4fa0"/><stop offset="0.24" stop-color="#ffd86b"/><stop offset="0.36" stop-color="#ffd86b"/><stop offset="0.36" stop-color="#1f4fa0"/><stop offset="0.48" stop-color="#1f4fa0"/><stop offset="0.48" stop-color="#ffd86b"/><stop offset="0.6" stop-color="#ffd86b"/><stop offset="0.6" stop-color="#1f4fa0"/><stop offset="0.72" stop-color="#1f4fa0"/><stop offset="0.72" stop-color="#ffd86b"/><stop offset="0.84" stop-color="#ffd86b"/><stop offset="0.84" stop-color="#1f4fa0"/><stop offset="1" stop-color="#1f4fa0"/></linearGradient><radialGradient id="face" cx="0.42" cy="0.35" r="0.85"><stop offset="0" stop-color="#ffe9a0"/><stop offset="0.55" stop-color="#e8b54a"/><stop offset="1" stop-color="#9a6a14"/></radialGradient><linearGradient id="phG" x1="0" y1="0" x2="0" y2="1"><stop offset="0" stop-color="#fff6cf"/><stop offset="0.5" stop-color="#ffd86b"/><stop offset="1" stop-color="#8a6512"/></linearGradient></defs>
<g filter="url(#eShadow)">
  <rect x="20" y="18" width="472" height="472" rx="40" fill="url(#sand)" stroke="#5e4a1e" stroke-width="4"/>
  <rect x="34" y="32" width="444" height="444" rx="32" fill="none" stroke="url(#egGold)" stroke-width="7"/>
  <rect x="52" y="50" width="408" height="408" rx="24" fill="url(#epanel)"/>
  <rect x="52" y="50" width="408" height="408" rx="24" fill="url(#evig)"/>
  <rect x="52" y="50" width="408" height="408" rx="24" fill="none" stroke="#2b2010" stroke-width="3" opacity="0.7"/>
  <circle cx="84" cy="40" r="5" fill="#7a5a10"/><circle cx="84" cy="472" r="5" fill="#7a5a10"/><circle cx="142" cy="40" r="5" fill="#7a5a10"/><circle cx="142" cy="472" r="5" fill="#7a5a10"/><circle cx="200" cy="40" r="5" fill="#7a5a10"/><circle cx="200" cy="472" r="5" fill="#7a5a10"/><circle cx="258" cy="40" r="5" fill="#7a5a10"/><circle cx="258" cy="472" r="5" fill="#7a5a10"/><circle cx="316" cy="40" r="5" fill="#7a5a10"/><circle cx="316" cy="472" r="5" fill="#7a5a10"/><circle cx="374" cy="40" r="5" fill="#7a5a10"/><circle cx="374" cy="472" r="5" fill="#7a5a10"/><circle cx="432" cy="40" r="5" fill="#7a5a10"/><circle cx="432" cy="472" r="5" fill="#7a5a10"/>
  <g transform="translate(4,10)" opacity="0.5"><path d="M150,432 L150,250 Q150,118 256,108 Q362,118 362,250 L362,432 L296,432 L296,330 Q256,300 216,330 L216,432 Z" fill="#000000"/></g><path d="M150,432 L150,250 Q150,118 256,108 Q362,118 362,250 L362,432 L296,432 L296,330 Q256,300 216,330 L216,432 Z" fill="url(#nemes)" stroke="#143468" stroke-width="5"/><path d="M174,150 Q256,118 338,150 L338,182 Q256,150 174,182 Z" fill="url(#phG)" stroke="#6b4e0a" stroke-width="3"/><path d="M246,84 Q238,108 250,128 Q262,116 258,96 Q268,86 262,72 Z" fill="url(#phG)" stroke="#6b4e0a" stroke-width="3"/><ellipse cx="256" cy="262" rx="72" ry="88" fill="url(#face)"/><path d="M222,238 q16,-12 32,0" fill="none" stroke="#5e3d06" stroke-width="7" stroke-linecap="round"/><path d="M258,238 q16,-12 32,0" fill="none" stroke="#5e3d06" stroke-width="7" stroke-linecap="round"/><ellipse cx="238" cy="252" rx="13" ry="7" fill="#171717"/><ellipse cx="274" cy="252" rx="13" ry="7" fill="#171717"/><path d="M252,268 L248,296 L264,296" fill="none" stroke="#9a6a14" stroke-width="5" stroke-linecap="round"/><path d="M236,316 Q256,328 276,316" fill="none" stroke="#7a4e0e" stroke-width="6" stroke-linecap="round"/><rect x="243" y="346" width="26" height="74" rx="10" fill="url(#phG)" stroke="#6b4e0a" stroke-width="3"/><line x1="243" y1="366" x2="269" y2="366" stroke="#6b4e0a" stroke-width="4"/><line x1="243" y1="386" x2="269" y2="386" stroke="#6b4e0a" stroke-width="4"/><ellipse cx="216" cy="178" rx="34" ry="56" fill="#ffffff" opacity="0.12" transform="rotate(18 216 178)"/><path d="M330 126 Q332.24 139.76 346 142 Q332.24 144.24 330 158 Q327.76 144.24 314 142 Q327.76 139.76 330 126Z" fill="#ffffff" opacity="0.85"/>
  <path d="M68,136 Q256,54 444,136 L444,88 Q444,66 422,66 L90,66 Q68,66 68,88 Z" fill="#fff3d0" opacity="0.07"/>
</g></svg>