<svg xmlns="http://www.w3.org/2000/svg" width="512" height="512" viewBox="0 0 512 512"><defs><linearGradient id="sand" x1="0" y1="0" x2="0" y2="1"><stop offset="0" stop-color="#efdcae"/><stop offset="0.45" stop-color="#d3b377"/><stop offset="1" stop-color="#8a6b35"/></linearGradient><linearGradient id="egGold" x1="0" y1="0" x2="0" y2="1"><stop offset="0" stop-color="#fff6cf"/><stop offset="0.28" stop-color="#ffd86b"/><stop offset="0.52" stop-color="#fff3b0"/><stop offset="0.75" stop-color="#c89627"/><stop offset="1" stop-color="#7a5a10"/></linearGradient><radialGradient id="epanel" cx="0.5" cy="0.36" r="0.85"><stop offset="0" stop-color="#7a7261"/><stop offset="0.55" stop-color="#33260c"/><stop offset="1" stop-color="#1a1306"/></radialGradient><radialGradient id="evig" cx="0.5" cy="0.5" r="0.72"><stop offset="0.55" stop-color="#000000" stop-opacity="0"/><stop offset="1" stop-color="#000000" stop-opacity="0.5"/></radialGradient><filter id="eShadow" x="-40%" y="-40%" width="180%" height="180%"><feDropShadow dx="0" dy="12" stdDeviation="14" flood-color="#000000" flood-opacity="0.55"/></filter><linearGradient id="pyrL" x1="0" y1="0" x2="0" y2="1"><stop offset="0" stop-color="#ffe9a0"/><stop offset="0.6" stop-color="#d9a94e"/><stop offset="1" stop-color="#9a6a14"/></linearGradient><linearGradient id="pyrD" x1="0" y1="0" x2="0" y2="1"><stop offset="0" stop-color="#8a6512"/><stop offset="1" stop-color="#4a3208"/></linearGradient><radialGradient id="cap" cx="0.45" cy="0.4" r="0.8"><stop offset="0" stop-color="#ffffff"/><stop offset="0.4" stop-color="#ffe98a"/><stop offset="1" stop-color="#ffae2b"/></radialGradient><filter id="capGlow" x="-60%" y="-60%" width="220%" height="220%"><feDropShadow dx="0" dy="0" stdDeviation="14" flood-color="#ffd86b" flood-opacity="0.95"/></filter></defs>
<g filter="url(#eShadow)">
  <rect x="20" y="18" width="472" height="472" rx="40" fill="url(#sand)" stroke="#5e4a1e" stroke-width="4"/>
  <rect x="34" y="32" width="444" height="444" rx="32" fill="none" stroke="url(#egGold)" stroke-width="7"/>
  <rect x="52" y="50" width="408" height="408" rx="24" fill="url(#epanel)"/>
  <rect x="52" y="50" width="408" height="408" rx="24" fill="url(#evig)"/>
  <rect x="52" y="50" width="408" height="408" rx="24" fill="none" stroke="#2b2010" stroke-width="3" opacity="0.7"/>
  <circle cx="84" cy="40" r="5" fill="#7a5a10"/><circle cx="84" cy="472" r="5" fill="#7a5a10"/><circle cx="142" cy="40" r="5" fill="#7a5a10"/><circle cx="142" cy="472" r="5" fill="#7a5a10"/><circle cx="200" cy="40" r="5" fill="#7a5a10"/><circle cx="200" cy="472" r="5" fill="#7a5a10"/><circle cx="258" cy="40" r="5" fill="#7a5a10"/><circle cx="258" cy="472" r="5" fill="#7a5a10"/><circle cx="316" cy="40" r="5" fill="#7a5a10"/><circle cx="316" cy="472" r="5" fill="#7a5a10"/><circle cx="374" cy="40" r="5" fill="#7a5a10"/><circle cx="374" cy="472" r="5" fill="#7a5a10"/><circle cx="432" cy="40" r="5" fill="#7a5a10"/><circle cx="432" cy="472" r="5" fill="#7a5a10"/>
  <polygon points="256,110 98,404 292,404" fill="url(#pyrL)" stroke="#6e4a0c" stroke-width="4"/><polygon points="256,110 292,404 414,404" fill="url(#pyrD)" stroke="#4a3208" stroke-width="4"/><line x1="225.13702623906704" y1="167.42857142857144" x2="263.0320699708455" y2="167.42857142857144" stroke="#6e4a0c" stroke-width="3" opacity="0.4"/><line x1="203.9475218658892" y1="206.85714285714286" x2="267.8600583090379" y2="206.85714285714286" stroke="#6e4a0c" stroke-width="3" opacity="0.4"/><line x1="182.75801749271136" y1="246.28571428571428" x2="272.6880466472303" y2="246.28571428571428" stroke="#6e4a0c" stroke-width="3" opacity="0.4"/><line x1="161.56851311953352" y1="285.7142857142857" x2="277.5160349854227" y2="285.7142857142857" stroke="#6e4a0c" stroke-width="3" opacity="0.4"/><line x1="140.37900874635568" y1="325.1428571428571" x2="282.34402332361515" y2="325.1428571428571" stroke="#6e4a0c" stroke-width="3" opacity="0.4"/><line x1="119.18950437317787" y1="364.57142857142856" x2="287.1720116618076" y2="364.57142857142856" stroke="#6e4a0c" stroke-width="3" opacity="0.4"/><g filter="url(#capGlow)"><polygon points="256,110 222,174 290,174" fill="url(#cap)"/></g><polygon points="256,110 222,174 290,174" fill="none" stroke="#b27812" stroke-width="3"/><text x="256" y="452" font-family="'Arial Black','Helvetica Neue',Arial,sans-serif" font-size="44" font-weight="900" text-anchor="middle" letter-spacing="4" stroke="#3a2608" stroke-width="8" paint-order="stroke" stroke-linejoin="round" fill="#ffe98a">SCATTER</text><path d="M256 82 Q258.8 99.2 276 102 Q258.8 104.8 256 122 Q253.2 104.8 236 102 Q253.2 99.2 256 82Z" fill="#ffffff" opacity="0.95"/><path d="M196 288 Q197.68 298.32 208 300 Q197.68 301.68 196 312 Q194.32 301.68 184 300 Q194.32 298.32 196 288Z" fill="#ffffff" opacity="0.6"/>
  <path d="M68,136 Q256,54 444,136 L444,88 Q444,66 422,66 L90,66 Q68,66 68,88 Z" fill="#fff3d0" opacity="0.07"/>
</g></svg>