<svg xmlns="http://www.w3.org/2000/svg" width="512" height="512" viewBox="0 0 512 512"><defs><linearGradient id="sand" x1="0" y1="0" x2="0" y2="1"><stop offset="0" stop-color="#efdcae"/><stop offset="0.45" stop-color="#d3b377"/><stop offset="1" stop-color="#8a6b35"/></linearGradient><linearGradient id="egGold" x1="0" y1="0" x2="0" y2="1"><stop offset="0" stop-color="#fff6cf"/><stop offset="0.28" stop-color="#ffd86b"/><stop offset="0.52" stop-color="#fff3b0"/><stop offset="0.75" stop-color="#c89627"/><stop offset="1" stop-color="#7a5a10"/></linearGradient><radialGradient id="epanel" cx="0.5" cy="0.36" r="0.85"><stop offset="0" stop-color="#638b95"/><stop offset="0.55" stop-color="#0f4c5c"/><stop offset="1" stop-color="#08262e"/></radialGradient><radialGradient id="evig" cx="0.5" cy="0.5" r="0.72"><stop offset="0.55" stop-color="#000000" stop-opacity="0"/><stop offset="1" stop-color="#000000" stop-opacity="0.5"/></radialGradient><filter id="eShadow" x="-40%" y="-40%" width="180%" height="180%"><feDropShadow dx="0" dy="12" stdDeviation="14" flood-color="#000000" flood-opacity="0.55"/></filter><radialGradient id="scarB" cx="0.4" cy="0.32" r="0.85"><stop offset="0" stop-color="#7ff2e4"/><stop offset="0.45" stop-color="#16b8a4"/><stop offset="1" stop-color="#063f38"/></radialGradient><linearGradient id="scarG" x1="0" y1="0" x2="0" y2="1"><stop offset="0" stop-color="#fff6cf"/><stop offset="0.5" stop-color="#ffd86b"/><stop offset="1" stop-color="#8a6512"/></linearGradient><radialGradient id="sunB" cx="0.4" cy="0.35" r="0.8"><stop offset="0" stop-color="#fff3b0"/><stop offset="0.5" stop-color="#ff9d3d"/><stop offset="1" stop-color="#c84e08"/></radialGradient><filter id="sunGlow" x="-60%" y="-60%" width="220%" height="220%"><feDropShadow dx="0" dy="0" stdDeviation="12" flood-color="#ffae2b" flood-opacity="0.9"/></filter></defs>
<g filter="url(#eShadow)">
  <rect x="20" y="18" width="472" height="472" rx="40" fill="url(#sand)" stroke="#5e4a1e" stroke-width="4"/>
  <rect x="34" y="32" width="444" height="444" rx="32" fill="none" stroke="url(#egGold)" stroke-width="7"/>
  <rect x="52" y="50" width="408" height="408" rx="24" fill="url(#epanel)"/>
  <rect x="52" y="50" width="408" height="408" rx="24" fill="url(#evig)"/>
  <rect x="52" y="50" width="408" height="408" rx="24" fill="none" stroke="#2b2010" stroke-width="3" opacity="0.7"/>
  <circle cx="84" cy="40" r="5" fill="#7a5a10"/><circle cx="84" cy="472" r="5" fill="#7a5a10"/><circle cx="142" cy="40" r="5" fill="#7a5a10"/><circle cx="142" cy="472" r="5" fill="#7a5a10"/><circle cx="200" cy="40" r="5" fill="#7a5a10"/><circle cx="200" cy="472" r="5" fill="#7a5a10"/><circle cx="258" cy="40" r="5" fill="#7a5a10"/><circle cx="258" cy="472" r="5" fill="#7a5a10"/><circle cx="316" cy="40" r="5" fill="#7a5a10"/><circle cx="316" cy="472" r="5" fill="#7a5a10"/><circle cx="374" cy="40" r="5" fill="#7a5a10"/><circle cx="374" cy="472" r="5" fill="#7a5a10"/><circle cx="432" cy="40" r="5" fill="#7a5a10"/><circle cx="432" cy="472" r="5" fill="#7a5a10"/>
  <g filter="url(#sunGlow)"><circle cx="256" cy="126" r="40" fill="url(#sunB)"/></g><path d="M186,268 q-56,-30 -88,-10.399999999999999" fill="none" stroke="url(#scarG)" stroke-width="14" stroke-linecap="round"/><path d="M186,296 q-56,-16 -88,13.4" fill="none" stroke="url(#scarG)" stroke-width="14" stroke-linecap="round"/><path d="M186,322 q-56,-3 -88,35.5" fill="none" stroke="url(#scarG)" stroke-width="14" stroke-linecap="round"/><path d="M326,268 q56,-30 88,-10.399999999999999" fill="none" stroke="url(#scarG)" stroke-width="14" stroke-linecap="round"/><path d="M326,296 q56,-16 88,13.4" fill="none" stroke="url(#scarG)" stroke-width="14" stroke-linecap="round"/><path d="M326,322 q56,-3 88,35.5" fill="none" stroke="url(#scarG)" stroke-width="14" stroke-linecap="round"/><path d="M256,176 a44,40 0 1 1 -0.1,0 Z" fill="url(#scarB)" stroke="#06352e" stroke-width="4"/><ellipse cx="256" cy="312" rx="92" ry="86" fill="url(#scarB)" stroke="#06352e" stroke-width="5"/><line x1="256" y1="232" x2="256" y2="396" stroke="#06352e" stroke-width="5" opacity="0.8"/><path d="M188,266 Q256,292 324,266" fill="none" stroke="#06352e" stroke-width="4" opacity="0.7"/><ellipse cx="218" cy="288" rx="20" ry="12" fill="#b2fff4" opacity="0.4"/><circle cx="240" cy="196" r="6" fill="#063f38"/><circle cx="272" cy="196" r="6" fill="#063f38"/><path d="M238 108 Q239.96 120.04 252 122 Q239.96 123.96 238 136 Q236.04 123.96 224 122 Q236.04 120.04 238 108Z" fill="#ffffff" opacity="0.9"/><path d="M300 335 Q301.82 346.18 313 348 Q301.82 349.82 300 361 Q298.18 349.82 287 348 Q298.18 346.18 300 335Z" fill="#ffffff" opacity="0.75"/>
  <path d="M68,136 Q256,54 444,136 L444,88 Q444,66 422,66 L90,66 Q68,66 68,88 Z" fill="#fff3d0" opacity="0.07"/>
</g></svg>