<svg xmlns="http://www.w3.org/2000/svg" width="512" height="512" viewBox="0 0 512 512"><defs><linearGradient id="sand" x1="0" y1="0" x2="0" y2="1"><stop offset="0" stop-color="#efdcae"/><stop offset="0.45" stop-color="#d3b377"/><stop offset="1" stop-color="#8a6b35"/></linearGradient><linearGradient id="egGold" x1="0" y1="0" x2="0" y2="1"><stop offset="0" stop-color="#fff6cf"/><stop offset="0.28" stop-color="#ffd86b"/><stop offset="0.52" stop-color="#fff3b0"/><stop offset="0.75" stop-color="#c89627"/><stop offset="1" stop-color="#7a5a10"/></linearGradient><radialGradient id="epanel" cx="0.5" cy="0.36" r="0.85"><stop offset="0" stop-color="#a9805d"/><stop offset="0.55" stop-color="#7a3b06"/><stop offset="1" stop-color="#3d1e03"/></radialGradient><radialGradient id="evig" cx="0.5" cy="0.5" r="0.72"><stop offset="0.55" stop-color="#000000" stop-opacity="0"/><stop offset="1" stop-color="#000000" stop-opacity="0.5"/></radialGradient><filter id="eShadow" x="-40%" y="-40%" width="180%" height="180%"><feDropShadow dx="0" dy="12" stdDeviation="14" flood-color="#000000" flood-opacity="0.55"/></filter><radialGradient id="sunW" cx="0.4" cy="0.35" r="0.8"><stop offset="0" stop-color="#fff3b0"/><stop offset="0.45" stop-color="#ffae2b"/><stop offset="1" stop-color="#c84e08"/></radialGradient><linearGradient id="phG2" x1="0" y1="0" x2="0" y2="1"><stop offset="0" stop-color="#fff6cf"/><stop offset="0.5" stop-color="#ffd86b"/><stop offset="1" stop-color="#8a6512"/></linearGradient><filter id="sunWGlow" x="-60%" y="-60%" width="220%" height="220%"><feDropShadow dx="0" dy="0" stdDeviation="16" flood-color="#ffae2b" flood-opacity="0.95"/></filter></defs>
<g filter="url(#eShadow)">
  <rect x="20" y="18" width="472" height="472" rx="40" fill="url(#sand)" stroke="#5e4a1e" stroke-width="4"/>
  <rect x="34" y="32" width="444" height="444" rx="32" fill="none" stroke="url(#egGold)" stroke-width="7"/>
  <rect x="52" y="50" width="408" height="408" rx="24" fill="url(#epanel)"/>
  <rect x="52" y="50" width="408" height="408" rx="24" fill="url(#evig)"/>
  <rect x="52" y="50" width="408" height="408" rx="24" fill="none" stroke="#2b2010" stroke-width="3" opacity="0.7"/>
  <circle cx="84" cy="40" r="5" fill="#7a5a10"/><circle cx="84" cy="472" r="5" fill="#7a5a10"/><circle cx="142" cy="40" r="5" fill="#7a5a10"/><circle cx="142" cy="472" r="5" fill="#7a5a10"/><circle cx="200" cy="40" r="5" fill="#7a5a10"/><circle cx="200" cy="472" r="5" fill="#7a5a10"/><circle cx="258" cy="40" r="5" fill="#7a5a10"/><circle cx="258" cy="472" r="5" fill="#7a5a10"/><circle cx="316" cy="40" r="5" fill="#7a5a10"/><circle cx="316" cy="472" r="5" fill="#7a5a10"/><circle cx="374" cy="40" r="5" fill="#7a5a10"/><circle cx="374" cy="472" r="5" fill="#7a5a10"/><circle cx="432" cy="40" r="5" fill="#7a5a10"/><circle cx="432" cy="472" r="5" fill="#7a5a10"/>
  <g transform="rotate(-18.0 202 196)"><rect x="195" y="196" width="14" height="96" rx="7" fill="url(#phG2)" stroke="#6b4e0a" stroke-width="2"/></g><g transform="rotate(-25.6 178 201.2)"><rect x="171" y="201.2" width="14" height="89" rx="7" fill="url(#phG2)" stroke="#6b4e0a" stroke-width="2"/></g><g transform="rotate(-33.2 154 206.4)"><rect x="147" y="206.4" width="14" height="83" rx="7" fill="url(#phG2)" stroke="#6b4e0a" stroke-width="2"/></g><g transform="rotate(-40.8 130 211.6)"><rect x="123" y="211.6" width="14" height="76" rx="7" fill="url(#phG2)" stroke="#6b4e0a" stroke-width="2"/></g><g transform="rotate(-48.4 106 216.8)"><rect x="99" y="216.8" width="14" height="69" rx="7" fill="url(#phG2)" stroke="#6b4e0a" stroke-width="2"/></g><g transform="rotate(-56.0 82 222)"><rect x="75" y="222" width="14" height="62" rx="7" fill="url(#phG2)" stroke="#6b4e0a" stroke-width="2"/></g><g transform="rotate(-18.0 202 212)"><rect x="195" y="212" width="14" height="74" rx="7" fill="#1f4fa0" stroke="#6b4e0a" stroke-width="2"/></g><g transform="rotate(-25.6 178 217.2)"><rect x="171" y="217.2" width="14" height="69" rx="7" fill="#1f4fa0" stroke="#6b4e0a" stroke-width="2"/></g><g transform="rotate(-33.2 154 222.4)"><rect x="147" y="222.4" width="14" height="64" rx="7" fill="#1f4fa0" stroke="#6b4e0a" stroke-width="2"/></g><g transform="rotate(-40.8 130 227.6)"><rect x="123" y="227.6" width="14" height="58" rx="7" fill="#1f4fa0" stroke="#6b4e0a" stroke-width="2"/></g><g transform="rotate(-48.4 106 232.8)"><rect x="99" y="232.8" width="14" height="53" rx="7" fill="#1f4fa0" stroke="#6b4e0a" stroke-width="2"/></g><g transform="rotate(-56.0 82 238)"><rect x="75" y="238" width="14" height="48" rx="7" fill="#1f4fa0" stroke="#6b4e0a" stroke-width="2"/></g><g transform="rotate(-18.0 202 228)"><rect x="195" y="228" width="14" height="52" rx="7" fill="url(#phG2)" stroke="#6b4e0a" stroke-width="2"/></g><g transform="rotate(-25.6 178 233.2)"><rect x="171" y="233.2" width="14" height="48" rx="7" fill="url(#phG2)" stroke="#6b4e0a" stroke-width="2"/></g><g transform="rotate(-33.2 154 238.4)"><rect x="147" y="238.4" width="14" height="45" rx="7" fill="url(#phG2)" stroke="#6b4e0a" stroke-width="2"/></g><g transform="rotate(-40.8 130 243.6)"><rect x="123" y="243.6" width="14" height="41" rx="7" fill="url(#phG2)" stroke="#6b4e0a" stroke-width="2"/></g><g transform="rotate(-48.4 106 248.8)"><rect x="99" y="248.8" width="14" height="37" rx="7" fill="url(#phG2)" stroke="#6b4e0a" stroke-width="2"/></g><g transform="rotate(-56.0 82 254)"><rect x="75" y="254" width="14" height="34" rx="7" fill="url(#phG2)" stroke="#6b4e0a" stroke-width="2"/></g><g transform="rotate(18.0 310 196)"><rect x="303" y="196" width="14" height="96" rx="7" fill="url(#phG2)" stroke="#6b4e0a" stroke-width="2"/></g><g transform="rotate(25.6 334 201.2)"><rect x="327" y="201.2" width="14" height="89" rx="7" fill="url(#phG2)" stroke="#6b4e0a" stroke-width="2"/></g><g transform="rotate(33.2 358 206.4)"><rect x="351" y="206.4" width="14" height="83" rx="7" fill="url(#phG2)" stroke="#6b4e0a" stroke-width="2"/></g><g transform="rotate(40.8 382 211.6)"><rect x="375" y="211.6" width="14" height="76" rx="7" fill="url(#phG2)" stroke="#6b4e0a" stroke-width="2"/></g><g transform="rotate(48.4 406 216.8)"><rect x="399" y="216.8" width="14" height="69" rx="7" fill="url(#phG2)" stroke="#6b4e0a" stroke-width="2"/></g><g transform="rotate(56.0 430 222)"><rect x="423" y="222" width="14" height="62" rx="7" fill="url(#phG2)" stroke="#6b4e0a" stroke-width="2"/></g><g transform="rotate(18.0 310 212)"><rect x="303" y="212" width="14" height="74" rx="7" fill="#1f4fa0" stroke="#6b4e0a" stroke-width="2"/></g><g transform="rotate(25.6 334 217.2)"><rect x="327" y="217.2" width="14" height="69" rx="7" fill="#1f4fa0" stroke="#6b4e0a" stroke-width="2"/></g><g transform="rotate(33.2 358 222.4)"><rect x="351" y="222.4" width="14" height="64" rx="7" fill="#1f4fa0" stroke="#6b4e0a" stroke-width="2"/></g><g transform="rotate(40.8 382 227.6)"><rect x="375" y="227.6" width="14" height="58" rx="7" fill="#1f4fa0" stroke="#6b4e0a" stroke-width="2"/></g><g transform="rotate(48.4 406 232.8)"><rect x="399" y="232.8" width="14" height="53" rx="7" fill="#1f4fa0" stroke="#6b4e0a" stroke-width="2"/></g><g transform="rotate(56.0 430 238)"><rect x="423" y="238" width="14" height="48" rx="7" fill="#1f4fa0" stroke="#6b4e0a" stroke-width="2"/></g><g transform="rotate(18.0 310 228)"><rect x="303" y="228" width="14" height="52" rx="7" fill="url(#phG2)" stroke="#6b4e0a" stroke-width="2"/></g><g transform="rotate(25.6 334 233.2)"><rect x="327" y="233.2" width="14" height="48" rx="7" fill="url(#phG2)" stroke="#6b4e0a" stroke-width="2"/></g><g transform="rotate(33.2 358 238.4)"><rect x="351" y="238.4" width="14" height="45" rx="7" fill="url(#phG2)" stroke="#6b4e0a" stroke-width="2"/></g><g transform="rotate(40.8 382 243.6)"><rect x="375" y="243.6" width="14" height="41" rx="7" fill="url(#phG2)" stroke="#6b4e0a" stroke-width="2"/></g><g transform="rotate(48.4 406 248.8)"><rect x="399" y="248.8" width="14" height="37" rx="7" fill="url(#phG2)" stroke="#6b4e0a" stroke-width="2"/></g><g transform="rotate(56.0 430 254)"><rect x="423" y="254" width="14" height="34" rx="7" fill="url(#phG2)" stroke="#6b4e0a" stroke-width="2"/></g><g filter="url(#sunWGlow)"><circle cx="256" cy="196" r="58" fill="url(#sunW)"/></g><circle cx="256" cy="196" r="58" fill="none" stroke="#8a4a08" stroke-width="5"/><circle cx="238" cy="178" r="14" fill="#ffffff" opacity="0.6"/><text x="256" y="408" font-family="'Arial Black','Helvetica Neue',Arial,sans-serif" font-size="86" font-weight="900" text-anchor="middle" letter-spacing="5" stroke="#3a2608" stroke-width="12" paint-order="stroke" stroke-linejoin="round" fill="url(#phG2)">WILD</text><path d="M256 114 Q258.52 129.48 274 132 Q258.52 134.52 256 150 Q253.48 134.52 238 132 Q253.48 129.48 256 114Z" fill="#ffffff" opacity="0.95"/>
  <path d="M68,136 Q256,54 444,136 L444,88 Q444,66 422,66 L90,66 Q68,66 68,88 Z" fill="#fff3d0" opacity="0.07"/>
</g></svg>