<svg xmlns="http://www.w3.org/2000/svg" width="512" height="512" viewBox="0 0 512 512"><defs><linearGradient id="gold" x1="0" y1="0" x2="0" y2="1"><stop offset="0" stop-color="#fff6cf"/><stop offset="0.28" stop-color="#ffd86b"/><stop offset="0.52" stop-color="#fff3b0"/><stop offset="0.75" stop-color="#c89627"/><stop offset="1" stop-color="#7a5a10"/></linearGradient><linearGradient id="goldEdge" x1="0" y1="0" x2="0" y2="1"><stop offset="0" stop-color="#fffbe2"/><stop offset="1" stop-color="#9c7a1a"/></linearGradient><radialGradient id="panel" cx="0.5" cy="0.38" r="0.85"><stop offset="0" stop-color="#7299a3"/><stop offset="0.55" stop-color="#0c4f60"/><stop offset="1" stop-color="#05242b"/></radialGradient><radialGradient id="vig" cx="0.5" cy="0.5" r="0.72"><stop offset="0.55" stop-color="#000000" stop-opacity="0"/><stop offset="1" stop-color="#000000" stop-opacity="0.55"/></radialGradient><filter id="tileShadow" x="-40%" y="-40%" width="180%" height="180%"><feDropShadow dx="0" dy="12" stdDeviation="14" flood-color="#000000" flood-opacity="0.55"/></filter><linearGradient id="triFace" x1="0" y1="0" x2="0" y2="1"><stop offset="0" stop-color="#fff6cf"/><stop offset="0.4" stop-color="#ffd86b"/><stop offset="0.8" stop-color="#c89627"/><stop offset="1" stop-color="#8a6512"/></linearGradient><filter id="soft6" x="-60%" y="-60%" width="220%" height="220%"><feGaussianBlur stdDeviation="6"/></filter></defs>
<g filter="url(#tileShadow)">
  <rect x="20" y="18" width="472" height="472" rx="58" fill="url(#gold)" stroke="#5a430e" stroke-width="4"/>
  <rect x="36" y="34" width="440" height="440" rx="46" fill="none" stroke="url(#goldEdge)" stroke-width="3" opacity="0.8"/>
  <rect x="54" y="52" width="404" height="404" rx="34" fill="url(#panel)"/>
  <rect x="54" y="52" width="404" height="404" rx="34" fill="url(#vig)"/>
  <rect x="54" y="52" width="404" height="404" rx="34" fill="none" stroke="#2b2010" stroke-width="3" opacity="0.7"/>
  <g filter="url(#soft6)" opacity="0.7"><path d="M120,388 Q176,354 232,388 T344,388 T420,380" fill="none" stroke="#62e0e8" stroke-width="11" stroke-linecap="round" opacity="0.5"/></g><path d="M120,372 Q176,338 232,372 T344,372 T420,364" fill="none" stroke="#62e0e8" stroke-width="11" stroke-linecap="round" opacity="0.85"/><path d="M120,412 Q176,378 232,412 T344,412 T420,404" fill="none" stroke="#62e0e8" stroke-width="11" stroke-linecap="round" opacity="0.55"/><g transform="translate(4.05,9)"><path d="M248,150 L248,420 L264,420 L264,150 Z" fill="#6b4e0a"/><path d="M256,70 L236,118 L248,118 L248,182 L264,182 L264,118 L276,118 Z" fill="#6b4e0a"/><path d="M170,96 C162,160 176,196 232,204 L236,188 C192,178 182,150 188,104 L210,116 L196,72 Z" fill="#6b4e0a"/><path d="M342,96 C350,160 336,196 280,204 L276,188 C320,178 330,150 324,104 L302,116 L316,72 Z" fill="#6b4e0a"/><rect x="200" y="196" width="112" height="16" rx="8" fill="#6b4e0a"/><circle cx="256" cy="438" r="20" fill="#6b4e0a"/></g><g transform="translate(3.60,8)"><path d="M248,150 L248,420 L264,420 L264,150 Z" fill="#6b4e0a"/><path d="M256,70 L236,118 L248,118 L248,182 L264,182 L264,118 L276,118 Z" fill="#6b4e0a"/><path d="M170,96 C162,160 176,196 232,204 L236,188 C192,178 182,150 188,104 L210,116 L196,72 Z" fill="#6b4e0a"/><path d="M342,96 C350,160 336,196 280,204 L276,188 C320,178 330,150 324,104 L302,116 L316,72 Z" fill="#6b4e0a"/><rect x="200" y="196" width="112" height="16" rx="8" fill="#6b4e0a"/><circle cx="256" cy="438" r="20" fill="#6b4e0a"/></g><g transform="translate(3.15,7)"><path d="M248,150 L248,420 L264,420 L264,150 Z" fill="#6b4e0a"/><path d="M256,70 L236,118 L248,118 L248,182 L264,182 L264,118 L276,118 Z" fill="#6b4e0a"/><path d="M170,96 C162,160 176,196 232,204 L236,188 C192,178 182,150 188,104 L210,116 L196,72 Z" fill="#6b4e0a"/><path d="M342,96 C350,160 336,196 280,204 L276,188 C320,178 330,150 324,104 L302,116 L316,72 Z" fill="#6b4e0a"/><rect x="200" y="196" width="112" height="16" rx="8" fill="#6b4e0a"/><circle cx="256" cy="438" r="20" fill="#6b4e0a"/></g><g transform="translate(2.70,6)"><path d="M248,150 L248,420 L264,420 L264,150 Z" fill="#6b4e0a"/><path d="M256,70 L236,118 L248,118 L248,182 L264,182 L264,118 L276,118 Z" fill="#6b4e0a"/><path d="M170,96 C162,160 176,196 232,204 L236,188 C192,178 182,150 188,104 L210,116 L196,72 Z" fill="#6b4e0a"/><path d="M342,96 C350,160 336,196 280,204 L276,188 C320,178 330,150 324,104 L302,116 L316,72 Z" fill="#6b4e0a"/><rect x="200" y="196" width="112" height="16" rx="8" fill="#6b4e0a"/><circle cx="256" cy="438" r="20" fill="#6b4e0a"/></g><g transform="translate(2.25,5)"><path d="M248,150 L248,420 L264,420 L264,150 Z" fill="#6b4e0a"/><path d="M256,70 L236,118 L248,118 L248,182 L264,182 L264,118 L276,118 Z" fill="#6b4e0a"/><path d="M170,96 C162,160 176,196 232,204 L236,188 C192,178 182,150 188,104 L210,116 L196,72 Z" fill="#6b4e0a"/><path d="M342,96 C350,160 336,196 280,204 L276,188 C320,178 330,150 324,104 L302,116 L316,72 Z" fill="#6b4e0a"/><rect x="200" y="196" width="112" height="16" rx="8" fill="#6b4e0a"/><circle cx="256" cy="438" r="20" fill="#6b4e0a"/></g><g transform="translate(1.80,4)"><path d="M248,150 L248,420 L264,420 L264,150 Z" fill="#6b4e0a"/><path d="M256,70 L236,118 L248,118 L248,182 L264,182 L264,118 L276,118 Z" fill="#6b4e0a"/><path d="M170,96 C162,160 176,196 232,204 L236,188 C192,178 182,150 188,104 L210,116 L196,72 Z" fill="#6b4e0a"/><path d="M342,96 C350,160 336,196 280,204 L276,188 C320,178 330,150 324,104 L302,116 L316,72 Z" fill="#6b4e0a"/><rect x="200" y="196" width="112" height="16" rx="8" fill="#6b4e0a"/><circle cx="256" cy="438" r="20" fill="#6b4e0a"/></g><g transform="translate(1.35,3)"><path d="M248,150 L248,420 L264,420 L264,150 Z" fill="#6b4e0a"/><path d="M256,70 L236,118 L248,118 L248,182 L264,182 L264,118 L276,118 Z" fill="#6b4e0a"/><path d="M170,96 C162,160 176,196 232,204 L236,188 C192,178 182,150 188,104 L210,116 L196,72 Z" fill="#6b4e0a"/><path d="M342,96 C350,160 336,196 280,204 L276,188 C320,178 330,150 324,104 L302,116 L316,72 Z" fill="#6b4e0a"/><rect x="200" y="196" width="112" height="16" rx="8" fill="#6b4e0a"/><circle cx="256" cy="438" r="20" fill="#6b4e0a"/></g><g transform="translate(0.90,2)"><path d="M248,150 L248,420 L264,420 L264,150 Z" fill="#6b4e0a"/><path d="M256,70 L236,118 L248,118 L248,182 L264,182 L264,118 L276,118 Z" fill="#6b4e0a"/><path d="M170,96 C162,160 176,196 232,204 L236,188 C192,178 182,150 188,104 L210,116 L196,72 Z" fill="#6b4e0a"/><path d="M342,96 C350,160 336,196 280,204 L276,188 C320,178 330,150 324,104 L302,116 L316,72 Z" fill="#6b4e0a"/><rect x="200" y="196" width="112" height="16" rx="8" fill="#6b4e0a"/><circle cx="256" cy="438" r="20" fill="#6b4e0a"/></g><g transform="translate(0.45,1)"><path d="M248,150 L248,420 L264,420 L264,150 Z" fill="#6b4e0a"/><path d="M256,70 L236,118 L248,118 L248,182 L264,182 L264,118 L276,118 Z" fill="#6b4e0a"/><path d="M170,96 C162,160 176,196 232,204 L236,188 C192,178 182,150 188,104 L210,116 L196,72 Z" fill="#6b4e0a"/><path d="M342,96 C350,160 336,196 280,204 L276,188 C320,178 330,150 324,104 L302,116 L316,72 Z" fill="#6b4e0a"/><rect x="200" y="196" width="112" height="16" rx="8" fill="#6b4e0a"/><circle cx="256" cy="438" r="20" fill="#6b4e0a"/></g><path d="M248,150 L248,420 L264,420 L264,150 Z" fill="url(#triFace)"/><path d="M256,70 L236,118 L248,118 L248,182 L264,182 L264,118 L276,118 Z" fill="url(#triFace)"/><path d="M170,96 C162,160 176,196 232,204 L236,188 C192,178 182,150 188,104 L210,116 L196,72 Z" fill="url(#triFace)"/><path d="M342,96 C350,160 336,196 280,204 L276,188 C320,178 330,150 324,104 L302,116 L316,72 Z" fill="url(#triFace)"/><rect x="200" y="196" width="112" height="16" rx="8" fill="url(#triFace)"/><circle cx="256" cy="438" r="20" fill="url(#triFace)"/><rect x="250" y="156" width="5" height="258" fill="#fffbe2" opacity="0.55"/><path d="M256 56 Q259.08 74.92 278 78 Q259.08 81.08 256 100 Q252.92 81.08 234 78 Q252.92 74.92 256 56Z" fill="#ffffff" opacity="0.95"/><path d="M338 77 Q340.1 89.9 353 92 Q340.1 94.1 338 107 Q335.9 94.1 323 92 Q335.9 89.9 338 77Z" fill="#ffffff" opacity="0.8"/>
  <path d="M70,138 Q256,52 442,138 L442,90 Q442,68 420,68 L92,68 Q70,68 70,90 Z" fill="#ffffff" opacity="0.07"/>
  <circle cx="40" cy="38" r="17" fill="url(#gold)" stroke="#5a430e" stroke-width="2.5"/><circle cx="40" cy="38" r="8" fill="#fff3b0" stroke="#c89627" stroke-width="2"/><circle cx="472" cy="38" r="17" fill="url(#gold)" stroke="#5a430e" stroke-width="2.5"/><circle cx="472" cy="38" r="8" fill="#fff3b0" stroke="#c89627" stroke-width="2"/><circle cx="40" cy="470" r="17" fill="url(#gold)" stroke="#5a430e" stroke-width="2.5"/><circle cx="40" cy="470" r="8" fill="#fff3b0" stroke="#c89627" stroke-width="2"/><circle cx="472" cy="470" r="17" fill="url(#gold)" stroke="#5a430e" stroke-width="2.5"/><circle cx="472" cy="470" r="8" fill="#fff3b0" stroke="#c89627" stroke-width="2"/>
</g></svg>