<svg xmlns="http://www.w3.org/2000/svg" width="512" height="512" viewBox="0 0 512 512"><defs><linearGradient id="gold" x1="0" y1="0" x2="0" y2="1"><stop offset="0" stop-color="#fff6cf"/><stop offset="0.28" stop-color="#ffd86b"/><stop offset="0.52" stop-color="#fff3b0"/><stop offset="0.75" stop-color="#c89627"/><stop offset="1" stop-color="#7a5a10"/></linearGradient><linearGradient id="goldEdge" x1="0" y1="0" x2="0" y2="1"><stop offset="0" stop-color="#fffbe2"/><stop offset="1" stop-color="#9c7a1a"/></linearGradient><radialGradient id="panel" cx="0.5" cy="0.38" r="0.85"><stop offset="0" stop-color="#868d93"/><stop offset="0.55" stop-color="#2f3a45"/><stop offset="1" stop-color="#151a1f"/></radialGradient><radialGradient id="vig" cx="0.5" cy="0.5" r="0.72"><stop offset="0.55" stop-color="#000000" stop-opacity="0"/><stop offset="1" stop-color="#000000" stop-opacity="0.55"/></radialGradient><filter id="tileShadow" x="-40%" y="-40%" width="180%" height="180%"><feDropShadow dx="0" dy="12" stdDeviation="14" flood-color="#000000" flood-opacity="0.55"/></filter><linearGradient id="bladeFace" x1="0" y1="0" x2="1" y2="0"><stop offset="0" stop-color="#ffffff"/><stop offset="0.45" stop-color="#cdd9e4"/><stop offset="0.55" stop-color="#f4f9fd"/><stop offset="1" stop-color="#76828f"/></linearGradient><linearGradient id="hiltFace" x1="0" y1="0" x2="0" y2="1"><stop offset="0" stop-color="#fff6cf"/><stop offset="0.4" stop-color="#ffd86b"/><stop offset="1" stop-color="#8a6512"/></linearGradient></defs>
<g filter="url(#tileShadow)">
  <rect x="20" y="18" width="472" height="472" rx="58" fill="url(#gold)" stroke="#5a430e" stroke-width="4"/>
  <rect x="36" y="34" width="440" height="440" rx="46" fill="none" stroke="url(#goldEdge)" stroke-width="3" opacity="0.8"/>
  <rect x="54" y="52" width="404" height="404" rx="34" fill="url(#panel)"/>
  <rect x="54" y="52" width="404" height="404" rx="34" fill="url(#vig)"/>
  <rect x="54" y="52" width="404" height="404" rx="34" fill="none" stroke="#2b2010" stroke-width="3" opacity="0.7"/>
  <g transform="translate(3.60,8)"><polygon points="256,64 234,96 242,330 270,330 278,96" fill="#3c4754"/></g><g transform="translate(3.15,7)"><polygon points="256,64 234,96 242,330 270,330 278,96" fill="#3c4754"/></g><g transform="translate(2.70,6)"><polygon points="256,64 234,96 242,330 270,330 278,96" fill="#3c4754"/></g><g transform="translate(2.25,5)"><polygon points="256,64 234,96 242,330 270,330 278,96" fill="#3c4754"/></g><g transform="translate(1.80,4)"><polygon points="256,64 234,96 242,330 270,330 278,96" fill="#3c4754"/></g><g transform="translate(1.35,3)"><polygon points="256,64 234,96 242,330 270,330 278,96" fill="#3c4754"/></g><g transform="translate(0.90,2)"><polygon points="256,64 234,96 242,330 270,330 278,96" fill="#3c4754"/></g><g transform="translate(0.45,1)"><polygon points="256,64 234,96 242,330 270,330 278,96" fill="#3c4754"/></g><polygon points="256,64 234,96 242,330 270,330 278,96" fill="url(#bladeFace)"/><polygon points="256,72 250,98 252,326 258,326 260,98" fill="#5a6675" opacity="0.7"/><g transform="translate(3.60,8)"><rect x="192" y="328" width="128" height="22" rx="11" fill="#6b4e0a"/><rect x="242" y="350" width="28" height="68" rx="10" fill="#6b4e0a"/><circle cx="256" cy="436" r="19" fill="#6b4e0a"/></g><g transform="translate(3.15,7)"><rect x="192" y="328" width="128" height="22" rx="11" fill="#6b4e0a"/><rect x="242" y="350" width="28" height="68" rx="10" fill="#6b4e0a"/><circle cx="256" cy="436" r="19" fill="#6b4e0a"/></g><g transform="translate(2.70,6)"><rect x="192" y="328" width="128" height="22" rx="11" fill="#6b4e0a"/><rect x="242" y="350" width="28" height="68" rx="10" fill="#6b4e0a"/><circle cx="256" cy="436" r="19" fill="#6b4e0a"/></g><g transform="translate(2.25,5)"><rect x="192" y="328" width="128" height="22" rx="11" fill="#6b4e0a"/><rect x="242" y="350" width="28" height="68" rx="10" fill="#6b4e0a"/><circle cx="256" cy="436" r="19" fill="#6b4e0a"/></g><g transform="translate(1.80,4)"><rect x="192" y="328" width="128" height="22" rx="11" fill="#6b4e0a"/><rect x="242" y="350" width="28" height="68" rx="10" fill="#6b4e0a"/><circle cx="256" cy="436" r="19" fill="#6b4e0a"/></g><g transform="translate(1.35,3)"><rect x="192" y="328" width="128" height="22" rx="11" fill="#6b4e0a"/><rect x="242" y="350" width="28" height="68" rx="10" fill="#6b4e0a"/><circle cx="256" cy="436" r="19" fill="#6b4e0a"/></g><g transform="translate(0.90,2)"><rect x="192" y="328" width="128" height="22" rx="11" fill="#6b4e0a"/><rect x="242" y="350" width="28" height="68" rx="10" fill="#6b4e0a"/><circle cx="256" cy="436" r="19" fill="#6b4e0a"/></g><g transform="translate(0.45,1)"><rect x="192" y="328" width="128" height="22" rx="11" fill="#6b4e0a"/><rect x="242" y="350" width="28" height="68" rx="10" fill="#6b4e0a"/><circle cx="256" cy="436" r="19" fill="#6b4e0a"/></g><rect x="192" y="328" width="128" height="22" rx="11" fill="url(#hiltFace)"/><rect x="242" y="350" width="28" height="68" rx="10" fill="url(#hiltFace)"/><circle cx="256" cy="436" r="19" fill="url(#hiltFace)"/><line x1="248" y1="356" x2="248" y2="412" stroke="#8a6512" stroke-width="4" opacity="0.8"/><line x1="262" y1="356" x2="262" y2="412" stroke="#8a6512" stroke-width="4" opacity="0.8"/><path d="M256 70 Q259.08 88.92 278 92 Q259.08 95.08 256 114 Q252.92 95.08 234 92 Q252.92 88.92 256 70Z" fill="#ffffff" opacity="0.95"/><path d="M244 237 Q245.82 248.18 257 250 Q245.82 251.82 244 263 Q242.18 251.82 231 250 Q242.18 248.18 244 237Z" fill="#ffffff" opacity="0.7"/>
  <path d="M70,138 Q256,52 442,138 L442,90 Q442,68 420,68 L92,68 Q70,68 70,90 Z" fill="#ffffff" opacity="0.07"/>
  <circle cx="40" cy="38" r="17" fill="url(#gold)" stroke="#5a430e" stroke-width="2.5"/><circle cx="40" cy="38" r="8" fill="#fff3b0" stroke="#c89627" stroke-width="2"/><circle cx="472" cy="38" r="17" fill="url(#gold)" stroke="#5a430e" stroke-width="2.5"/><circle cx="472" cy="38" r="8" fill="#fff3b0" stroke="#c89627" stroke-width="2"/><circle cx="40" cy="470" r="17" fill="url(#gold)" stroke="#5a430e" stroke-width="2.5"/><circle cx="40" cy="470" r="8" fill="#fff3b0" stroke="#c89627" stroke-width="2"/><circle cx="472" cy="470" r="17" fill="url(#gold)" stroke="#5a430e" stroke-width="2.5"/><circle cx="472" cy="470" r="8" fill="#fff3b0" stroke="#c89627" stroke-width="2"/>
</g></svg>