<svg xmlns="http://www.w3.org/2000/svg" width="1920" height="1080" viewBox="0 0 1920 1080"><defs><linearGradient id="tSky" x1="0" y1="0" x2="0" y2="1"><stop offset="0" stop-color="#160b26"/><stop offset="0.45" stop-color="#2a0f1e"/><stop offset="0.8" stop-color="#451608"/><stop offset="1" stop-color="#5e1e04"/></linearGradient><radialGradient id="tMoon" cx="0.5" cy="0.5" r="0.5"><stop offset="0" stop-color="#ffd9a8" stop-opacity="0.95"/><stop offset="0.35" stop-color="#ff9d5a" stop-opacity="0.4"/><stop offset="1" stop-color="#ff7a3d" stop-opacity="0"/></radialGradient><radialGradient id="lavaPool" cx="0.5" cy="0.5" r="0.5"><stop offset="0" stop-color="#ff9d3d" stop-opacity="0.85"/><stop offset="0.5" stop-color="#e8421c" stop-opacity="0.5"/><stop offset="1" stop-color="#7a1a04" stop-opacity="0"/></radialGradient><linearGradient id="mount" x1="0" y1="0" x2="0" y2="1"><stop offset="0" stop-color="#1c0f1e"/><stop offset="1" stop-color="#0c0610"/></linearGradient><linearGradient id="mountFar" x1="0" y1="0" x2="0" y2="1"><stop offset="0" stop-color="#241226"/><stop offset="1" stop-color="#140a18"/></linearGradient><linearGradient id="crackG" x1="0" y1="0" x2="0" y2="1"><stop offset="0" stop-color="#ffe98a"/><stop offset="0.5" stop-color="#ff8a3d"/><stop offset="1" stop-color="#e8421c"/></linearGradient></defs>
<rect width="1920" height="1080" fill="url(#tSky)"/>
<circle cx="414" cy="125" r="1.5" fill="#ffd9a8" opacity="0.47"/><circle cx="642" cy="208" r="1.9" fill="#ffd9a8" opacity="0.35"/><circle cx="1366" cy="458" r="1.8" fill="#ffd9a8" opacity="0.31"/><circle cx="721" cy="392" r="1.8" fill="#ffd9a8" opacity="0.44"/><circle cx="1795" cy="605" r="1.2" fill="#ffd9a8" opacity="0.20"/><circle cx="954" cy="97" r="1.6" fill="#ffd9a8" opacity="0.30"/><circle cx="845" cy="503" r="0.6" fill="#ffd9a8" opacity="0.30"/><circle cx="1363" cy="86" r="1.8" fill="#ffd9a8" opacity="0.24"/><circle cx="1617" cy="617" r="0.6" fill="#ffd9a8" opacity="0.31"/><circle cx="1379" cy="489" r="1.9" fill="#ffd9a8" opacity="0.37"/><circle cx="490" cy="562" r="0.6" fill="#ffd9a8" opacity="0.50"/><circle cx="1417" cy="53" r="1.0" fill="#ffd9a8" opacity="0.11"/><circle cx="686" cy="503" r="1.7" fill="#ffd9a8" opacity="0.19"/><circle cx="1492" cy="228" r="0.7" fill="#ffd9a8" opacity="0.31"/><circle cx="536" cy="137" r="1.4" fill="#ffd9a8" opacity="0.15"/><circle cx="1053" cy="619" r="1.2" fill="#ffd9a8" opacity="0.11"/><circle cx="1463" cy="496" r="1.9" fill="#ffd9a8" opacity="0.20"/><circle cx="1664" cy="562" r="0.6" fill="#ffd9a8" opacity="0.20"/><circle cx="1126" cy="606" r="1.9" fill="#ffd9a8" opacity="0.11"/><circle cx="77" cy="96" r="1.9" fill="#ffd9a8" opacity="0.26"/><circle cx="969" cy="68" r="1.6" fill="#ffd9a8" opacity="0.16"/><circle cx="723" cy="196" r="1.7" fill="#ffd9a8" opacity="0.19"/><circle cx="137" cy="216" r="1.6" fill="#ffd9a8" opacity="0.27"/><circle cx="1726" cy="11" r="0.8" fill="#ffd9a8" opacity="0.41"/><circle cx="1227" cy="192" r="1.6" fill="#ffd9a8" opacity="0.43"/><circle cx="1030" cy="423" r="1.7" fill="#ffd9a8" opacity="0.44"/><circle cx="1231" cy="225" r="0.6" fill="#ffd9a8" opacity="0.46"/><circle cx="648" cy="375" r="1.4" fill="#ffd9a8" opacity="0.46"/><circle cx="1580" cy="352" r="1.9" fill="#ffd9a8" opacity="0.49"/><circle cx="704" cy="205" r="1.8" fill="#ffd9a8" opacity="0.41"/><circle cx="921" cy="65" r="1.2" fill="#ffd9a8" opacity="0.38"/><circle cx="1336" cy="485" r="0.7" fill="#ffd9a8" opacity="0.34"/><circle cx="498" cy="268" r="0.5" fill="#ffd9a8" opacity="0.17"/><circle cx="78" cy="31" r="0.5" fill="#ffd9a8" opacity="0.14"/><circle cx="400" cy="638" r="0.7" fill="#ffd9a8" opacity="0.19"/><circle cx="767" cy="355" r="1.6" fill="#ffd9a8" opacity="0.29"/><circle cx="952" cy="80" r="1.6" fill="#ffd9a8" opacity="0.28"/><circle cx="1323" cy="489" r="1.2" fill="#ffd9a8" opacity="0.28"/><circle cx="995" cy="175" r="1.3" fill="#ffd9a8" opacity="0.11"/><circle cx="1239" cy="196" r="0.5" fill="#ffd9a8" opacity="0.23"/><circle cx="35" cy="568" r="1.6" fill="#ffd9a8" opacity="0.49"/><circle cx="1282" cy="125" r="1.7" fill="#ffd9a8" opacity="0.43"/><circle cx="1189" cy="287" r="1.5" fill="#ffd9a8" opacity="0.26"/><circle cx="1013" cy="338" r="1.0" fill="#ffd9a8" opacity="0.11"/><circle cx="1378" cy="67" r="1.9" fill="#ffd9a8" opacity="0.25"/><circle cx="473" cy="232" r="0.6" fill="#ffd9a8" opacity="0.18"/><circle cx="918" cy="419" r="0.4" fill="#ffd9a8" opacity="0.27"/><circle cx="621" cy="220" r="1.9" fill="#ffd9a8" opacity="0.36"/><circle cx="246" cy="306" r="1.2" fill="#ffd9a8" opacity="0.21"/><circle cx="1326" cy="169" r="0.8" fill="#ffd9a8" opacity="0.12"/><circle cx="1031" cy="69" r="1.5" fill="#ffd9a8" opacity="0.20"/><circle cx="789" cy="475" r="1.5" fill="#ffd9a8" opacity="0.41"/><circle cx="645" cy="299" r="1.1" fill="#ffd9a8" opacity="0.17"/><circle cx="162" cy="154" r="0.6" fill="#ffd9a8" opacity="0.44"/><circle cx="637" cy="340" r="0.8" fill="#ffd9a8" opacity="0.41"/><circle cx="1726" cy="47" r="1.8" fill="#ffd9a8" opacity="0.49"/><circle cx="1416" cy="167" r="0.5" fill="#ffd9a8" opacity="0.21"/><circle cx="571" cy="139" r="1.4" fill="#ffd9a8" opacity="0.29"/><circle cx="321" cy="598" r="1.2" fill="#ffd9a8" opacity="0.44"/><circle cx="63" cy="201" r="0.5" fill="#ffd9a8" opacity="0.12"/><circle cx="691" cy="396" r="0.5" fill="#ffd9a8" opacity="0.39"/><circle cx="1623" cy="597" r="0.5" fill="#ffd9a8" opacity="0.35"/><circle cx="1128" cy="98" r="1.0" fill="#ffd9a8" opacity="0.20"/><circle cx="1901" cy="517" r="1.2" fill="#ffd9a8" opacity="0.35"/><circle cx="228" cy="401" r="1.5" fill="#ffd9a8" opacity="0.10"/><circle cx="172" cy="239" r="1.2" fill="#ffd9a8" opacity="0.10"/><circle cx="34" cy="553" r="1.1" fill="#ffd9a8" opacity="0.46"/><circle cx="474" cy="525" r="0.9" fill="#ffd9a8" opacity="0.37"/><circle cx="1037" cy="137" r="1.9" fill="#ffd9a8" opacity="0.46"/><circle cx="673" cy="473" r="0.6" fill="#ffd9a8" opacity="0.15"/><circle cx="782" cy="523" r="1.3" fill="#ffd9a8" opacity="0.11"/><circle cx="1091" cy="180" r="0.5" fill="#ffd9a8" opacity="0.36"/><circle cx="1853" cy="90" r="1.4" fill="#ffd9a8" opacity="0.44"/><circle cx="705" cy="589" r="2.0" fill="#ffd9a8" opacity="0.38"/><circle cx="1381" cy="307" r="1.7" fill="#ffd9a8" opacity="0.18"/><circle cx="336" cy="394" r="2.0" fill="#ffd9a8" opacity="0.30"/><circle cx="908" cy="240" r="0.7" fill="#ffd9a8" opacity="0.16"/><circle cx="1647" cy="205" r="1.9" fill="#ffd9a8" opacity="0.42"/><circle cx="355" cy="437" r="0.8" fill="#ffd9a8" opacity="0.20"/><circle cx="1041" cy="487" r="1.5" fill="#ffd9a8" opacity="0.32"/><circle cx="12" cy="527" r="1.2" fill="#ffd9a8" opacity="0.41"/><circle cx="1111" cy="132" r="1.3" fill="#ffd9a8" opacity="0.39"/><circle cx="983" cy="9" r="2.0" fill="#ffd9a8" opacity="0.21"/><circle cx="1330" cy="239" r="1.4" fill="#ffd9a8" opacity="0.12"/><circle cx="1835" cy="358" r="1.8" fill="#ffd9a8" opacity="0.35"/><circle cx="490" cy="436" r="0.5" fill="#ffd9a8" opacity="0.49"/><circle cx="1204" cy="51" r="0.7" fill="#ffd9a8" opacity="0.29"/><circle cx="1804" cy="492" r="0.8" fill="#ffd9a8" opacity="0.41"/><circle cx="756" cy="601" r="1.4" fill="#ffd9a8" opacity="0.16"/><circle cx="1731" cy="588" r="1.3" fill="#ffd9a8" opacity="0.30"/><circle cx="790" cy="432" r="1.4" fill="#ffd9a8" opacity="0.20"/><circle cx="950" cy="294" r="0.5" fill="#ffd9a8" opacity="0.31"/><circle cx="699" cy="418" r="0.8" fill="#ffd9a8" opacity="0.39"/><circle cx="495" cy="99" r="0.9" fill="#ffd9a8" opacity="0.14"/><circle cx="289" cy="241" r="0.7" fill="#ffd9a8" opacity="0.18"/><circle cx="790" cy="598" r="0.7" fill="#ffd9a8" opacity="0.18"/><circle cx="1607" cy="416" r="1.2" fill="#ffd9a8" opacity="0.13"/><circle cx="1748" cy="216" r="0.7" fill="#ffd9a8" opacity="0.41"/><circle cx="128" cy="219" r="1.9" fill="#ffd9a8" opacity="0.33"/><circle cx="1654" cy="425" r="0.4" fill="#ffd9a8" opacity="0.12"/><circle cx="455" cy="87" r="0.6" fill="#ffd9a8" opacity="0.22"/><circle cx="1334" cy="52" r="1.8" fill="#ffd9a8" opacity="0.26"/><circle cx="397" cy="527" r="1.1" fill="#ffd9a8" opacity="0.15"/><circle cx="456" cy="100" r="0.6" fill="#ffd9a8" opacity="0.24"/><circle cx="760" cy="336" r="1.8" fill="#ffd9a8" opacity="0.27"/><circle cx="597" cy="242" r="1.4" fill="#ffd9a8" opacity="0.45"/><circle cx="1223" cy="214" r="1.4" fill="#ffd9a8" opacity="0.34"/><circle cx="581" cy="281" r="1.8" fill="#ffd9a8" opacity="0.42"/><circle cx="1530" cy="24" r="0.9" fill="#ffd9a8" opacity="0.40"/><circle cx="1712" cy="197" r="1.5" fill="#ffd9a8" opacity="0.25"/><circle cx="1581" cy="503" r="1.9" fill="#ffd9a8" opacity="0.29"/><circle cx="291" cy="567" r="1.1" fill="#ffd9a8" opacity="0.45"/><circle cx="136" cy="88" r="1.1" fill="#ffd9a8" opacity="0.20"/><circle cx="171" cy="180" r="1.3" fill="#ffd9a8" opacity="0.11"/><circle cx="489" cy="372" r="1.3" fill="#ffd9a8" opacity="0.38"/><circle cx="129" cy="425" r="1.4" fill="#ffd9a8" opacity="0.18"/><circle cx="1332" cy="625" r="1.3" fill="#ffd9a8" opacity="0.42"/><circle cx="655" cy="522" r="1.0" fill="#ffd9a8" opacity="0.40"/><circle cx="376" cy="56" r="1.6" fill="#ffd9a8" opacity="0.25"/><circle cx="762" cy="67" r="2.0" fill="#ffd9a8" opacity="0.35"/>
<circle cx="1500" cy="230" r="300" fill="url(#tMoon)"/>
<circle cx="1500" cy="230" r="118" fill="#ffce8a" opacity="0.9"/>
<circle cx="1462" cy="206" r="16" fill="#e8a55e" opacity="0.5"/>
<circle cx="1530" cy="258" r="24" fill="#e8a55e" opacity="0.45"/>
<circle cx="1488" cy="282" r="11" fill="#e8a55e" opacity="0.5"/>

<g transform="translate(1430,250) scale(1.15) rotate(-8)" fill="#140a10">
  <path d="M0,0 C-26,-6 -52,-2 -74,10 C-50,12 -36,12 -20,10 C-44,30 -56,52 -58,74 C-38,52 -22,38 -6,28
           C2,44 14,52 30,56 C22,40 20,28 22,16 C44,22 66,20 86,8 C62,4 46,-2 34,-10
           C52,-26 60,-44 60,-62 C44,-44 28,-32 12,-26 C8,-38 0,-48 -12,-54 C-6,-38 -4,-22 -6,-10 Z"/>
  <circle cx="2" cy="2" r="6"/>
</g>
<polygon points="0,1080 0,712.8000000000001 120,689.9625560894609 240,678.3890286639333 360,490.1118202015758 480,662.6005401939154 600,678.6068595081568 720,706.0398853003979 840,628.7249407611788 960,663.2681958407164 1080,522.0289940267802 1200,656.6520803824068 1320,504.2341346919537 1440,683.1904555141926 1560,521.3478261485697 1680,676.7266989156604 1800,584.8160882547498 1920,627.3630842819811 2040,517.5769423015416 2160,635.024119283259 1920,1080" fill="url(#mountFar)"/>
<polygon points="0,1080 0,864 90,747.0666571948677 180,862.6953934133053 270,808.3766095302999 360,775.8147754184902 450,817.0993054434657 540,828.0384052433074 630,638.0584898460656 720,793.8056835271418 810,674.6513254903257 900,861.3997090049088 990,696.1554807573557 1080,793.1388841159642 1170,615.2048775050789 1260,848.2651378214359 1350,754.7275301963091 1440,777.1307848654687 1530,773.8499266989529 1620,759.7548028230667 1710,726.0146192517132 1800,850.3147373646498 1890,787.8849662896246 1980,809.4754474982619 1920,1080" fill="url(#mount)"/>
<ellipse cx="960" cy="1140" rx="1300" ry="330" fill="url(#lavaPool)"/>
<path d="M1231.091992482543,945.3204069565982 l16.362063540145755,-43.1971050305292 l-5.196907871868461,-37.79746690171305 l-15.975479800254107,-26.99819064408075" fill="none" stroke="url(#crackG)" stroke-width="3.2" stroke-linecap="round" opacity="0.62"/><path d="M1780.508688390255,1007.0568342600018 l-19.65749865397811,-35.960114412009716 l12.31142272008583,-31.465100110508498 l17.505648592486978,-22.475071507506073" fill="none" stroke="url(#crackG)" stroke-width="4.0" stroke-linecap="round" opacity="0.53"/><path d="M423.8305168226361,1001.7393646389246 l-5.719716474413872,-63.89554359111935 l3.6172359832562506,-55.90860064222943 l-17.225213181227446,-39.93471474444959" fill="none" stroke="url(#crackG)" stroke-width="4.5" stroke-linecap="round" opacity="0.85"/><path d="M81.92434374243021,996.8652108870447 l19.74875010550022,-69.19242925662547 l-21.68801692314446,-60.54337559954728 l7.183880507946014,-43.24526828539092" fill="none" stroke="url(#crackG)" stroke-width="5.1" stroke-linecap="round" opacity="0.74"/><path d="M327.38969285041094,925.0571285188198 l-15.991540206596255,-43.63485934026539 l3.9261913392692804,-38.18050192273222 l-18.607095666229725,-27.27178708766587" fill="none" stroke="url(#crackG)" stroke-width="5.5" stroke-linecap="round" opacity="0.60"/><path d="M845.6037360802293,993.949804585427 l12.30554610490799,-29.31889344379306 l-12.077610823325813,-25.654031763318926 l14.375801244750619,-18.32430840237066" fill="none" stroke="url(#crackG)" stroke-width="3.4" stroke-linecap="round" opacity="0.68"/><path d="M1040.6985826417804,955.5636206362396 l-4.123085699975491,-71.6898581571877 l-24.483822262845933,-62.72862588753923 l-16.568450089544058,-44.80616134824231" fill="none" stroke="url(#crackG)" stroke-width="5.0" stroke-linecap="round" opacity="0.64"/><path d="M495.31775932759047,1013.2220370788127 l-5.226177554577589,-30.462056927382946 l8.02095748949796,-26.654299811460078 l2.7536051254719496,-19.03878557961434" fill="none" stroke="url(#crackG)" stroke-width="4.6" stroke-linecap="round" opacity="0.76"/><path d="M366.6558725386858,985.4612736869603 l-4.989164061844349,-68.66313429735601 l13.280529691837728,-60.0802425101865 l-13.372176140546799,-42.914458935847506" fill="none" stroke="url(#crackG)" stroke-width="3.7" stroke-linecap="round" opacity="0.88"/>
<rect width="1920" height="1080" fill="#000000" opacity="0.12"/></svg>