<svg xmlns="http://www.w3.org/2000/svg" width="512" height="512" viewBox="0 0 512 512"><defs><linearGradient id="chrome" x1="0" y1="0" x2="0" y2="1"><stop offset="0" stop-color="#fafdff"/><stop offset="0.3" stop-color="#9aa7b8"/><stop offset="0.5" stop-color="#e6edf4"/><stop offset="0.75" stop-color="#55606e"/><stop offset="1" stop-color="#c4cfdc"/></linearGradient><linearGradient id="glass" x1="0" y1="0" x2="0" y2="1"><stop offset="0" stop-color="#343b4e"/><stop offset="0.5" stop-color="#171b28"/><stop offset="1" stop-color="#0a0c14"/></linearGradient><radialGradient id="glassLite" cx="0.5" cy="0.3" r="0.8"><stop offset="0" stop-color="#69d7ff" stop-opacity="0.32"/><stop offset="0.7" stop-color="#4fd0ff" stop-opacity="0.05"/><stop offset="1" stop-color="#000000" stop-opacity="0"/></radialGradient><filter id="neon" x="-60%" y="-60%" width="220%" height="220%"><feDropShadow dx="0" dy="0" stdDeviation="11" flood-color="#4fd0ff" flood-opacity="0.95"/></filter><filter id="vShadow" x="-40%" y="-40%" width="180%" height="180%"><feDropShadow dx="0" dy="12" stdDeviation="14" flood-color="#000000" flood-opacity="0.6"/></filter><linearGradient id="barGold" x1="0" y1="0" x2="0" y2="1"><stop offset="0" stop-color="#fff4c4"/><stop offset="0.4" stop-color="#ffce3d"/><stop offset="1" stop-color="#9a6a0c"/></linearGradient><linearGradient id="barChrome" x1="0" y1="0" x2="0" y2="1"><stop offset="0" stop-color="#ffffff"/><stop offset="0.45" stop-color="#aab6c4"/><stop offset="1" stop-color="#5c6876"/></linearGradient><filter id="barDrop" x="-40%" y="-40%" width="180%" height="180%"><feDropShadow dx="0" dy="6" stdDeviation="5" flood-color="#000000" flood-opacity="0.5"/></filter></defs>
<g filter="url(#vShadow)">
  <rect x="22" y="20" width="468" height="468" rx="64" fill="url(#chrome)" stroke="#39414c" stroke-width="4"/>
  <rect x="44" y="42" width="424" height="424" rx="48" fill="url(#glass)"/>
  <rect x="44" y="42" width="424" height="424" rx="48" fill="url(#glassLite)"/>
  <g filter="url(#neon)"><rect x="58" y="56" width="396" height="396" rx="40" fill="none" stroke="#4fd0ff" stroke-width="5"/></g>
  <rect x="58" y="56" width="396" height="396" rx="40" fill="none" stroke="#b0eaff" stroke-width="2" opacity="0.9"/>
  <g filter="url(#barDrop)" transform="rotate(-4 256 154)"><rect x="118" y="122" width="276" height="74" rx="16" fill="url(#barChrome)" stroke="#2c2317" stroke-width="4"/><rect x="126" y="128" width="260" height="30" rx="12" fill="#ffffff" opacity="0.25"/><text x="256" y="178" font-family="'Arial Black','Helvetica Neue',Arial,sans-serif" font-size="54" font-weight="900" text-anchor="middle" letter-spacing="8" stroke="#ffffff" stroke-width="0" paint-order="stroke" stroke-linejoin="round" fill="#1b2027">BAR</text></g><g filter="url(#barDrop)" transform="rotate(-4 256 254)"><rect x="118" y="222" width="276" height="74" rx="16" fill="url(#barGold)" stroke="#2c2317" stroke-width="4"/><rect x="126" y="228" width="260" height="30" rx="12" fill="#ffffff" opacity="0.25"/><text x="256" y="278" font-family="'Arial Black','Helvetica Neue',Arial,sans-serif" font-size="54" font-weight="900" text-anchor="middle" letter-spacing="8" stroke="#ffffff" stroke-width="0" paint-order="stroke" stroke-linejoin="round" fill="#3a2a08">BAR</text></g><g filter="url(#barDrop)" transform="rotate(-4 256 354)"><rect x="118" y="322" width="276" height="74" rx="16" fill="url(#barChrome)" stroke="#2c2317" stroke-width="4"/><rect x="126" y="328" width="260" height="30" rx="12" fill="#ffffff" opacity="0.25"/><text x="256" y="378" font-family="'Arial Black','Helvetica Neue',Arial,sans-serif" font-size="54" font-weight="900" text-anchor="middle" letter-spacing="8" stroke="#ffffff" stroke-width="0" paint-order="stroke" stroke-linejoin="round" fill="#1b2027">BAR</text></g><path d="M146 123 Q147.82 134.18 159 136 Q147.82 137.82 146 149 Q144.18 137.82 133 136 Q144.18 134.18 146 123Z" fill="#ffffff" opacity="0.9"/>
  <path d="M70,150 Q256,40 442,150 L442,84 Q442,60 418,60 L94,60 Q70,60 70,84 Z" fill="#ffffff" opacity="0.07"/>
</g></svg>