<svg xmlns="http://www.w3.org/2000/svg" width="512" height="512" viewBox="0 0 512 512"><defs><linearGradient id="chrome" x1="0" y1="0" x2="0" y2="1"><stop offset="0" stop-color="#fafdff"/><stop offset="0.3" stop-color="#9aa7b8"/><stop offset="0.5" stop-color="#e6edf4"/><stop offset="0.75" stop-color="#55606e"/><stop offset="1" stop-color="#c4cfdc"/></linearGradient><linearGradient id="glass" x1="0" y1="0" x2="0" y2="1"><stop offset="0" stop-color="#343b4e"/><stop offset="0.5" stop-color="#171b28"/><stop offset="1" stop-color="#0a0c14"/></linearGradient><radialGradient id="glassLite" cx="0.5" cy="0.3" r="0.8"><stop offset="0" stop-color="#ffdb69" stop-opacity="0.32"/><stop offset="0.7" stop-color="#ffd54f" stop-opacity="0.05"/><stop offset="1" stop-color="#000000" stop-opacity="0"/></radialGradient><filter id="neon" x="-60%" y="-60%" width="220%" height="220%"><feDropShadow dx="0" dy="0" stdDeviation="11" flood-color="#ffd54f" flood-opacity="0.95"/></filter><filter id="vShadow" x="-40%" y="-40%" width="180%" height="180%"><feDropShadow dx="0" dy="12" stdDeviation="14" flood-color="#000000" flood-opacity="0.6"/></filter><linearGradient id="bellFace" x1="0" y1="0" x2="0" y2="1"><stop offset="0" stop-color="#fff4c4"/><stop offset="0.35" stop-color="#ffce3d"/><stop offset="0.75" stop-color="#d39516"/><stop offset="1" stop-color="#8a5d0a"/></linearGradient><filter id="bDrop" x="-40%" y="-40%" width="180%" height="180%"><feDropShadow dx="0" dy="7" stdDeviation="6" flood-color="#000000" flood-opacity="0.45"/></filter></defs>
<g filter="url(#vShadow)">
  <rect x="22" y="20" width="468" height="468" rx="64" fill="url(#chrome)" stroke="#39414c" stroke-width="4"/>
  <rect x="44" y="42" width="424" height="424" rx="48" fill="url(#glass)"/>
  <rect x="44" y="42" width="424" height="424" rx="48" fill="url(#glassLite)"/>
  <g filter="url(#neon)"><rect x="58" y="56" width="396" height="396" rx="40" fill="none" stroke="#ffd54f" stroke-width="5"/></g>
  <rect x="58" y="56" width="396" height="396" rx="40" fill="none" stroke="#ffecb0" stroke-width="2" opacity="0.9"/>
  <circle cx="256" cy="100" r="17" fill="#8a5d0a"/><circle cx="256" cy="98" r="12" fill="#ffce3d"/><g transform="translate(4.05,9)"><path d="M256,108 C198,108 184,184 178,262 C175,294 162,310 150,322 L362,322 C350,310 337,294 334,262 C328,184 314,108 256,108 Z" fill="#6e4a08"/></g><g transform="translate(3.60,8)"><path d="M256,108 C198,108 184,184 178,262 C175,294 162,310 150,322 L362,322 C350,310 337,294 334,262 C328,184 314,108 256,108 Z" fill="#6e4a08"/></g><g transform="translate(3.15,7)"><path d="M256,108 C198,108 184,184 178,262 C175,294 162,310 150,322 L362,322 C350,310 337,294 334,262 C328,184 314,108 256,108 Z" fill="#6e4a08"/></g><g transform="translate(2.70,6)"><path d="M256,108 C198,108 184,184 178,262 C175,294 162,310 150,322 L362,322 C350,310 337,294 334,262 C328,184 314,108 256,108 Z" fill="#6e4a08"/></g><g transform="translate(2.25,5)"><path d="M256,108 C198,108 184,184 178,262 C175,294 162,310 150,322 L362,322 C350,310 337,294 334,262 C328,184 314,108 256,108 Z" fill="#6e4a08"/></g><g transform="translate(1.80,4)"><path d="M256,108 C198,108 184,184 178,262 C175,294 162,310 150,322 L362,322 C350,310 337,294 334,262 C328,184 314,108 256,108 Z" fill="#6e4a08"/></g><g transform="translate(1.35,3)"><path d="M256,108 C198,108 184,184 178,262 C175,294 162,310 150,322 L362,322 C350,310 337,294 334,262 C328,184 314,108 256,108 Z" fill="#6e4a08"/></g><g transform="translate(0.90,2)"><path d="M256,108 C198,108 184,184 178,262 C175,294 162,310 150,322 L362,322 C350,310 337,294 334,262 C328,184 314,108 256,108 Z" fill="#6e4a08"/></g><g transform="translate(0.45,1)"><path d="M256,108 C198,108 184,184 178,262 C175,294 162,310 150,322 L362,322 C350,310 337,294 334,262 C328,184 314,108 256,108 Z" fill="#6e4a08"/></g><g filter="url(#bDrop)"><path d="M256,108 C198,108 184,184 178,262 C175,294 162,310 150,322 L362,322 C350,310 337,294 334,262 C328,184 314,108 256,108 Z" fill="url(#bellFace)"/></g><path d="M196,150 C188,196 186,236 184,268" fill="none" stroke="#fff4c4" stroke-width="12" stroke-linecap="round" opacity="0.7"/><rect x="142" y="322" width="228" height="26" rx="13" fill="#8a5d0a"/><rect x="142" y="318" width="228" height="18" rx="9" fill="#ffce3d"/><circle cx="256" cy="374" r="26" fill="#b27812"/><circle cx="248" cy="366" r="9" fill="#ffe9a0" opacity="0.85"/><path d="M206 126 Q208.24 139.76 222 142 Q208.24 144.24 206 158 Q203.76 144.24 190 142 Q203.76 139.76 206 126Z" fill="#ffffff" opacity="0.9"/>
  <path d="M70,150 Q256,40 442,150 L442,84 Q442,60 418,60 L94,60 Q70,60 70,84 Z" fill="#ffffff" opacity="0.07"/>
</g></svg>