<svg xmlns="http://www.w3.org/2000/svg" width="512" height="512" viewBox="0 0 512 512"><defs><linearGradient id="chrome" x1="0" y1="0" x2="0" y2="1"><stop offset="0" stop-color="#fafdff"/><stop offset="0.3" stop-color="#9aa7b8"/><stop offset="0.5" stop-color="#e6edf4"/><stop offset="0.75" stop-color="#55606e"/><stop offset="1" stop-color="#c4cfdc"/></linearGradient><linearGradient id="glass" x1="0" y1="0" x2="0" y2="1"><stop offset="0" stop-color="#343b4e"/><stop offset="0.5" stop-color="#171b28"/><stop offset="1" stop-color="#0a0c14"/></linearGradient><radialGradient id="glassLite" cx="0.5" cy="0.3" r="0.8"><stop offset="0" stop-color="#c981ff" stop-opacity="0.32"/><stop offset="0.7" stop-color="#c06bff" stop-opacity="0.05"/><stop offset="1" stop-color="#000000" stop-opacity="0"/></radialGradient><filter id="neon" x="-60%" y="-60%" width="220%" height="220%"><feDropShadow dx="0" dy="0" stdDeviation="11" flood-color="#c06bff" flood-opacity="0.95"/></filter><filter id="vShadow" x="-40%" y="-40%" width="180%" height="180%"><feDropShadow dx="0" dy="12" stdDeviation="14" flood-color="#000000" flood-opacity="0.6"/></filter><radialGradient id="bonB" cx="0.5" cy="0.4" r="0.75"><stop offset="0" stop-color="#7e3ff2" stop-opacity="0.85"/><stop offset="0.7" stop-color="#3d1180" stop-opacity="0.85"/><stop offset="1" stop-color="#1c0640" stop-opacity="0.9"/></radialGradient><linearGradient id="bonTxt" x1="0" y1="0" x2="0" y2="1"><stop offset="0" stop-color="#ffffff"/><stop offset="0.5" stop-color="#e8c4ff"/><stop offset="1" stop-color="#9b5cf0"/></linearGradient><filter id="boGlow" x="-60%" y="-60%" width="220%" height="220%"><feDropShadow dx="0" dy="0" stdDeviation="13" flood-color="#c06bff" flood-opacity="0.95"/></filter></defs>
<g filter="url(#vShadow)">
  <rect x="22" y="20" width="468" height="468" rx="64" fill="url(#chrome)" stroke="#39414c" stroke-width="4"/>
  <rect x="44" y="42" width="424" height="424" rx="48" fill="url(#glass)"/>
  <rect x="44" y="42" width="424" height="424" rx="48" fill="url(#glassLite)"/>
  <g filter="url(#neon)"><rect x="58" y="56" width="396" height="396" rx="40" fill="none" stroke="#c06bff" stroke-width="5"/></g>
  <rect x="58" y="56" width="396" height="396" rx="40" fill="none" stroke="#e3bcff" stroke-width="2" opacity="0.9"/>
  <g filter="url(#boGlow)"><circle cx="256" cy="256" r="170" fill="url(#bonB)" stroke="#c06bff" stroke-width="6"/></g><circle cx="256" cy="256" r="148" fill="none" stroke="#e8c4ff" stroke-width="2.5" opacity="0.7" stroke-dasharray="4 14"/><polygon points="256.0,132.0 268.9,166.2 305.5,167.9 276.9,190.8 286.6,226.1 256.0,206.0 225.4,226.1 235.1,190.8 206.5,167.9 243.1,166.2" fill="#ffd86b" stroke="#a87b14" stroke-width="3"/><text x="256" y="326" font-family="'Arial Black','Helvetica Neue',Arial,sans-serif" font-size="78" font-weight="900" text-anchor="middle" letter-spacing="3" stroke="#2a0a4e" stroke-width="12" paint-order="stroke" stroke-linejoin="round" fill="url(#bonTxt)">BONUS</text><path d="M338 144 Q340.24 157.76 354 160 Q340.24 162.24 338 176 Q335.76 162.24 322 160 Q335.76 157.76 338 144Z" fill="#ffffff" opacity="0.9"/><path d="M176 318 Q177.68 328.32 188 330 Q177.68 331.68 176 342 Q174.32 331.68 164 330 Q174.32 328.32 176 318Z" fill="#ffffff" opacity="0.8"/>
  <path d="M70,150 Q256,40 442,150 L442,84 Q442,60 418,60 L94,60 Q70,60 70,84 Z" fill="#ffffff" opacity="0.07"/>
</g></svg>