<svg xmlns="http://www.w3.org/2000/svg" width="512" height="512" viewBox="0 0 512 512"><defs><linearGradient id="chrome" x1="0" y1="0" x2="0" y2="1"><stop offset="0" stop-color="#fafdff"/><stop offset="0.3" stop-color="#9aa7b8"/><stop offset="0.5" stop-color="#e6edf4"/><stop offset="0.75" stop-color="#55606e"/><stop offset="1" stop-color="#c4cfdc"/></linearGradient><linearGradient id="glass" x1="0" y1="0" x2="0" y2="1"><stop offset="0" stop-color="#343b4e"/><stop offset="0.5" stop-color="#171b28"/><stop offset="1" stop-color="#0a0c14"/></linearGradient><radialGradient id="glassLite" cx="0.5" cy="0.3" r="0.8"><stop offset="0" stop-color="#ff7384" stop-opacity="0.32"/><stop offset="0.7" stop-color="#ff5a6e" stop-opacity="0.05"/><stop offset="1" stop-color="#000000" stop-opacity="0"/></radialGradient><filter id="neon" x="-60%" y="-60%" width="220%" height="220%"><feDropShadow dx="0" dy="0" stdDeviation="11" flood-color="#ff5a6e" flood-opacity="0.95"/></filter><filter id="vShadow" x="-40%" y="-40%" width="180%" height="180%"><feDropShadow dx="0" dy="12" stdDeviation="14" flood-color="#000000" flood-opacity="0.6"/></filter><radialGradient id="cher" cx="0.35" cy="0.3" r="0.8"><stop offset="0" stop-color="#ffb3ba"/><stop offset="0.3" stop-color="#f2384e"/><stop offset="0.8" stop-color="#a40f22"/><stop offset="1" stop-color="#5e0510"/></radialGradient><linearGradient id="leafG" x1="0" y1="0" x2="0" y2="1"><stop offset="0" stop-color="#7ed26a"/><stop offset="1" stop-color="#1f7d2c"/></linearGradient><filter id="cDrop" x="-40%" y="-40%" width="180%" height="180%"><feDropShadow dx="0" dy="8" stdDeviation="7" flood-color="#000000" flood-opacity="0.5"/></filter></defs>
<g filter="url(#vShadow)">
  <rect x="22" y="20" width="468" height="468" rx="64" fill="url(#chrome)" stroke="#39414c" stroke-width="4"/>
  <rect x="44" y="42" width="424" height="424" rx="48" fill="url(#glass)"/>
  <rect x="44" y="42" width="424" height="424" rx="48" fill="url(#glassLite)"/>
  <g filter="url(#neon)"><rect x="58" y="56" width="396" height="396" rx="40" fill="none" stroke="#ff5a6e" stroke-width="5"/></g>
  <rect x="58" y="56" width="396" height="396" rx="40" fill="none" stroke="#ffb5be" stroke-width="2" opacity="0.9"/>
  <path d="M262,118 C212,150 172,240 186,322" fill="none" stroke="#7a5230" stroke-width="13" stroke-linecap="round"/><path d="M262,118 C302,160 330,250 318,330" fill="none" stroke="#7a5230" stroke-width="13" stroke-linecap="round"/><path d="M262,118 C292,84 348,78 384,104 C352,128 300,134 262,118 Z" fill="url(#leafG)" stroke="#15601f" stroke-width="3"/><path d="M268,114 C310,96 350,96 376,104" fill="none" stroke="#1f7d2c" stroke-width="3" opacity="0.8"/><g filter="url(#cDrop)"><circle cx="178" cy="354" r="74" fill="url(#cher)"/></g><g filter="url(#cDrop)"><circle cx="322" cy="364" r="80" fill="url(#cher)"/></g><ellipse cx="152" cy="326" rx="22" ry="14" fill="#ffffff" opacity="0.65" transform="rotate(-30 152 326)"/><ellipse cx="296" cy="334" rx="24" ry="15" fill="#ffffff" opacity="0.65" transform="rotate(-30 296 334)"/><path d="M204 306 Q205.68 316.32 216 318 Q205.68 319.68 204 330 Q202.32 319.68 192 318 Q202.32 316.32 204 306Z" fill="#ffffff" opacity="0.9"/>
  <path d="M70,150 Q256,40 442,150 L442,84 Q442,60 418,60 L94,60 Q70,60 70,84 Z" fill="#ffffff" opacity="0.07"/>
</g></svg>