<svg xmlns="http://www.w3.org/2000/svg" width="512" height="512" viewBox="0 0 512 512"><defs><linearGradient id="chrome" x1="0" y1="0" x2="0" y2="1"><stop offset="0" stop-color="#fafdff"/><stop offset="0.3" stop-color="#9aa7b8"/><stop offset="0.5" stop-color="#e6edf4"/><stop offset="0.75" stop-color="#55606e"/><stop offset="1" stop-color="#c4cfdc"/></linearGradient><linearGradient id="glass" x1="0" y1="0" x2="0" y2="1"><stop offset="0" stop-color="#343b4e"/><stop offset="0.5" stop-color="#171b28"/><stop offset="1" stop-color="#0a0c14"/></linearGradient><radialGradient id="glassLite" cx="0.5" cy="0.3" r="0.8"><stop offset="0" stop-color="#ffd05a" stop-opacity="0.32"/><stop offset="0.7" stop-color="#ffc83d" stop-opacity="0.05"/><stop offset="1" stop-color="#000000" stop-opacity="0"/></radialGradient><filter id="neon" x="-60%" y="-60%" width="220%" height="220%"><feDropShadow dx="0" dy="0" stdDeviation="11" flood-color="#ffc83d" flood-opacity="0.95"/></filter><filter id="vShadow" x="-40%" y="-40%" width="180%" height="180%"><feDropShadow dx="0" dy="12" stdDeviation="14" flood-color="#000000" flood-opacity="0.6"/></filter><radialGradient id="coinFace" cx="0.38" cy="0.32" r="0.8"><stop offset="0" stop-color="#fff4c4"/><stop offset="0.45" stop-color="#ffce3d"/><stop offset="0.85" stop-color="#d39516"/><stop offset="1" stop-color="#8a5d0a"/></radialGradient><linearGradient id="coinTxt" x1="0" y1="0" x2="0" y2="1"><stop offset="0" stop-color="#8a5d0a"/><stop offset="1" stop-color="#5e3d06"/></linearGradient><filter id="coDrop" x="-40%" y="-40%" width="180%" height="180%"><feDropShadow dx="0" dy="9" stdDeviation="8" flood-color="#000000" flood-opacity="0.5"/></filter></defs>
<g filter="url(#vShadow)">
  <rect x="22" y="20" width="468" height="468" rx="64" fill="url(#chrome)" stroke="#39414c" stroke-width="4"/>
  <rect x="44" y="42" width="424" height="424" rx="48" fill="url(#glass)"/>
  <rect x="44" y="42" width="424" height="424" rx="48" fill="url(#glassLite)"/>
  <g filter="url(#neon)"><rect x="58" y="56" width="396" height="396" rx="40" fill="none" stroke="#ffc83d" stroke-width="5"/></g>
  <rect x="58" y="56" width="396" height="396" rx="40" fill="none" stroke="#ffe6a8" stroke-width="2" opacity="0.9"/>
  <g filter="url(#coDrop)"><circle cx="256" cy="268" r="168" fill="#b27812"/></g><line x1="410.0" y1="268.0" x2="424.0" y2="268.0" stroke="#8a5d0a" stroke-width="9"/><line x1="407.7" y1="294.7" x2="421.4" y2="297.2" stroke="#8a5d0a" stroke-width="9"/><line x1="400.7" y1="320.7" x2="413.9" y2="325.5" stroke="#8a5d0a" stroke-width="9"/><line x1="389.4" y1="345.0" x2="401.5" y2="352.0" stroke="#8a5d0a" stroke-width="9"/><line x1="374.0" y1="367.0" x2="384.7" y2="376.0" stroke="#8a5d0a" stroke-width="9"/><line x1="355.0" y1="386.0" x2="364.0" y2="396.7" stroke="#8a5d0a" stroke-width="9"/><line x1="333.0" y1="401.4" x2="340.0" y2="413.5" stroke="#8a5d0a" stroke-width="9"/><line x1="308.7" y1="412.7" x2="313.5" y2="425.9" stroke="#8a5d0a" stroke-width="9"/><line x1="282.7" y1="419.7" x2="285.2" y2="433.4" stroke="#8a5d0a" stroke-width="9"/><line x1="256.0" y1="422.0" x2="256.0" y2="436.0" stroke="#8a5d0a" stroke-width="9"/><line x1="229.3" y1="419.7" x2="226.8" y2="433.4" stroke="#8a5d0a" stroke-width="9"/><line x1="203.3" y1="412.7" x2="198.5" y2="425.9" stroke="#8a5d0a" stroke-width="9"/><line x1="179.0" y1="401.4" x2="172.0" y2="413.5" stroke="#8a5d0a" stroke-width="9"/><line x1="157.0" y1="386.0" x2="148.0" y2="396.7" stroke="#8a5d0a" stroke-width="9"/><line x1="138.0" y1="367.0" x2="127.3" y2="376.0" stroke="#8a5d0a" stroke-width="9"/><line x1="122.6" y1="345.0" x2="110.5" y2="352.0" stroke="#8a5d0a" stroke-width="9"/><line x1="111.3" y1="320.7" x2="98.1" y2="325.5" stroke="#8a5d0a" stroke-width="9"/><line x1="104.3" y1="294.7" x2="90.6" y2="297.2" stroke="#8a5d0a" stroke-width="9"/><line x1="102.0" y1="268.0" x2="88.0" y2="268.0" stroke="#8a5d0a" stroke-width="9"/><line x1="104.3" y1="241.3" x2="90.6" y2="238.8" stroke="#8a5d0a" stroke-width="9"/><line x1="111.3" y1="215.3" x2="98.1" y2="210.5" stroke="#8a5d0a" stroke-width="9"/><line x1="122.6" y1="191.0" x2="110.5" y2="184.0" stroke="#8a5d0a" stroke-width="9"/><line x1="138.0" y1="169.0" x2="127.3" y2="160.0" stroke="#8a5d0a" stroke-width="9"/><line x1="157.0" y1="150.0" x2="148.0" y2="139.3" stroke="#8a5d0a" stroke-width="9"/><line x1="179.0" y1="134.6" x2="172.0" y2="122.5" stroke="#8a5d0a" stroke-width="9"/><line x1="203.3" y1="123.3" x2="198.5" y2="110.1" stroke="#8a5d0a" stroke-width="9"/><line x1="229.3" y1="116.3" x2="226.8" y2="102.6" stroke="#8a5d0a" stroke-width="9"/><line x1="256.0" y1="114.0" x2="256.0" y2="100.0" stroke="#8a5d0a" stroke-width="9"/><line x1="282.7" y1="116.3" x2="285.2" y2="102.6" stroke="#8a5d0a" stroke-width="9"/><line x1="308.7" y1="123.3" x2="313.5" y2="110.1" stroke="#8a5d0a" stroke-width="9"/><line x1="333.0" y1="134.6" x2="340.0" y2="122.5" stroke="#8a5d0a" stroke-width="9"/><line x1="355.0" y1="150.0" x2="364.0" y2="139.3" stroke="#8a5d0a" stroke-width="9"/><line x1="374.0" y1="169.0" x2="384.7" y2="160.0" stroke="#8a5d0a" stroke-width="9"/><line x1="389.4" y1="191.0" x2="401.5" y2="184.0" stroke="#8a5d0a" stroke-width="9"/><line x1="400.7" y1="215.3" x2="413.9" y2="210.5" stroke="#8a5d0a" stroke-width="9"/><line x1="407.7" y1="241.3" x2="421.4" y2="238.8" stroke="#8a5d0a" stroke-width="9"/><circle cx="256" cy="268" r="154" fill="url(#coinFace)" stroke="#8a5d0a" stroke-width="5"/><circle cx="256" cy="268" r="120" fill="none" stroke="#8a5d0a" stroke-width="4" opacity="0.7"/><text x="256" y="330" font-family="'Arial Black','Helvetica Neue',Arial,sans-serif" font-size="170" font-weight="900" text-anchor="middle" letter-spacing="2" stroke="#fff4c4" stroke-width="5" paint-order="stroke" stroke-linejoin="round" fill="url(#coinTxt)">$</text><path d="M150,180 A140,140 0 0 1 250,124" fill="none" stroke="#ffffff" stroke-width="16" stroke-linecap="round" opacity="0.5"/><path d="M346 152 Q348.8 169.2 366 172 Q348.8 174.8 346 192 Q343.2 174.8 326 172 Q343.2 169.2 346 152Z" fill="#ffffff" opacity="0.95"/>
  <path d="M70,150 Q256,40 442,150 L442,84 Q442,60 418,60 L94,60 Q70,60 70,84 Z" fill="#ffffff" opacity="0.07"/>
</g></svg>