<svg xmlns="http://www.w3.org/2000/svg" width="512" height="512" viewBox="0 0 512 512"><defs><linearGradient id="chrome" x1="0" y1="0" x2="0" y2="1"><stop offset="0" stop-color="#fafdff"/><stop offset="0.3" stop-color="#9aa7b8"/><stop offset="0.5" stop-color="#e6edf4"/><stop offset="0.75" stop-color="#55606e"/><stop offset="1" stop-color="#c4cfdc"/></linearGradient><linearGradient id="glass" x1="0" y1="0" x2="0" y2="1"><stop offset="0" stop-color="#343b4e"/><stop offset="0.5" stop-color="#171b28"/><stop offset="1" stop-color="#0a0c14"/></linearGradient><radialGradient id="glassLite" cx="0.5" cy="0.3" r="0.8"><stop offset="0" stop-color="#85ecff" stop-opacity="0.32"/><stop offset="0.7" stop-color="#6fe9ff" stop-opacity="0.05"/><stop offset="1" stop-color="#000000" stop-opacity="0"/></radialGradient><filter id="neon" x="-60%" y="-60%" width="220%" height="220%"><feDropShadow dx="0" dy="0" stdDeviation="11" flood-color="#6fe9ff" flood-opacity="0.95"/></filter><filter id="vShadow" x="-40%" y="-40%" width="180%" height="180%"><feDropShadow dx="0" dy="12" stdDeviation="14" flood-color="#000000" flood-opacity="0.6"/></filter><linearGradient id="diaB" x1="0" y1="0" x2="0" y2="1"><stop offset="0" stop-color="#eafcff"/><stop offset="0.5" stop-color="#54d6f2"/><stop offset="1" stop-color="#0a7da0"/></linearGradient><filter id="diaGlow" x="-60%" y="-60%" width="220%" height="220%"><feDropShadow dx="0" dy="0" stdDeviation="12" flood-color="#6fe9ff" flood-opacity="0.8"/></filter></defs>
<g filter="url(#vShadow)">
  <rect x="22" y="20" width="468" height="468" rx="64" fill="url(#chrome)" stroke="#39414c" stroke-width="4"/>
  <rect x="44" y="42" width="424" height="424" rx="48" fill="url(#glass)"/>
  <rect x="44" y="42" width="424" height="424" rx="48" fill="url(#glassLite)"/>
  <g filter="url(#neon)"><rect x="58" y="56" width="396" height="396" rx="40" fill="none" stroke="#6fe9ff" stroke-width="5"/></g>
  <rect x="58" y="56" width="396" height="396" rx="40" fill="none" stroke="#bef5ff" stroke-width="2" opacity="0.9"/>
  <g filter="url(#diaGlow)"><polygon points="256.0,96.0 368.0,200.0 256.0,420.0 144.0,200.0" fill="url(#diaB)" stroke="#066a8a" stroke-width="4"/></g><polygon points="256.0,96.0 256.0,152.0 200.0,200.0 144.0,200.0" fill="#ffffff" opacity="0.55"/><polygon points="256.0,96.0 368.0,200.0 312.0,200.0 256.0,152.0" fill="#9bf0ff" opacity="0.5"/><polygon points="144.0,200.0 200.0,200.0 256.0,252.0 256.0,420.0" fill="#067a9e" opacity="0.55"/><polygon points="312.0,200.0 368.0,200.0 256.0,420.0 256.0,252.0" fill="#0993bd" opacity="0.6"/><polygon points="200.0,200.0 256.0,152.0 312.0,200.0 256.0,252.0" fill="#d2f7ff" opacity="0.75"/><path d="M216 134 Q219.64 156.36 242 160 Q219.64 163.64 216 186 Q212.36 163.64 190 160 Q212.36 156.36 216 134Z" fill="#ffffff" opacity="0.95"/><path d="M312 280 Q314.24 293.76 328 296 Q314.24 298.24 312 312 Q309.76 298.24 296 296 Q309.76 293.76 312 280Z" fill="#ffffff" opacity="0.85"/>
  <path d="M70,150 Q256,40 442,150 L442,84 Q442,60 418,60 L94,60 Q70,60 70,84 Z" fill="#ffffff" opacity="0.07"/>
</g></svg>