<svg xmlns="http://www.w3.org/2000/svg" width="512" height="512" viewBox="0 0 512 512"><defs><linearGradient id="chrome" x1="0" y1="0" x2="0" y2="1"><stop offset="0" stop-color="#fafdff"/><stop offset="0.3" stop-color="#9aa7b8"/><stop offset="0.5" stop-color="#e6edf4"/><stop offset="0.75" stop-color="#55606e"/><stop offset="1" stop-color="#c4cfdc"/></linearGradient><linearGradient id="glass" x1="0" y1="0" x2="0" y2="1"><stop offset="0" stop-color="#343b4e"/><stop offset="0.5" stop-color="#171b28"/><stop offset="1" stop-color="#0a0c14"/></linearGradient><radialGradient id="glassLite" cx="0.5" cy="0.3" r="0.8"><stop offset="0" stop-color="#ff586e" stop-opacity="0.32"/><stop offset="0.7" stop-color="#ff3b54" stop-opacity="0.05"/><stop offset="1" stop-color="#000000" stop-opacity="0"/></radialGradient><filter id="neon" x="-60%" y="-60%" width="220%" height="220%"><feDropShadow dx="0" dy="0" stdDeviation="11" flood-color="#ff3b54" flood-opacity="0.95"/></filter><filter id="vShadow" x="-40%" y="-40%" width="180%" height="180%"><feDropShadow dx="0" dy="12" stdDeviation="14" flood-color="#000000" flood-opacity="0.6"/></filter><linearGradient id="sevFace" x1="0" y1="0" x2="0" y2="1"><stop offset="0" stop-color="#ff8a8a"/><stop offset="0.35" stop-color="#f2253d"/><stop offset="0.8" stop-color="#9e0a20"/><stop offset="1" stop-color="#5e0512"/></linearGradient><filter id="sevGlow" x="-60%" y="-60%" width="220%" height="220%"><feDropShadow dx="0" dy="0" stdDeviation="14" flood-color="#ff3b54" flood-opacity="0.85"/></filter></defs>
<g filter="url(#vShadow)">
  <rect x="22" y="20" width="468" height="468" rx="64" fill="url(#chrome)" stroke="#39414c" stroke-width="4"/>
  <rect x="44" y="42" width="424" height="424" rx="48" fill="url(#glass)"/>
  <rect x="44" y="42" width="424" height="424" rx="48" fill="url(#glassLite)"/>
  <g filter="url(#neon)"><rect x="58" y="56" width="396" height="396" rx="40" fill="none" stroke="#ff3b54" stroke-width="5"/></g>
  <rect x="58" y="56" width="396" height="396" rx="40" fill="none" stroke="#ffa7b2" stroke-width="2" opacity="0.9"/>
  <g filter="url(#sevGlow)"><text x="256" y="392" font-family="'Arial Black','Helvetica Neue',Arial,sans-serif" font-size="340" font-weight="900" text-anchor="middle" letter-spacing="0" stroke="none" stroke-width="0" paint-order="stroke" stroke-linejoin="round" fill="#ff5a6e">7</text></g><g transform="translate(5.5,12)"><text x="256" y="392" font-family="'Arial Black','Helvetica Neue',Arial,sans-serif" font-size="340" font-weight="900" text-anchor="middle" letter-spacing="0" stroke="none" stroke-width="0" paint-order="stroke" stroke-linejoin="round" fill="#4e0410">7</text></g><g transform="translate(5.0,11)"><text x="256" y="392" font-family="'Arial Black','Helvetica Neue',Arial,sans-serif" font-size="340" font-weight="900" text-anchor="middle" letter-spacing="0" stroke="none" stroke-width="0" paint-order="stroke" stroke-linejoin="round" fill="#4e0410">7</text></g><g transform="translate(4.5,10)"><text x="256" y="392" font-family="'Arial Black','Helvetica Neue',Arial,sans-serif" font-size="340" font-weight="900" text-anchor="middle" letter-spacing="0" stroke="none" stroke-width="0" paint-order="stroke" stroke-linejoin="round" fill="#4e0410">7</text></g><g transform="translate(4.0,9)"><text x="256" y="392" font-family="'Arial Black','Helvetica Neue',Arial,sans-serif" font-size="340" font-weight="900" text-anchor="middle" letter-spacing="0" stroke="none" stroke-width="0" paint-order="stroke" stroke-linejoin="round" fill="#4e0410">7</text></g><g transform="translate(3.5,8)"><text x="256" y="392" font-family="'Arial Black','Helvetica Neue',Arial,sans-serif" font-size="340" font-weight="900" text-anchor="middle" letter-spacing="0" stroke="none" stroke-width="0" paint-order="stroke" stroke-linejoin="round" fill="#4e0410">7</text></g><g transform="translate(3.0,7)"><text x="256" y="392" font-family="'Arial Black','Helvetica Neue',Arial,sans-serif" font-size="340" font-weight="900" text-anchor="middle" letter-spacing="0" stroke="none" stroke-width="0" paint-order="stroke" stroke-linejoin="round" fill="#4e0410">7</text></g><g transform="translate(2.5,6)"><text x="256" y="392" font-family="'Arial Black','Helvetica Neue',Arial,sans-serif" font-size="340" font-weight="900" text-anchor="middle" letter-spacing="0" stroke="none" stroke-width="0" paint-order="stroke" stroke-linejoin="round" fill="#4e0410">7</text></g><g transform="translate(2.0,5)"><text x="256" y="392" font-family="'Arial Black','Helvetica Neue',Arial,sans-serif" font-size="340" font-weight="900" text-anchor="middle" letter-spacing="0" stroke="none" stroke-width="0" paint-order="stroke" stroke-linejoin="round" fill="#4e0410">7</text></g><g transform="translate(1.5,4)"><text x="256" y="392" font-family="'Arial Black','Helvetica Neue',Arial,sans-serif" font-size="340" font-weight="900" text-anchor="middle" letter-spacing="0" stroke="none" stroke-width="0" paint-order="stroke" stroke-linejoin="round" fill="#4e0410">7</text></g><g transform="translate(1.0,3)"><text x="256" y="392" font-family="'Arial Black','Helvetica Neue',Arial,sans-serif" font-size="340" font-weight="900" text-anchor="middle" letter-spacing="0" stroke="none" stroke-width="0" paint-order="stroke" stroke-linejoin="round" fill="#4e0410">7</text></g><g transform="translate(0.5,2)"><text x="256" y="392" font-family="'Arial Black','Helvetica Neue',Arial,sans-serif" font-size="340" font-weight="900" text-anchor="middle" letter-spacing="0" stroke="none" stroke-width="0" paint-order="stroke" stroke-linejoin="round" fill="#4e0410">7</text></g><g transform="translate(0.0,1)"><text x="256" y="392" font-family="'Arial Black','Helvetica Neue',Arial,sans-serif" font-size="340" font-weight="900" text-anchor="middle" letter-spacing="0" stroke="none" stroke-width="0" paint-order="stroke" stroke-linejoin="round" fill="#4e0410">7</text></g><text x="256" y="392" font-family="'Arial Black','Helvetica Neue',Arial,sans-serif" font-size="340" font-weight="900" text-anchor="middle" letter-spacing="0" stroke="#ffd9b0" stroke-width="5" paint-order="stroke" stroke-linejoin="round" fill="url(#sevFace)">7</text><polygon points="168,128 352,128 344,166 184,166" fill="#ffffff" opacity="0.4"/><path d="M196 122 Q198.8 139.2 216 142 Q198.8 144.8 196 162 Q193.2 144.8 176 142 Q193.2 139.2 196 122Z" fill="#ffffff" opacity="0.95"/><path d="M296 333 Q298.1 345.9 311 348 Q298.1 350.1 296 363 Q293.9 350.1 281 348 Q293.9 345.9 296 333Z" fill="#ffffff" opacity="0.8"/>
  <path d="M70,150 Q256,40 442,150 L442,84 Q442,60 418,60 L94,60 Q70,60 70,84 Z" fill="#ffffff" opacity="0.07"/>
</g></svg>