<svg xmlns="http://www.w3.org/2000/svg" width="512" height="512" viewBox="0 0 512 512"><defs><linearGradient id="chrome" x1="0" y1="0" x2="0" y2="1"><stop offset="0" stop-color="#fafdff"/><stop offset="0.3" stop-color="#9aa7b8"/><stop offset="0.5" stop-color="#e6edf4"/><stop offset="0.75" stop-color="#55606e"/><stop offset="1" stop-color="#c4cfdc"/></linearGradient><linearGradient id="glass" x1="0" y1="0" x2="0" y2="1"><stop offset="0" stop-color="#343b4e"/><stop offset="0.5" stop-color="#171b28"/><stop offset="1" stop-color="#0a0c14"/></linearGradient><radialGradient id="glassLite" cx="0.5" cy="0.3" r="0.8"><stop offset="0" stop-color="#ffe673" stop-opacity="0.32"/><stop offset="0.7" stop-color="#ffe25a" stop-opacity="0.05"/><stop offset="1" stop-color="#000000" stop-opacity="0"/></radialGradient><filter id="neon" x="-60%" y="-60%" width="220%" height="220%"><feDropShadow dx="0" dy="0" stdDeviation="11" flood-color="#ffe25a" flood-opacity="0.95"/></filter><filter id="vShadow" x="-40%" y="-40%" width="180%" height="180%"><feDropShadow dx="0" dy="12" stdDeviation="14" flood-color="#000000" flood-opacity="0.6"/></filter><linearGradient id="burstG" x1="0" y1="0" x2="0" y2="1"><stop offset="0" stop-color="#ff9d3d"/><stop offset="0.6" stop-color="#e03616"/><stop offset="1" stop-color="#7e1505"/></linearGradient><linearGradient id="wTxt" x1="0" y1="0" x2="0" y2="1"><stop offset="0" stop-color="#fff6cf"/><stop offset="0.45" stop-color="#ffd86b"/><stop offset="1" stop-color="#a87b14"/></linearGradient><filter id="wiGlow" x="-60%" y="-60%" width="220%" height="220%"><feDropShadow dx="0" dy="0" stdDeviation="12" flood-color="#ffae2b" flood-opacity="0.9"/></filter></defs>
<g filter="url(#vShadow)">
  <rect x="22" y="20" width="468" height="468" rx="64" fill="url(#chrome)" stroke="#39414c" stroke-width="4"/>
  <rect x="44" y="42" width="424" height="424" rx="48" fill="url(#glass)"/>
  <rect x="44" y="42" width="424" height="424" rx="48" fill="url(#glassLite)"/>
  <g filter="url(#neon)"><rect x="58" y="56" width="396" height="396" rx="40" fill="none" stroke="#ffe25a" stroke-width="5"/></g>
  <rect x="58" y="56" width="396" height="396" rx="40" fill="none" stroke="#fff2b5" stroke-width="2" opacity="0.9"/>
  <g filter="url(#wiGlow)"><polygon points="256.0,60.0 287.1,140.1 354.0,86.3 340.9,171.1 425.7,158.0 371.9,224.9 452.0,256.0 371.9,287.1 425.7,354.0 340.9,340.9 354.0,425.7 287.1,371.9 256.0,452.0 224.9,371.9 158.0,425.7 171.1,340.9 86.3,354.0 140.1,287.1 60.0,256.0 140.1,224.9 86.3,158.0 171.1,171.1 158.0,86.3 224.9,140.1" fill="url(#burstG)" stroke="#5e0e02" stroke-width="5"/></g><polygon points="256.0,98.0 281.4,161.3 335.0,119.2 325.3,186.7 392.8,177.0 350.7,230.6 414.0,256.0 350.7,281.4 392.8,335.0 325.3,325.3 335.0,392.8 281.4,350.7 256.0,414.0 230.6,350.7 177.0,392.8 186.7,325.3 119.2,335.0 161.3,281.4 98.0,256.0 161.3,230.6 119.2,177.0 186.7,186.7 177.0,119.2 230.6,161.3" fill="#ffffff" opacity="0.14"/><text x="256" y="296" font-family="'Arial Black','Helvetica Neue',Arial,sans-serif" font-size="104" font-weight="900" text-anchor="middle" letter-spacing="2" stroke="#4a2208" stroke-width="14" paint-order="stroke" stroke-linejoin="round" fill="url(#wTxt)">WILD</text><path d="M150 134 Q152.52 149.48 168 152 Q152.52 154.52 150 170 Q147.48 154.52 132 152 Q147.48 149.48 150 134Z" fill="#ffffff" opacity="0.9"/><path d="M366 330 Q367.96 342.04 380 344 Q367.96 345.96 366 358 Q364.04 345.96 352 344 Q364.04 342.04 366 330Z" fill="#ffffff" opacity="0.85"/>
  <path d="M70,150 Q256,40 442,150 L442,84 Q442,60 418,60 L94,60 Q70,60 70,84 Z" fill="#ffffff" opacity="0.07"/>
</g></svg>