<svg xmlns="http://www.w3.org/2000/svg" width="512" height="512" viewBox="0 0 512 512"><defs><linearGradient id="gold" x1="0" y1="0" x2="0" y2="1"><stop offset="0" stop-color="#fff6cf"/><stop offset="0.28" stop-color="#ffd86b"/><stop offset="0.52" stop-color="#fff3b0"/><stop offset="0.75" stop-color="#c89627"/><stop offset="1" stop-color="#7a5a10"/></linearGradient><linearGradient id="goldEdge" x1="0" y1="0" x2="0" y2="1"><stop offset="0" stop-color="#fffbe2"/><stop offset="1" stop-color="#9c7a1a"/></linearGradient><radialGradient id="panel" cx="0.5" cy="0.38" r="0.85"><stop offset="0" stop-color="#9f7874"/><stop offset="0.55" stop-color="#5a160f"/><stop offset="1" stop-color="#280a07"/></radialGradient><radialGradient id="vig" cx="0.5" cy="0.5" r="0.72"><stop offset="0.55" stop-color="#000000" stop-opacity="0"/><stop offset="1" stop-color="#000000" stop-opacity="0.55"/></radialGradient><filter id="tileShadow" x="-40%" y="-40%" width="180%" height="180%"><feDropShadow dx="0" dy="12" stdDeviation="14" flood-color="#000000" flood-opacity="0.55"/></filter><linearGradient id="wreath" x1="0" y1="0" x2="0" y2="1"><stop offset="0" stop-color="#ffe98a"/><stop offset="0.5" stop-color="#d4af37"/><stop offset="1" stop-color="#7a5a10"/></linearGradient><linearGradient id="wildTxt" x1="0" y1="0" x2="0" y2="1"><stop offset="0" stop-color="#fff6cf"/><stop offset="0.45" stop-color="#ffd86b"/><stop offset="1" stop-color="#a87b14"/></linearGradient><filter id="wGlow" x="-60%" y="-60%" width="220%" height="220%"><feDropShadow dx="0" dy="0" stdDeviation="10" flood-color="#ffb300" flood-opacity="0.8"/></filter></defs>
<g filter="url(#tileShadow)">
  <rect x="20" y="18" width="472" height="472" rx="58" fill="url(#gold)" stroke="#5a430e" stroke-width="4"/>
  <rect x="36" y="34" width="440" height="440" rx="46" fill="none" stroke="url(#goldEdge)" stroke-width="3" opacity="0.8"/>
  <rect x="54" y="52" width="404" height="404" rx="34" fill="url(#panel)"/>
  <rect x="54" y="52" width="404" height="404" rx="34" fill="url(#vig)"/>
  <rect x="54" y="52" width="404" height="404" rx="34" fill="none" stroke="#2b2010" stroke-width="3" opacity="0.7"/>
  <circle cx="256" cy="268" r="158" fill="none" stroke="#7a5a10" stroke-width="10" opacity="0.6"/><g transform="rotate(124.5 338.6 402.7)"><ellipse cx="338.6" cy="402.7" rx="14" ry="34" fill="url(#wreath)" stroke="#6b4e0a" stroke-width="2"/></g><g transform="rotate(235.5 173.4 402.7)"><ellipse cx="173.4" cy="402.7" rx="14" ry="34" fill="url(#wreath)" stroke="#6b4e0a" stroke-width="2"/></g><g transform="rotate(112.5 364.8 382.5)"><ellipse cx="364.8" cy="382.5" rx="14" ry="34" fill="url(#wreath)" stroke="#6b4e0a" stroke-width="2"/></g><g transform="rotate(247.5 147.2 382.5)"><ellipse cx="147.2" cy="382.5" rx="14" ry="34" fill="url(#wreath)" stroke="#6b4e0a" stroke-width="2"/></g><g transform="rotate(100.4 386.3 357.3)"><ellipse cx="386.3" cy="357.3" rx="14" ry="34" fill="url(#wreath)" stroke="#6b4e0a" stroke-width="2"/></g><g transform="rotate(259.6 125.7 357.3)"><ellipse cx="125.7" cy="357.3" rx="14" ry="34" fill="url(#wreath)" stroke="#6b4e0a" stroke-width="2"/></g><g transform="rotate(88.4 402.1 328.2)"><ellipse cx="402.1" cy="328.2" rx="14" ry="34" fill="url(#wreath)" stroke="#6b4e0a" stroke-width="2"/></g><g transform="rotate(271.6 109.9 328.2)"><ellipse cx="109.9" cy="328.2" rx="14" ry="34" fill="url(#wreath)" stroke="#6b4e0a" stroke-width="2"/></g><g transform="rotate(76.4 411.4 296.4)"><ellipse cx="411.4" cy="296.4" rx="14" ry="34" fill="url(#wreath)" stroke="#6b4e0a" stroke-width="2"/></g><g transform="rotate(283.6 100.6 296.4)"><ellipse cx="100.6" cy="296.4" rx="14" ry="34" fill="url(#wreath)" stroke="#6b4e0a" stroke-width="2"/></g><g transform="rotate(64.3 413.9 263.4)"><ellipse cx="413.9" cy="263.4" rx="14" ry="34" fill="url(#wreath)" stroke="#6b4e0a" stroke-width="2"/></g><g transform="rotate(295.7 98.1 263.4)"><ellipse cx="98.1" cy="263.4" rx="14" ry="34" fill="url(#wreath)" stroke="#6b4e0a" stroke-width="2"/></g><g transform="rotate(52.3 409.5 230.6)"><ellipse cx="409.5" cy="230.6" rx="14" ry="34" fill="url(#wreath)" stroke="#6b4e0a" stroke-width="2"/></g><g transform="rotate(307.7 102.5 230.6)"><ellipse cx="102.5" cy="230.6" rx="14" ry="34" fill="url(#wreath)" stroke="#6b4e0a" stroke-width="2"/></g><g transform="rotate(40.3 398.3 199.4)"><ellipse cx="398.3" cy="199.4" rx="14" ry="34" fill="url(#wreath)" stroke="#6b4e0a" stroke-width="2"/></g><g transform="rotate(319.7 113.7 199.4)"><ellipse cx="113.7" cy="199.4" rx="14" ry="34" fill="url(#wreath)" stroke="#6b4e0a" stroke-width="2"/></g><g filter="url(#wGlow)"><text x="256" y="296" font-family="'Arial Black','Helvetica Neue',Arial,sans-serif" font-size="96" font-weight="900" text-anchor="middle" letter-spacing="4" stroke="#4a2c08" stroke-width="14" paint-order="stroke" stroke-linejoin="round" fill="url(#wildTxt)">WILD</text></g><polygon points="256.0,112.0 263.1,130.9 282.0,138.0 263.1,145.1 256.0,164.0 248.9,145.1 230.0,138.0 248.9,130.9" fill="#fff6cf"/><path d="M352 342 Q354.52 357.48 370 360 Q354.52 362.52 352 378 Q349.48 362.52 334 360 Q349.48 357.48 352 342Z" fill="#ffffff" opacity="0.85"/>
  <path d="M70,138 Q256,52 442,138 L442,90 Q442,68 420,68 L92,68 Q70,68 70,90 Z" fill="#ffffff" opacity="0.07"/>
  <circle cx="40" cy="38" r="17" fill="url(#gold)" stroke="#5a430e" stroke-width="2.5"/><circle cx="40" cy="38" r="8" fill="#fff3b0" stroke="#c89627" stroke-width="2"/><circle cx="472" cy="38" r="17" fill="url(#gold)" stroke="#5a430e" stroke-width="2.5"/><circle cx="472" cy="38" r="8" fill="#fff3b0" stroke="#c89627" stroke-width="2"/><circle cx="40" cy="470" r="17" fill="url(#gold)" stroke="#5a430e" stroke-width="2.5"/><circle cx="40" cy="470" r="8" fill="#fff3b0" stroke="#c89627" stroke-width="2"/><circle cx="472" cy="470" r="17" fill="url(#gold)" stroke="#5a430e" stroke-width="2.5"/><circle cx="472" cy="470" r="8" fill="#fff3b0" stroke="#c89627" stroke-width="2"/>
</g></svg>