<svg xmlns="http://www.w3.org/2000/svg" width="512" height="512" viewBox="0 0 512 512"><defs><linearGradient id="gold" x1="0" y1="0" x2="0" y2="1"><stop offset="0" stop-color="#fff6cf"/><stop offset="0.28" stop-color="#ffd86b"/><stop offset="0.52" stop-color="#fff3b0"/><stop offset="0.75" stop-color="#c89627"/><stop offset="1" stop-color="#7a5a10"/></linearGradient><linearGradient id="goldEdge" x1="0" y1="0" x2="0" y2="1"><stop offset="0" stop-color="#fffbe2"/><stop offset="1" stop-color="#9c7a1a"/></linearGradient><radialGradient id="panel" cx="0.5" cy="0.38" r="0.85"><stop offset="0" stop-color="#7b85ab"/><stop offset="0.55" stop-color="#1c2c6e"/><stop offset="1" stop-color="#0d1431"/></radialGradient><radialGradient id="vig" cx="0.5" cy="0.5" r="0.72"><stop offset="0.55" stop-color="#000000" stop-opacity="0"/><stop offset="1" stop-color="#000000" stop-opacity="0.55"/></radialGradient><filter id="tileShadow" x="-40%" y="-40%" width="180%" height="180%"><feDropShadow dx="0" dy="12" stdDeviation="14" flood-color="#000000" flood-opacity="0.55"/></filter><linearGradient id="boltFace" x1="0" y1="0" x2="0" y2="1"><stop offset="0" stop-color="#ffffff"/><stop offset="0.3" stop-color="#ffe98a"/><stop offset="0.7" stop-color="#ffb300"/><stop offset="1" stop-color="#c87800"/></linearGradient><filter id="boltGlow" x="-60%" y="-60%" width="220%" height="220%"><feDropShadow dx="0" dy="0" stdDeviation="16" flood-color="#7fb6ff" flood-opacity="0.95"/></filter><filter id="soft8" x="-60%" y="-60%" width="220%" height="220%"><feGaussianBlur stdDeviation="8"/></filter></defs>
<g filter="url(#tileShadow)">
  <rect x="20" y="18" width="472" height="472" rx="58" fill="url(#gold)" stroke="#5a430e" stroke-width="4"/>
  <rect x="36" y="34" width="440" height="440" rx="46" fill="none" stroke="url(#goldEdge)" stroke-width="3" opacity="0.8"/>
  <rect x="54" y="52" width="404" height="404" rx="34" fill="url(#panel)"/>
  <rect x="54" y="52" width="404" height="404" rx="34" fill="url(#vig)"/>
  <rect x="54" y="52" width="404" height="404" rx="34" fill="none" stroke="#2b2010" stroke-width="3" opacity="0.7"/>
  <g filter="url(#boltGlow)"><polygon points="212,76 332,76 270,212 348,212 196,436 248,266 178,266" fill="#dceaff"/></g><g opacity="0.55" filter="url(#soft8)"><polygon points="212,76 332,76 270,212 348,212 196,436 248,266 178,266" fill="#8ab8ff"/></g><g transform="translate(4.50,10)"><polygon points="212,76 332,76 270,212 348,212 196,436 248,266 178,266" fill="#7a4d05"/></g><g transform="translate(4.05,9)"><polygon points="212,76 332,76 270,212 348,212 196,436 248,266 178,266" fill="#7a4d05"/></g><g transform="translate(3.60,8)"><polygon points="212,76 332,76 270,212 348,212 196,436 248,266 178,266" fill="#7a4d05"/></g><g transform="translate(3.15,7)"><polygon points="212,76 332,76 270,212 348,212 196,436 248,266 178,266" fill="#7a4d05"/></g><g transform="translate(2.70,6)"><polygon points="212,76 332,76 270,212 348,212 196,436 248,266 178,266" fill="#7a4d05"/></g><g transform="translate(2.25,5)"><polygon points="212,76 332,76 270,212 348,212 196,436 248,266 178,266" fill="#7a4d05"/></g><g transform="translate(1.80,4)"><polygon points="212,76 332,76 270,212 348,212 196,436 248,266 178,266" fill="#7a4d05"/></g><g transform="translate(1.35,3)"><polygon points="212,76 332,76 270,212 348,212 196,436 248,266 178,266" fill="#7a4d05"/></g><g transform="translate(0.90,2)"><polygon points="212,76 332,76 270,212 348,212 196,436 248,266 178,266" fill="#7a4d05"/></g><g transform="translate(0.45,1)"><polygon points="212,76 332,76 270,212 348,212 196,436 248,266 178,266" fill="#7a4d05"/></g><polygon points="212,76 332,76 270,212 348,212 196,436 248,266 178,266" fill="url(#boltFace)"/><polygon points="223,86 308,86 262,190 240,190" fill="#ffffff" opacity="0.5"/><path d="M330 70 Q333.64 92.36 356 96 Q333.64 99.64 330 122 Q326.36 99.64 304 96 Q326.36 92.36 330 70Z" fill="#ffffff" opacity="0.95"/><path d="M206 394 Q208.52 409.48 224 412 Q208.52 414.52 206 430 Q203.48 414.52 188 412 Q203.48 409.48 206 394Z" fill="#ffffff" opacity="0.8"/>
  <path d="M70,138 Q256,52 442,138 L442,90 Q442,68 420,68 L92,68 Q70,68 70,90 Z" fill="#ffffff" opacity="0.07"/>
  <circle cx="40" cy="38" r="17" fill="url(#gold)" stroke="#5a430e" stroke-width="2.5"/><circle cx="40" cy="38" r="8" fill="#fff3b0" stroke="#c89627" stroke-width="2"/><circle cx="472" cy="38" r="17" fill="url(#gold)" stroke="#5a430e" stroke-width="2.5"/><circle cx="472" cy="38" r="8" fill="#fff3b0" stroke="#c89627" stroke-width="2"/><circle cx="40" cy="470" r="17" fill="url(#gold)" stroke="#5a430e" stroke-width="2.5"/><circle cx="40" cy="470" r="8" fill="#fff3b0" stroke="#c89627" stroke-width="2"/><circle cx="472" cy="470" r="17" fill="url(#gold)" stroke="#5a430e" stroke-width="2.5"/><circle cx="472" cy="470" r="8" fill="#fff3b0" stroke="#c89627" stroke-width="2"/>
</g></svg>